<?xml version="1.0" encoding="utf-8" ?>
<svg baseProfile="full" height="200mm" version="1.1" viewBox="0,0,200,200" width="200mm" xmlns="http://www.w3.org/2000/svg" xmlns:ev="http://www.w3.org/2001/xml-events" xmlns:xlink="http://www.w3.org/1999/xlink"><defs /><rect fill="#1a1a1a" height="200" width="200" x="0" y="0" /><text alignment-baseline="middle" fill="#e1ed5e" style="dominant-baseline: central; font-size:9.0px; font-family:Arial;" text-anchor="middle" x="100.0" y="100.0">2022</text><line stroke="#e1ed5e" stroke-width="0.3" x1="100.0" x2="100.0" y1="15.0" y2="10.0" /><path d="M 100.0 14.0 a86.0,86.0 0 0,1 42.46469731375804,11.215312516191453" fill="none" id="id13" stroke="none" /><text fill="#e1ed5e" style="font-size:6.75px; font-family:Arial;" text-anchor="middle"><textPath startOffset="22.20632615414155" xlink:href="#id13">January</textPath></text><path d="M 100.0 79.0 l 0.0 -27.86180980986279 a48.86180980986279,48.86180980986279 0 0,0 0.8410757346758253,0.007239404385440922 l -0.4795952554032969 27.85768178208591" fill="#fff016" stroke="none" /><path d="M 105.01212808612495 79.60689891045804 l 6.654630121255437 -27.076032863556353 a48.88181589637059,48.88181589637059 0 0,0 0.8153745530206505,0.20785712863670958 l -7.119713562961112 26.957472738750774" fill="#fff116" stroke="none" /><path d="M 110.05341064243156 81.56283822128135 l 13.3402535121385 -24.464972228860354 a48.86569988223931,48.86569988223931 0 0,0 0.7350236887349948,0.40903988698776195 l -13.759401289945528 24.231716944312414" fill="#fff016" stroke="none" /><line stroke="#e1ed5e" stroke-width="0.3" x1="143.23703022742887" x2="145.7803849466894" y1="26.81831364943548" y2="22.513508569990506" /><path d="M 143.74570117128098 25.957352633546492 a86.0,86.0 0 0,1 28.547481713284135,27.462654790039103" fill="none" id="id14" stroke="none" /><text fill="#e1ed5e" style="font-size:6.75px; font-family:Arial;" text-anchor="middle"><textPath startOffset="19.985693538727396" xlink:href="#id14">February</textPath></text><path d="M 110.68208982089419 81.91981866633111 l 14.164012664321804 -23.973578361268984 a48.84513807110629,48.84513807110629 0 0,0 0.7202051251262649,0.4339155294584279 l -14.574579855665705 23.72621622235194" fill="#fff016" stroke="none" /><path d="M 112.19680574252982 82.90503203632743 l 8.299256812460651 -11.63218733873832 a35.28934728819615,35.28934728819615 0 0,0 0.4914540427262233,0.35706226260076274 l -8.498256171540662 11.487605841320882" fill="#ff0c01" stroke="none" /><path d="M 115.9244219780498 86.31012108654704 l 10.356131365642305 -8.902940690900849 a34.65693266469958,34.65693266469958 0 0,0 0.3850045028460025,0.4557238946982604 l -10.507846481975424 8.723357846573482" fill="#ff0000" stroke="none" /><path d="M 117.2510076193507 88.02491185347247 l 14.857272529255418 -10.313435138434667 a39.08605792767641,39.08605792767641 0 0,0 0.37890310131093163,0.5559935469868046 l -15.032600096235084 10.056163568177457" fill="#ff4f07" stroke="none" /><line stroke="#e1ed5e" stroke-width="0.3" x1="172.23445277983987" x2="176.4835382374775" y1="55.19839476539836" y2="52.563006222186495" /><path d="M 173.08426987136738 54.67131705675599 a86.0,86.0 0 0,1 12.851231095245387,41.99856678651699" fill="none" id="id15" stroke="none" /><text fill="#e1ed5e" style="font-size:6.75px; font-family:Arial;" text-anchor="middle"><textPath startOffset="22.20632615414155" xlink:href="#id15">March</textPath></text><path d="M 118.56541770881063 90.18545643968196 l 15.98340061978476 -8.449569198243566 a39.07938923217381,39.07938923217381 0 0,0 0.3092678975357815,0.5974071400444357 l -16.12647795048066 8.173189335938787" fill="#ff4f07" stroke="none" /><path d="M 119.47837535516314 92.15188598940014 l 18.56730377411993 -7.481030333985662 a41.01775672492954,41.01775672492954 0 0,0 0.25822914325804497,0.6571650031926274 l -18.693326467259677 7.16031632589725" fill="#ff710a" stroke="none" /><path d="M 119.61058180528143 92.48833698450437 l 26.023844304445664 -9.968207507748437 a48.86764491842756,48.86764491842756 0 0,0 0.2941260042105292,0.7881114610351185 l -26.191574897157818 9.518772909683983" fill="#fff016" stroke="none" /><path d="M 119.97218684219823 93.5106431181261 l 13.265197916268498 -4.310124077423343 a34.9478545060005,34.9478545060005 0 0,0 0.1809708348378162,0.5737270011760662 l -13.33742423487452 4.081146909820857" fill="#ff0500" stroke="none" /><path d="M 120.37134235888165 94.90015583598534 l 14.734094861711206 -3.688592846203643 a36.18878759410932,36.18878759410932 0 0,0 0.1460772469670783,0.6055844956624231 l -14.795404908939103 3.434423118881814" fill="#ff1c02" stroke="none" /><path d="M 120.87857604477298 97.74499172005257 l 20.272471067832498 -2.1895453988300972 a41.390370086137324,41.390370086137324 0 0,0 0.07040871374062502,0.7090061387229895 l -20.30715690725535 1.840263729402673" fill="#ff770b" stroke="none" /><line stroke="#e1ed5e" stroke-width="0.3" x1="184.98032266829074" x2="189.97916517819016" y1="98.17113171792111" y2="98.06355123074" /><path d="M 185.9800911702706 98.14961562048488 a86.0,86.0 0 0,1 -9.607161424134198,41.387399972396054" fill="none" id="id16" stroke="none" /><text fill="#e1ed5e" style="font-size:6.75px; font-family:Arial;" text-anchor="middle"><textPath startOffset="21.466115282336823" xlink:href="#id16">April</textPath></text><line stroke="#e1ed5e" stroke-width="0.3" x1="174.80103733775053" x2="179.2010983576182" y1="140.37084112569926" y2="142.7455964860345" /><path d="M 175.68104954172406 140.8457921977663 a86.0,86.0 0 0,1 -30.038265399797805,32.042727171017184" fill="none" id="id17" stroke="none" /><text fill="#e1ed5e" style="font-size:6.75px; font-family:Arial;" text-anchor="middle"><textPath startOffset="22.206326154141568" xlink:href="#id17">May</textPath></text><path d="M 112.34349029814194 116.9893568818739 l 12.43119494757367 17.110071975692993 a42.14921206187067,42.14921206187067 0 0,0 -0.590636250595748,0.4214032824349806 l -12.134831369129039 -17.321519519972192" fill="#ff840c" stroke="none" /><path d="M 111.7513745106137 117.40417183066458 l 8.366695040046745 12.391350305466348 a35.9514931791418,35.9514931791418 0 0,0 -0.5158616434739537,0.34188496821888503 l -8.152158697832826 -12.533533294776552" fill="#ff1802" stroke="none" /><path d="M 111.45004920935366 117.60387380957326 l 8.632722309673333 13.272375637340646 a36.832872434735435,36.832872434735435 0 0,0 -0.5344593577975176,0.3411172492156813 l -8.402981149828884 -13.419007315380137" fill="#ff2703" stroke="none" /><line stroke="#e1ed5e" stroke-width="0.3" x1="143.8653032363475" x2="146.44561519142675" y1="172.8068346515853" y2="177.08958963109032" /><path d="M 144.38136562736335 173.6633856474863 a86.0,86.0 0 0,1 -40.68145358897372,12.25698825130547" fill="none" id="id18" stroke="none" /><text fill="#e1ed5e" style="font-size:6.75px; font-family:Arial;" text-anchor="middle"><textPath startOffset="21.466115282336833" xlink:href="#id18">June</textPath></text><path d="M 110.8373102113329 117.98757091392108 l 7.306369228707753 12.12697911768158 a35.15791841433241,35.15791841433241 0 0,0 -0.5210606570620535,0.30785182062891986 l -7.096540700617318 -12.25094951060425" fill="#ff0901" stroke="none" /><path d="M 110.21172684928248 118.3499491758327 l 7.483041882675457 13.446642301969735 a36.388570596874715,36.388570596874715 0 0,0 -0.5499477245788221,0.29987534813755795 l -7.250471346227987 -13.573458301867063" fill="#ff2003" stroke="none" /><path d="M 108.59647513512805 119.15986991738527 l 6.104217349217113 13.605112388509706 a35.91175886843881,35.91175886843881 0 0,0 -0.566173376096007,0.2481937697787 l -5.869123298463353 -13.70817071158286" fill="#ff1702" stroke="none" /><path d="M 107.59598834532513 119.57807347666477 l 6.390109993879437 16.470015131228674 a38.666207973325214,38.666207973325214 0 0,0 -0.6225807793360837,0.23540677862526524 l -6.105658993783079 -16.577570159960572" fill="#ff4806" stroke="none" /><path d="M 106.2309692047433 120.05430185196036 l 4.246098363029621 13.666018153401989 a35.310464823954376,35.310464823954376 0 0,0 -0.5819921685580004,0.1753494662319687 l -4.010231220031375 -13.737082988739685" fill="#ff0c01" stroke="none" /><path d="M 104.13013068566511 120.58985236759428 l 3.9925817099738365 19.904132394464423 a41.30062055916483,41.30062055916483 0 0,0 -0.6982408493709141,0.1338195206091634 l -3.6493732460312183 -19.969909113422055" fill="#ff760a" stroke="none" /><path d="M 103.06178313531738 120.77559828337769 l 3.004580047247355 20.387449180130293 a41.60765841459704,41.60765841459704 0 0,0 -0.7094529936158043,0.09832372036474994 l -2.6531984624447205 -20.436147465987645" fill="#ff7b0b" stroke="none" /><path d="M 101.62511606390274 120.93702456842531 l 1.6752175554794468 21.5825022566695 a42.64741918837741,42.64741918837741 0 0,0 -0.7323927388571476,0.05051009130109012 l -1.303462055843369 -21.608140692486877" fill="#ff8c0c" stroke="none" /><path d="M 100.90346689309514 120.98055641714683 l 0.605076680218899 14.051256911630576 a35.064278814983396,35.064278814983396 0 0,0 -0.6032385866218639,0.020776756635166083 l -0.3631177419223829 -14.059590466691835" fill="#ff0701" stroke="none" /><line stroke="#e1ed5e" stroke-width="0.3" x1="102.19456741930631" x2="102.32365962044197" y1="184.97166512339345" y2="189.96999836594603" /><path d="M 102.22038585953345 185.97133177190398 a86.0,86.0 0 0,1 -42.740103519485714,-10.115201625700543" fill="none" id="id19" stroke="none" /><text fill="#e1ed5e" style="font-size:6.75px; font-family:Arial;" text-anchor="middle"><textPath startOffset="22.20632615414155" xlink:href="#id19">July</textPath></text><path d="M 100.18074693466247 120.99922214144158 l 0.17886477689516095 20.780552601431854 a41.78132235997724,41.78132235997724 0 0,0 -0.7192234231152185,0.0 l 0.17886477689514665 -20.780552601431854" fill="#ff7e0b" stroke="none" /><path d="M 99.81925306533755 120.99922214144158 l -0.12552342131459648 14.583341139707885 a35.58388133956098,35.58388133956098 0 0,0 -0.6124499574377823,-0.010543881434814514 l 0.37653306864504665 -14.579019780993912" fill="#ff1101" stroke="none" /><path d="M 97.65516085044442 120.86867818915974 l -1.6742468611808876 14.900518426526949 a35.99428397528349,35.99428397528349 0 0,0 -0.6151124497919079,-0.07448155138360009 l 1.930486734024185 -14.869491346418" fill="#ff1802" stroke="none" /><path d="M 96.58105272829116 120.7198165907248 l -2.333734493998385 14.143110976650451 a35.334360982838696,35.334360982838696 0 0,0 -0.5992556669721842,-0.10418827900520329 l 2.576839132442619 -14.100844119124242" fill="#ff0c01" stroke="none" /><path d="M 95.86986931433489 120.58985236759428 l -2.779341817513812 13.855793449905093 a35.13179935694722,35.13179935694722 0 0,0 -0.5919014565636908,-0.12403870517298965 l 3.0174347355068893 -13.805898764005562" fill="#ff0901" stroke="none" /><path d="M 95.16358092515715 120.4354850818985 l -4.417647141241734 18.666033868223128 a40.18166902629107,40.18166902629107 0 0,0 -0.6716972821530932,-0.16508684963954814 l 4.738297708138038 -18.58722576026955" fill="#ff6209" stroke="none" /><path d="M 94.11515582081647 120.15858648285463 l -5.753017814080957 19.707014087609085 a41.52957910475409,41.52957910475409 0 0,0 -0.6844965061485163,-0.2062331822920882 l 6.091389294669719 -19.60506553621127" fill="#ff790b" stroke="none" /><path d="M 93.08242187328487 119.8279376855182 l -6.208127525868719 17.79443086465402 a39.84628921497281,39.84628921497281 0 0,0 -0.6456625143498064,-0.23151160607389726 l 6.513509600848252 -17.684931717540167" fill="#ff5d08" stroke="none" /><path d="M 92.7421414339146 119.70592522655815 l -5.1908520988212565 14.09376366184352 a36.01929158341824,36.01929158341824 0 0,0 -0.579961671974867,-0.21929187899330665 l 5.432683991556407 -14.00232353274358" fill="#ff1902" stroke="none" /><path d="M 92.06813273071674 119.44442032107085 l -5.267481088761484 12.912863118601502 a34.94590946981224,34.94590946981224 0 0,0 -0.5550218181904899,-0.2319991650172279 l 5.488974366449436 -12.820278910564301" fill="#ff0500" stroke="none" /><path d="M 90.7491055286396 118.85261126421891 l -8.625901852299485 17.578924387059175 a40.581235031821855,40.581235031821855 0 0,0 -0.6244603581876523,-0.31311738717967436 l 8.927216118169898 -17.427839158970198" fill="#ff6909" stroke="none" /><path d="M 90.42595943632237 118.69057910512821 l -7.035640986888761 13.735079097076039 a36.43219497995422,36.43219497995422 0 0,0 -0.5556934996670416,-0.2907125753290619 l 7.271025389082298 -13.61193710280226" fill="#ff2003" stroke="none" /><line stroke="#e1ed5e" stroke-width="0.3" x1="58.666819895761336" x2="56.23545636021788" y1="174.27360380694188" y2="178.64263932499728" /><path d="M 58.180547188652646 175.14741091055294 a86.0,86.0 0 0,1 -31.652253787137756,-30.449443065178592" fill="none" id="id20" stroke="none" /><text fill="#e1ed5e" style="font-size:6.75px; font-family:Arial;" text-anchor="middle"><textPath startOffset="22.20632615414155" xlink:href="#id20">August</textPath></text><path d="M 89.4739219176387 118.17145234162733 l -7.01241787010345 12.105726000616514 a34.99008957751697,34.99008957751697 0 0,0 -0.5185733367675345,-0.3063822679563531 l 7.219759077899366 -11.98322516036641" fill="#ff0601" stroke="none" /><path d="M 88.8546689885994 117.79835938074946 l -8.165112235722882 13.039146330144566 a36.384680524498194,36.384680524498194 0 0,0 -0.5279559182154042,-0.3369664463747828 l 8.388349955985209 -12.896665454945978" fill="#ff1f03" stroke="none" /><path d="M 88.54995079064634 117.60387380957326 l -7.721136164514342 11.870857864576411 a35.16097489977109,35.16097489977109 0 0,0 -0.5045186359176269,-0.3343674413258461 l 7.924329499171931 -11.736192402159245" fill="#ff0901" stroke="none" /><path d="M 88.24862548938628 117.40417183066458 l -15.580907342320518 23.0758358027386 a48.843470897230645,48.843470897230645 0 0,0 -0.6927472160886842,-0.47647785203215837 l 15.975811443032093 -22.80421716134134" fill="#fff016" stroke="none" /><path d="M 87.65650970185807 116.9893568818739 l -16.40795567199324 22.58361353882395 a48.91488151157098,48.91488151157098 0 0,0 -0.6769237970217916,-0.5007720420743278 l 16.794264439433597 -22.297831548009853" fill="#fff116" stroke="none" /><path d="M 87.07902340077011 116.55440617244103 l -9.640682620778453 12.351680591502042 a36.66865580798391,36.66865580798391 0 0,0 -0.4942280132655226,-0.392644624296875 l 9.851868126761333 -12.183902053200036" fill="#ff2503" stroke="none" /><path d="M 86.24171649860922 115.8653595955263 l -14.185539033864469 16.358049156777735 a42.652142847691756,42.652142847691756 0 0,0 -0.5505328325613067,-0.4857812153804979 l 14.465014219332364 -16.111444799624948" fill="#ff8c0c" stroke="none" /><path d="M 85.70375840098266 115.38237550388516 l -9.564372331919955 10.291010098673423 a35.04927425010254,35.04927425010254 0 0,0 -0.4383899226719338,-0.41452503480562913 l 9.740098088982705 -10.124850427121864" fill="#ff0701" stroke="none" /><path d="M 85.18274418774928 114.88116024355367 l -9.783345227875197 9.825539215813958 a34.86560726146844,34.86560726146844 0 0,0 -0.4216403727229422,-0.4271194714833106 l 9.95102622565367 -9.655679250349982" fill="#ff0400" stroke="none" /><path d="M 84.67929136418377 114.36230785411682 l -10.22846892093335 9.58861779900198 a35.02009870727867,35.02009870727867 0 0,0 -0.40849042717581135,-0.44333568086014785 l 10.39200575610489 -9.411130863340489" fill="#ff0701" stroke="none" /><path d="M 84.19399662182784 113.82643327865904 l -20.967104657219142 18.341149666591182 a48.857086150548454,48.857086150548454 0 0,0 -0.5482637291391671,-0.6377545801001602 l 21.27971089592909 -17.97751798732949" fill="#fff016" stroke="none" /><path d="M 83.50135304334701 112.99209946851258 l -21.914076717740237 17.25655838478859 a48.89293038887492,48.89293038887492 0 0,0 -0.5149896613452699,-0.6656935585937249 l 22.207873196303577 -16.876786832081613" fill="#fff116" stroke="none" /><path d="M 82.85270091963577 112.12312394758628 l -22.819427863050844 16.133313538197942 a48.94655781520834,48.94655781520834 0 0,0 -0.48046662026491493,-0.6921480013854611 l 23.09375539047789 -15.738124274625468" fill="#fff216" stroke="none" /><path d="M 82.44556493220864 111.52570212397912 l -17.70819925550559 11.626658960133954 a42.183944850946716,42.183944850946716 0 0,0 -0.39330529739934683,-0.6104185557289309 l 17.905709416281983 -11.320118804483576" fill="#ff840c" stroke="none" /><path d="M 82.24976979558568 111.22182372390057 l -18.487934440783395 11.688205669687932 a42.87276552390278,42.87276552390278 0 0,0 -0.3889894203584787,-0.6271748025457026 l 18.68638850080983 -11.368234535776965" fill="#ff900d" stroke="none" /><line stroke="#e1ed5e" stroke-width="0.3" x1="26.63291911575756" x2="22.317208475507996" y1="142.92168965132927" y2="145.44649492493687" /><path d="M 25.769776987707644 143.4266507060508 a86.0,86.0 0 0,1 -11.730757126820373,-40.83630448921669" fill="none" id="id21" stroke="none" /><text fill="#e1ed5e" style="font-size:6.75px; font-family:Arial;" text-anchor="middle"><textPath startOffset="21.46611528233685" xlink:href="#id21">September</textPath></text><path d="M 81.51974371655577 109.97397251340807 l -19.586474834409504 10.571009332157931 a43.2570491022401,43.2570491022401 0 0,0 -0.3480080927341147,-0.6583001611789573 l 19.765535435368506 -10.232294155892847" fill="#ff960d" stroke="none" /><path d="M 81.02952815118164 109.00673069616217 l -19.80382017619412 9.402384743177244 a42.92250287785967,42.92250287785967 0 0,0 -0.31113783079884905,-0.6701632074198561 l 19.962732623832796 -9.06010146847856" fill="#ff910d" stroke="none" /><path d="M 80.58989483394504 108.01547362559985 l -18.057661779780755 7.456977203243725 a40.53677706180452,40.53677706180452 0 0,0 -0.26078155273718473,-0.6472384273542059 l 18.18334594677533 -7.1450394080467134" fill="#ff6809" stroke="none" /><path d="M 80.32549172779594 107.34259656027581 l -19.429803695734073 7.2512719407929085 a41.738809426148165,41.738809426148165 0 0,0 -0.2454157304121786,-0.6752786882321754 l 19.55174368715148 -6.9157454555546165" fill="#ff7d0b" stroke="none" /><path d="M 79.76711848015287 105.62410040840567 l -13.786105121214755 3.8321007003619956 a35.30879765007873,35.30879765007873 0 0,0 -0.15773267760061446,-0.5869819713482243 l 13.850025875157144 -3.5942277958382323" fill="#ff0c01" stroke="none" /><path d="M 79.4281124754447 104.21870165774334 l -21.113560998943857 4.329783287060582 a42.55294600209058,42.55294600209058 0 0,0 -0.14097196692610894,-0.7188130222409611 l 21.184962898845633 -3.9657065377516667" fill="#ff8b0c" stroke="none" /><path d="M 79.29508885075956 103.50808413554451 l -13.919523539989115 2.35841918629849 a35.1179062413168,35.1179062413168 0 0,0 -0.09585222744080747,-0.5968719117720139 l 13.958057521791213 -2.1184680448332625" fill="#ff0801" stroke="none" /><path d="M 79.18660465613746 102.79330883721812 l -28.03613400355376 3.76265282909025 a49.28749487277875,49.28749487277875 0 0,0 -0.10561251820375024,-0.8418356831674341 l 28.096748031004356 -3.279499391635407" fill="#fff717" stroke="none" /><line stroke="#e1ed5e" stroke-width="0.3" x1="15.007084014347285" x2="10.007500721073583" y1="101.09737516637583" y2="101.16192664675087" /><path d="M 14.007167355692545 101.11028546245083 a86.0,86.0 0 0,1 10.666146001902534,-42.60595125391555" fill="none" id="id22" stroke="none" /><text fill="#e1ed5e" style="font-size:6.75px; font-family:Arial;" text-anchor="middle"><textPath startOffset="22.20632615414155" xlink:href="#id22">October</textPath></text><path d="M 79.00019446554 99.90962569577889 l -14.0144116826754 -0.06031211588182439 a35.014541461026504,35.014541461026504 0 0,0 0.0077815531321459245,-0.6026898656571137 l 14.011297122425539 0.3015382395994101" fill="#ff0701" stroke="none" /><path d="M 79.00486145842228 99.54816195383935 l -19.195007579123217 -0.41309728456491157 a40.199452214298006,40.199452214298006 0 0,0 0.020843043734522494,-0.6916791496280134 l 19.18505284093305 0.7434465816179193" fill="#ff6309" stroke="none" /><path d="M 79.01574976396665 99.18683210126434 l -23.395952176440954 -0.906624590168469 a44.413512047315976,44.413512047315976 0 0,0 0.036178806514647985,-0.7636774245786181 l 23.376879761692805 1.3092131213700962" fill="#ffa90f" stroke="none" /><path d="M 79.46518482838121 95.60439243477599 l -13.706541489440992 -2.933972230113531 a35.01704222183998,35.01704222183998 0 0,0 0.13123989397359273,-0.5883227111264736 l 13.654007208465362 3.169473110789964" fill="#ff0701" stroke="none" /><path d="M 79.62865764111835 94.90015583598534 l -20.6619110115521 -5.172586294673554 a42.299535572991786,42.299535572991786 0 0,0 0.1829025233433369,-0.7047980330768007 l 20.569812156338454 5.527480753299218" fill="#ff860c" stroke="none" /><path d="M 79.91906864156998 93.8553929516997 l -13.440250761935827 -4.112611018315395 a35.055387220979924,35.055387220979924 0 0,0 0.18152767260303573,-0.5754923290614489 l 13.367467605564586 4.343353513803258" fill="#ff0701" stroke="none" /><path d="M 81.26839172434947 90.50648371742162 l -26.33682414738844 -13.347976596310303 a50.52620506238671,50.52620506238671 0 0,0 0.3998561266469697,-0.7723947650330505 l 26.10315858758136 13.799344083603689" fill="#f4ff19" stroke="none" /><line stroke="#e1ed5e" stroke-width="0.3" x1="26.266209847984243" x2="21.928928074336255" y1="57.711370442889674" y2="55.22380399835377" /><path d="M 25.398753493254645 57.213857153982495 a86.0,86.0 0 0,1 29.58750427330803,-30.492523968695096" fill="none" id="id23" stroke="none" /><text fill="#e1ed5e" style="font-size:6.75px; font-family:Arial;" text-anchor="middle"><textPath startOffset="21.46611528233685" xlink:href="#id23">November</textPath></text><path d="M 81.96595687620814 89.24020034530311 l -12.302435414654424 -7.340103348865499 a35.32574725114784,35.32574725114784 0 0,0 0.31605475343927514,-0.5195109136521932 l 12.174264862928931 7.550782035724767" fill="#ff0c01" stroke="none" /><path d="M 82.54541684631803 88.32363383020206 l -30.194763699214494 -20.198999555493764 a57.327996612726096,57.327996612726096 0 0,0 0.5557417877417313,-0.8154824985762118 l 29.842597445804024 20.71576007734039" fill="#92ff23" stroke="none" /><path d="M 84.07557802195018 86.31012108654704 l -26.574696973121146 -22.845688479318152 a56.04482845310081,56.04482845310081 0 0,0 0.6351964369629511,-0.7261393322554001 l 26.17750867258035 23.299743367776497" fill="#a4ff21" stroke="none" /><path d="M 85.83668400450813 84.49514656593479 l -25.29539714139881 -27.691355990270708 a58.50557709356021,58.50557709356021 0 0,0 0.7493979715487867,-0.67281689812477 l 24.814988182254048 28.122671897164757" fill="#82ff25" stroke="none" /><path d="M 86.10567301691215 84.25364557470407 l -23.325673405404018 -26.434840715729628 a56.2546144991201,56.2546144991201 0 0,0 0.7315944797354681,-0.6344315235748782 l 22.867185127021777 26.83243723272419" fill="#a1ff22" stroke="none" /><path d="M 86.93701828274178 83.55741782278169 l -13.155625751824969 -16.55919469222935 a42.14893419955807,42.14893419955807 0 0,0 0.5719559086476934,-0.4464206589138163 l 12.868637288017851 16.78319374036639" fill="#ff840c" stroke="none" /><path d="M 87.80319425747018 82.90503203632743 l -36.59041722758948 -51.284903891017706 a84.0,84.0 0 0,0 1.184275441665359,-0.8296606289442297 l 35.70221064634046 51.907149362725875" fill="#4dd2ff" stroke="none" /><line stroke="#e1ed5e" stroke-width="0.3" x1="56.762969772571076" x2="54.21961505331055" y1="26.818313649435495" y2="22.513508569990535" /><path d="M 56.25429882871897 25.957352633546506 a86.0,86.0 0 0,1 42.265352541879196,-11.944610805530505" fill="none" id="id24" stroke="none" /><text fill="#e1ed5e" style="font-size:6.75px; font-family:Arial;" text-anchor="middle"><textPath startOffset="22.20632615414155" xlink:href="#id24">December</textPath></text><path d="M 92.57280143429618 80.3572730644239 l -9.898672912778789 -26.1790400957016 a48.98795929978698,48.98795929978698 0 0,0 0.7913134104200841,-0.29144740722629836 l 9.446577176586135 26.345550770734217" fill="#fff216" stroke="none" /><path d="M 99.63851952072746 79.00311137660856 l -0.48185758741829043 -27.989091183343753 a48.99323868372653,48.99323868372653 0 0,0 0.8433380666908192,-0.0072588769913375355 l 6.856366030358713e-15 27.99323868372653" fill="#fff216" stroke="none" /></svg>