<?xml version="1.0" encoding="utf-8" ?>
<svg baseProfile="full" height="200mm" version="1.1" viewBox="0,0,200,200" width="200mm" xmlns="http://www.w3.org/2000/svg" xmlns:ev="http://www.w3.org/2001/xml-events" xmlns:xlink="http://www.w3.org/1999/xlink"><defs /><rect fill="#1a1a1a" height="200" width="200" x="0" y="0" /><text alignment-baseline="middle" fill="#e1ed5e" style="dominant-baseline: central; font-size:9.0px; font-family:Arial;" text-anchor="middle" x="100.0" y="100.0">2025</text><line stroke="#e1ed5e" stroke-width="0.3" x1="100.0" x2="100.0" y1="15.0" y2="10.0" /><path d="M 100.0 14.0 a86.0,86.0 0 0,1 42.46469731375804,11.215312516191453" fill="none" id="id49" stroke="none" /><text fill="#e1ed5e" style="font-size:6.75px; font-family:Arial;" text-anchor="middle"><textPath startOffset="22.20632615414155" xlink:href="#id49">January</textPath></text><path d="M 100.0 79.0 l 0.0 -29.924371847183437 a50.92437184718344,50.92437184718344 0 0,0 0.8765793496177295,0.007544995208137159 l -0.5150988703452012 29.91993822858386" fill="#f2ff19" stroke="none" /><path d="M 100.36148047927253 79.00311137660856 l 0.5095998816852391 -29.600524984840018 a50.60491127190811,50.60491127190811 0 0,0 0.8708222410473617,0.02249076931038885 l -1.0190487579274685 29.58736742338727" fill="#f7ff19" stroke="none" /><path d="M 100.72285384407766 79.0124445844662 l 0.4945410234002469 -14.358652470211362 a35.36716644241768,35.36716644241768 0 0,0 0.6082464949091207,0.026192373551276255 l -0.7416283506986991 14.34801237013589" fill="#ff0701" stroke="none" /><path d="M 101.08401301168833 79.027996857942 l 1.5601788716845355 -30.18420982620836 a51.22450464348794,51.22450464348794 0 0,0 0.8801783478458083,0.05309476160486498 l -2.079519268369956 30.15288179522319" fill="#edff1a" stroke="none" /><path d="M 101.44485096284872 79.0497635885617 l 2.1496376223603044 -31.169592951356833 a52.24363081750808,52.24363081750808 0 0,0 0.8966246233315164,0.06959532735440206 l -2.685852435054162 31.127972361813967" fill="#deff1b" stroke="none" /><path d="M 102.16513564639614 79.11191278185805 l 1.4495664237625319 -13.984652619082187 a35.059578645653005,35.059578645653005 0 0,0 0.5997413338303795,0.06738792684544131 l -1.6900744611026366 13.957628738766145" fill="#ff0100" stroke="none" /><path d="M 102.52436894288641 79.15227682838746 l 1.9242022153959981 -15.891193411257428 a37.007266543658424,37.007266543658424 0 0,0 0.6317409520993282,0.08201810666921934 l -2.1974578960031725 15.85571698142407" fill="#ff2503" stroke="none" /><path d="M 102.88285421437855 79.19881850522331 l 3.8714967406055827 -27.934713436465888 a49.20171451862435,49.20171451862435 0 0,0 0.8379075870454208,0.1234857973270876 l -4.351773308079659 27.863933154977833" fill="#fff216" stroke="none" /><path d="M 103.95276090670814 79.375362276772 l 7.064484527462134 -36.86092772092243 a58.53178565011022,58.53178565011022 0 0,0 0.9878871880128169,0.1981608763552221 l -7.697938124942076 36.73386288849" fill="#84ff25" stroke="none" /><path d="M 104.66035177308747 79.52364482259891 l 3.9316490562046296 -17.2746278451862 a38.716394426937924,38.716394426937924 0 0,0 0.6485481183625202,0.15349038586709873 l -4.228420861529673 17.204391547178233" fill="#ff4306" stroke="none" /><path d="M 105.01212808612495 79.60689891045804 l 10.673197474180942 -43.426582740804605 a65.71895831598508,65.71895831598508 0 0,0 1.0962269972842347,0.2794526701200254 l -11.419133360150202 43.23642707451572" fill="#30ff38" stroke="none" /><path d="M 105.71112130821622 79.79150937346287 l 12.983327661950572 -45.94079537066193 a68.74016628025717,68.74016628025717 0 0,0 1.1358814349794026,0.3315949387902972 l -13.7721993146534 45.71050210295293" fill="#35ff65" stroke="none" /><path d="M 108.76106565485865 80.91482961587045 l 13.688817110498727 -29.819820693407557 a53.81166591430036,53.81166591430036 0 0,0 0.8384928368298009,0.39368362985304284 l -14.200088158628125 29.579772080914513" fill="#c7ff1e" stroke="none" /><path d="M 109.73455568895987 81.39251694778311 l 18.92122290859383 -36.167684057545 a61.81806029741113,61.81806029741113 0 0,0 0.9386187971352896,0.5013776550022103 l -19.54098675225743 35.83662767604103" fill="#59ff2a" stroke="none" /><path d="M 110.36928655335952 81.73862282372117 l 15.255011123708789 -26.86563926311012 a51.894626351520145,51.894626351520145 0 0,0 0.7729908900117324,0.44776621660439203 l -15.71519874618585 26.599068889115678" fill="#e3ff1b" stroke="none" /><line stroke="#e1ed5e" stroke-width="0.3" x1="143.23703022742887" x2="145.7803849466894" y1="26.81831364943548" y2="22.513508569990506" /><path d="M 143.74570117128098 25.957352633546492 a86.0,86.0 0 0,1 28.547481713284135,27.462654790039103" fill="none" id="id50" stroke="none" /><text fill="#e1ed5e" style="font-size:6.75px; font-family:Arial;" text-anchor="middle"><textPath startOffset="19.985693538727396" xlink:href="#id50">February</textPath></text><path d="M 110.68208982089419 81.91981866633111 l 8.656196413728647 -14.651215580863482 a38.01728105044944,38.01728105044944 0 0,0 0.5605520167849776,0.3377263180536241 l -8.907110496731264 14.500042653351244" fill="#ff3705" stroke="none" /><path d="M 111.2981086023043 82.29822771554956 l 16.93876987281647 -26.539508303730756 a52.48439972125924,52.48439972125924 0 0,0 0.7573573213076136,0.4926062690429316 l -17.393094219908363 26.244003110528297" fill="#daff1b" stroke="none" /><path d="M 111.60114157652 82.49532879139004 l 16.824601725454382 -25.38621906105853 a51.455333546625525,51.455333546625525 0 0,0 0.734084589443552,0.4956571916752841 l -17.259091009304477 25.092849957084574" fill="#eaff1a" stroke="none" /><path d="M 112.19680574252982 82.90503203632743 l 17.767686568862437 -24.903080289633156 a51.5917324439341,51.5917324439341 0 0,0 0.7184877995547964,0.5220119422295476 l -18.193719684771022 24.593549112586935" fill="#e8ff1a" stroke="none" /><path d="M 112.77801427241765 83.33499621200491 l 15.006406235891081 -19.57125821225129 a45.6622459668053,45.6622459668053 0 0,0 0.6196311218496245,0.4836319190296274 l -15.341069912900137 19.310047903998438" fill="#ffb911" stroke="none" /><path d="M 113.34407831869373 83.78471172551755 l 8.893206024717832 -10.806733588572065 a34.995520863921044,34.995520863921044 0 0,0 0.46184499274407975,0.3867818994722153 l -9.07790855442103 10.652050531706031" fill="#ff0000" stroke="none" /><path d="M 113.6212207817346 84.01681056812373 l 9.770106245449227 -11.464277790722836 a36.06269037424015,36.06269037424015 0 0,0 0.46899735136602994,0.4067098815279773 l -9.96599739546202 11.294402915775187" fill="#ff1402" stroke="none" /><path d="M 113.89432698308785 84.25364557470407 l 19.00176439593765 -21.534581505718112 a49.719422883914994,49.719422883914994 0 0,0 0.6368561170876965,0.5717757099944737 l -19.369631500621335 21.20430678695434" fill="#fffa17" stroke="none" /><path d="M 114.42810811169701 84.74124197986012 l 43.28432433509102 -45.77627406041963 a84.0,84.0 0 0,0 1.042067025550327,1.0024676529507923 l -44.06587460425377 45.02442332070654" fill="#4dd2ff" stroke="none" /><path d="M 115.19652480421416 85.50635884689758 l 22.047212414544514 -21.0274644551641 a51.46693021400803,51.46693021400803 0 0,0 0.6059193803223096,0.6463525484207999 l -22.405899116837286 20.644842489865244" fill="#eaff1a" stroke="none" /><path d="M 115.4437574822437 85.77008943001954 l 20.37573699173521 -18.774246845250975 a48.70637115471427,48.70637115471427 0 0,0 0.5628052715812905,0.621463637767644 l -20.695885903932535 18.420730420213783" fill="#ffea16" stroke="none" /><path d="M 116.60985879189232 87.15038557335679 l 47.30652944174554 -36.59697958936243 a80.81008813642518,80.81008813642518 0 0,0 0.8416719308593389,1.107541601336126 l -47.92947731282899 35.77725321214526" fill="#48f7ff" stroke="none" /><path d="M 117.04232023915458 87.72973835380427 l 11.525743981102528 -8.29839436946347 a35.20232809890914,35.20232809890914 0 0,0 0.3498229346555004,0.49479973244873643 l -11.666879535561911 8.09876813668294" fill="#ff0400" stroke="none" /><line stroke="#e1ed5e" stroke-width="0.3" x1="172.23445277983987" x2="176.4835382374775" y1="55.19839476539836" y2="52.563006222186495" /><path d="M 173.08426987136738 54.67131705675599 a86.0,86.0 0 0,1 12.851231095245387,41.99856678651699" fill="none" id="id51" stroke="none" /><text fill="#e1ed5e" style="font-size:6.75px; font-family:Arial;" text-anchor="middle"><textPath startOffset="22.20632615414155" xlink:href="#id51">March</textPath></text><line stroke="#e1ed5e" stroke-width="0.3" x1="184.98032266829074" x2="189.97916517819016" y1="98.17113171792111" y2="98.06355123074" /><path d="M 185.9800911702706 98.14961562048488 a86.0,86.0 0 0,1 -9.607161424134198,41.387399972396054" fill="none" id="id52" stroke="none" /><text fill="#e1ed5e" style="font-size:6.75px; font-family:Arial;" text-anchor="middle"><textPath startOffset="21.466115282336823" xlink:href="#id52">April</textPath></text><line stroke="#e1ed5e" stroke-width="0.3" x1="174.80103733775053" x2="179.2010983576182" y1="140.37084112569926" y2="142.7455964860345" /><path d="M 175.68104954172406 140.8457921977663 a86.0,86.0 0 0,1 -30.038265399797805,32.042727171017184" fill="none" id="id53" stroke="none" /><text fill="#e1ed5e" style="font-size:6.75px; font-family:Arial;" text-anchor="middle"><textPath startOffset="22.206326154141568" xlink:href="#id53">May</textPath></text><line stroke="#e1ed5e" stroke-width="0.3" x1="143.8653032363475" x2="146.44561519142675" y1="172.8068346515853" y2="177.08958963109032" /><path d="M 144.38136562736335 173.6633856474863 a86.0,86.0 0 0,1 -40.68145358897372,12.25698825130547" fill="none" id="id54" stroke="none" /><text fill="#e1ed5e" style="font-size:6.75px; font-family:Arial;" text-anchor="middle"><textPath startOffset="21.466115282336833" xlink:href="#id54">June</textPath></text><line stroke="#e1ed5e" stroke-width="0.3" x1="102.19456741930631" x2="102.32365962044197" y1="184.97166512339345" y2="189.96999836594603" /><path d="M 102.22038585953345 185.97133177190398 a86.0,86.0 0 0,1 -42.740103519485714,-10.115201625700543" fill="none" id="id55" stroke="none" /><text fill="#e1ed5e" style="font-size:6.75px; font-family:Arial;" text-anchor="middle"><textPath startOffset="22.20632615414155" xlink:href="#id55">July</textPath></text><line stroke="#e1ed5e" stroke-width="0.3" x1="58.666819895761336" x2="56.23545636021788" y1="174.27360380694188" y2="178.64263932499728" /><path d="M 58.180547188652646 175.14741091055294 a86.0,86.0 0 0,1 -31.652253787137756,-30.449443065178592" fill="none" id="id56" stroke="none" /><text fill="#e1ed5e" style="font-size:6.75px; font-family:Arial;" text-anchor="middle"><textPath startOffset="22.20632615414155" xlink:href="#id56">August</textPath></text><line stroke="#e1ed5e" stroke-width="0.3" x1="26.63291911575756" x2="22.317208475507996" y1="142.92168965132927" y2="145.44649492493687" /><path d="M 25.769776987707644 143.4266507060508 a86.0,86.0 0 0,1 -11.730757126820373,-40.83630448921669" fill="none" id="id57" stroke="none" /><text fill="#e1ed5e" style="font-size:6.75px; font-family:Arial;" text-anchor="middle"><textPath startOffset="21.46611528233685" xlink:href="#id57">September</textPath></text><line stroke="#e1ed5e" stroke-width="0.3" x1="15.007084014347285" x2="10.007500721073583" y1="101.09737516637583" y2="101.16192664675087" /><path d="M 14.007167355692545 101.11028546245083 a86.0,86.0 0 0,1 10.666146001902534,-42.60595125391555" fill="none" id="id58" stroke="none" /><text fill="#e1ed5e" style="font-size:6.75px; font-family:Arial;" text-anchor="middle"><textPath startOffset="22.20632615414155" xlink:href="#id58">October</textPath></text><line stroke="#e1ed5e" stroke-width="0.3" x1="26.266209847984243" x2="21.928928074336255" y1="57.711370442889674" y2="55.22380399835377" /><path d="M 25.398753493254645 57.213857153982495 a86.0,86.0 0 0,1 29.58750427330803,-30.492523968695096" fill="none" id="id59" stroke="none" /><text fill="#e1ed5e" style="font-size:6.75px; font-family:Arial;" text-anchor="middle"><textPath startOffset="21.46611528233685" xlink:href="#id59">November</textPath></text><line stroke="#e1ed5e" stroke-width="0.3" x1="56.762969772571076" x2="54.21961505331055" y1="26.818313649435495" y2="22.513508569990535" /><path d="M 56.25429882871897 25.957352633546506 a86.0,86.0 0 0,1 42.265352541879196,-11.944610805530505" fill="none" id="id60" stroke="none" /><text fill="#e1ed5e" style="font-size:6.75px; font-family:Arial;" text-anchor="middle"><textPath startOffset="22.20632615414155" xlink:href="#id60">December</textPath></text></svg>