<?xml version="1.0" encoding="utf-8" ?>
<svg baseProfile="full" height="200mm" version="1.1" viewBox="0,0,200,200" width="200mm" xmlns="http://www.w3.org/2000/svg" xmlns:ev="http://www.w3.org/2001/xml-events" xmlns:xlink="http://www.w3.org/1999/xlink"><defs /><rect fill="#1a1a1a" height="200" width="200" x="0" y="0" /><text alignment-baseline="middle" fill="#e1ed5e" style="dominant-baseline: central; font-size:9.0px; font-family:Arial;" text-anchor="middle" x="100.0" y="100.0">2024</text><line stroke="#e1ed5e" stroke-width="0.3" x1="100.0" x2="100.0" y1="15.0" y2="10.0" /><path d="M 100.0 14.0 a86.0,86.0 0 0,1 42.35913384403234,11.155469271406648" fill="none" id="id37" stroke="none" /><text fill="#e1ed5e" style="font-size:6.75px; font-family:Arial;" text-anchor="middle"><textPath startOffset="22.145653131862478" xlink:href="#id37">January</textPath></text><path d="M 100.0 79.0 l 0.0 -46.334109797831644 a67.33410979783164,67.33410979783164 0 0,0 1.1558795325292504,0.009921835608680585 l -0.7953866076803957 46.3272823604174" fill="#37ff76" stroke="none" /><path d="M 100.36049292484886 79.00309439819443 l 0.4056620984480973 -23.62778351590751 a44.63126563713226,44.63126563713226 0 0,0 0.765929233894976,0.019727620127099096 l -0.8112046464138147 23.617338178430366" fill="#f7ff19" stroke="none" /><path d="M 100.72087961077811 79.0123766808444 l 0.8302011671821218 -24.17040115357735 a45.18465476087769,45.18465476087769 0 0,0 0.7749689838577584,0.03328050265315851 l -1.2449959116407163 24.15258808249836" fill="#f0ff19" stroke="none" /><path d="M 101.08105385017728 79.02784411241856 l 1.142506215820652 -22.164315363931458 a43.19374227130244,43.19374227130244 0 0,0 0.7401672432791898,0.044526623358271664 l -1.522817811232304 22.141436762748494" fill="#fff417" stroke="none" /><path d="M 101.44090949804482 79.04949213459386 l 1.558246955132121 -22.65656873942357 a43.71009116268369,43.71009116268369 0 0,0 0.7481315240509324,0.057910111475982476 l -1.9469474739582868 22.626480860952533" fill="#fffb17" stroke="none" /><path d="M 101.80034050326958 79.07731436759882 l 1.9799275706017376 -23.009759575697867 a44.094786184683514,44.094786184683514 0 0,0 0.7536018101965435,0.07136687494246054 l -2.374628944183294 22.972380945250222" fill="#feff18" stroke="none" /><path d="M 102.15924093988457 79.11130261209362 l 2.282210393424712 -22.07831530201168 a43.195956633019875,43.195956633019875 0 0,0 0.7369314503628549,0.08257470610506908 l -2.6608777453883636 22.035884835399642" fill="#fff417" stroke="none" /><path d="M 102.87502721639298 79.19773525538626 l 6.069171181782925 -43.91349931713881 a65.33091766600523,65.33091766600523 0 0,0 1.1096141980512209,0.16307507545005126 l -6.8221104854418275 43.80284316838988" fill="#34ff5d" stroke="none" /><path d="M 103.58742460773223 79.30868818359171 l 1.7828281898662937 -10.282879230993922 a31.43628677422138,31.43628677422138 0 0,0 0.5309218583307006,0.09675164852548462 l -1.959084781748048 10.250759408537071" fill="#ff4f07" stroke="none" /><path d="M 103.94208987418118 79.37332000966035 l 5.679732285290108 -29.718759343053815 a51.25663589566618,51.25663589566618 0 0,0 0.8628286156656239,0.17258988805784317 l -6.189057386486689 29.616880058333113" fill="#a5ff21" stroke="none" /><path d="M 104.64783097203109 79.52079915486377 l 6.719993959389028 -29.60953330716559 a51.362522646881196,51.362522646881196 0 0,0 0.8581646523617898,0.202524521296178 l -7.227290765490703 29.489812642223185" fill="#a3ff21" stroke="none" /><path d="M 104.9986988182912 79.60360301121754 l 4.934776961068636 -20.135573997927143 a41.73145831535962,41.73145831535962 0 0,0 0.6943214591129404,0.17649379978356455 l -5.27970371340697 20.04789496630831" fill="#ffe115" stroke="none" /><path d="M 105.3480935250658 79.69241777938227 l 7.749170608305261 -29.42486299691573 a51.428148275961235,51.428148275961235 0 0,0 0.8517936421841776,0.23216014493537704 l -8.25314565142413 29.28750235783621" fill="#a2ff22" stroke="none" /><path d="M 105.69591212413111 79.78721728523813 l 8.201056385169458 -29.102655928040264 a51.23610272337733,51.23610272337733 0 0,0 0.8445173315373653,0.245826687083062 l -8.699433729088428 28.957585546654688" fill="#a5ff21" stroke="none" /><path d="M 106.38641147887787 79.99465700312896 l 6.50168878037355 -20.366447501928683 a42.379058464900936,42.379058464900936 0 0,0 0.6911363773393115,0.22719025494420983 l -6.8503478953606045 20.25183632558245" fill="#ffea15" stroke="none" /><path d="M 106.72888874123014 80.10723608172694 l 9.05009379727848 -26.754994215371127 a49.24418370574871,49.24418370574871 0 0,0 0.7984457291505808,0.27774087166615025 l -9.50804529847408 26.595694911136388" fill="#bdff1f" stroke="none" /><path d="M 108.07796709384702 80.6158196554323 l 4.213328996091896 -10.110455782055743 a31.953239582434648,31.953239582434648 0 0,0 0.5045034990576754,0.2153425441152924 l -4.386267570320001 10.036638588281049" fill="#ff5708" stroke="none" /><path d="M 108.4095320186766 80.7573450057729 l 12.189988249544008 -27.89307868127619 a51.44042791821241,51.44042791821241 0 0,0 0.8061121609168899,0.3605637162453793 l -12.66701381331653 27.67971121412096" fill="#a2ff22" stroke="none" /><path d="M 108.73861861582097 80.90454125486305 l 9.74844470132525 -21.302110986556308 a44.42673913668651,44.42673913668651 0 0,0 0.6907538920959359,0.32330769970958534 l -10.11268730729269 21.131627055276187" fill="#faff18" stroke="none" /><path d="M 109.3889696526874 81.21577127319529 l 13.507753557977253 -27.02455560134112 a51.21234866131769,51.21234866131769 0 0,0 0.7829948127267692,0.39980273043721065 l -13.969675592417602 26.788694919231077" fill="#a5ff21" stroke="none" /><path d="M 109.71004243097381 81.37971332152246 l 11.182572566979772 -21.444057374645205 a45.18465476087769,45.18465476087769 0 0,0 0.6846791666540172,0.3645530915358341 l -11.549040549420349 21.2489338153868" fill="#f0ff19" stroke="none" /><path d="M 110.02825361518725 81.54914285379988 l 2.9092980896100147 -5.352780803809473 a27.092313001466657,27.092313001466657 0 0,0 0.40671472047649576,0.2255977994637689 l -3.0007569982426108 5.302050088912558" fill="#ff0d01" stroke="none" /><line stroke="#e1ed5e" stroke-width="0.3" x1="143.13028292997686" x2="145.6673583964461" y1="26.7553504044142" y2="22.446841604673864" /><path d="M 143.63769802327073 25.89364864446614 a86.0,86.0 0 0,1 29.32050498858742,28.57503671076993" fill="none" id="id38" stroke="none" /><text fill="#e1ed5e" style="font-size:6.75px; font-family:Arial;" text-anchor="middle"><textPath startOffset="20.669276256404974" xlink:href="#id38">February</textPath></text><path d="M 110.96478420261332 82.08984904055464 l 15.785257300517365 -25.784031492254165 a51.23227791677451,51.23227791677451 0 0,0 0.7461270643221096,0.465638471456079 l -16.225548493629187 25.509257223956542" fill="#a5ff21" stroke="none" /><path d="M 111.27062007382361 82.28071324371311 l 12.73585794459687 -20.022884058684 a44.73010669197366,44.73010669197366 0 0,0 0.6443571402380485,0.41766451340019173 l -13.077700717091925 19.801305703579914" fill="#f6ff19" stroke="none" /><path d="M 112.16784306229584 82.88440491214696 l 16.527056616559033 -23.247374871193863 a49.523394587754865,49.523394587754865 0 0,0 0.6886557928746421,0.49853368642086787 l -16.923693419807645 22.96024041339992" fill="#b9ff1f" stroke="none" /><path d="M 114.39649973595853 84.71141617570332 l 20.793702021835088 -22.082190963698633 a51.331521582837254,51.331521582837254 0 0,0 0.6363336862100525,0.6095932769389008 l -21.169708193910452 21.72198555645415" fill="#a4ff21" stroke="none" /><path d="M 114.91283532996326 85.21462403516908 l 21.573641600770173 -21.389252609596795 a51.379633623788564,51.379633623788564 0 0,0 0.6156092367514642,0.631669309120736 l -21.93763763867245 21.015760608408314" fill="#a3ff22" stroke="none" /><path d="M 115.41159269507618 85.73525988315684 l 17.93254686209062 -16.598097658171305 a45.435078940557325,45.435078940557325 0 0,0 0.5248883149242857,0.5769442050008374 l -18.214832877856786 16.287815877612797" fill="#edff1a" stroke="none" /><path d="M 115.6541949942343 86.00192230759917 l 18.046764756100035 -16.137528326778444 a45.20961665660138,45.20961665660138 0 0,0 0.5123518365211697,0.5829623388316904 l -18.321127656579797 15.825353710135456" fill="#efff19" stroke="none" /><path d="M 117.01052211995028 87.68569379921539 l 8.21737412851709 -5.94874516322376 a31.144594944353376,31.144594944353376 0 0,0 0.3097921736321686,0.4357614885504319 l -8.318281400679219 5.806806447963824" fill="#ff4b07" stroke="none" /><path d="M 117.21940702142032 87.97951657250589 l 20.025675666357166 -13.979476887466191 a45.422396687084806,45.422396687084806 0 0,0 0.44083574396540304,0.6431925249813484 l -20.262701147137893 13.633649627414794" fill="#edff1a" stroke="none" /><path d="M 117.42321728460499 88.27688183743584 l 25.306998048274217 -17.02767770231738 a51.50222874068962,51.50222874068962 0 0,0 0.48724924723284313,0.7377574626468514 l -25.595571734427786 16.59074036133147" fill="#a2ff22" stroke="none" /><line stroke="#e1ed5e" stroke-width="0.3" x1="172.87174338648825" x2="177.1583165268699" y1="56.24261187166439" y2="53.66864786411523" /><path d="M 173.72905801456457 55.72781907015455 a86.0,86.0 0 0,1 12.242430191666344,42.057860355516425" fill="none" id="id39" stroke="none" /><text fill="#e1ed5e" style="font-size:6.75px; font-family:Arial;" text-anchor="middle"><textPath startOffset="22.145653131862474" xlink:href="#id39">March</textPath></text><path d="M 118.18653347947321 89.5 l 22.72850336741995 -13.122307537457228 a47.24461507491445,47.24461507491445 0 0,0 0.3994793961768063,0.7058418156679789 l -22.950416128618134 12.73020895169013" fill="#d6ff1c" stroke="none" /><path d="M 118.36410011445183 89.81374322990088 l 37.26916476701954 -20.67257745045921 a63.61861214160411,63.61861214160411 0 0,0 0.5215352348188124,0.9595660903289056 l -37.6185453514537 20.029756526655703" fill="#32ff47" stroke="none" /><path d="M 119.0197475246899 91.09779779509293 l 29.36621013007437 -13.744869127750153 a53.42369079458201,53.42369079458201 0 0,0 0.38163731256988015,0.8339464025342825 l -29.597831907499305 13.238733743001186" fill="#8bff24" stroke="none" /><path d="M 119.16976305983485 91.42560881287824 l 4.799469622952352 -2.146741715557531 a26.257699939608315,26.257699939608315 0 0,0 0.18051058130688025,0.41304353573795316 l -4.835614086276203 2.0640361100437286" fill="#ff0000" stroke="none" /><path d="M 119.31412917781788 91.75594674310238 l 9.52496371401201 -4.0656406201588835 a31.356368446783428,31.356368446783428 0 0,0 0.20706275775050276,0.4968752400509914 l -9.593352316298997 3.9015328706666144" fill="#ff4e07" stroke="none" /><path d="M 120.65975698304385 96.23510406497455 l 26.208555103721025 -4.776071792803451 a47.640180599890726,47.640180599890726 0 0,0 0.13971091509272324,0.805815431523924 l -26.286680836305983 4.325463328358935" fill="#d1ff1d" stroke="none" /><path d="M 120.86939407059847 97.66154086499901 l 44.039604878377645 -4.9347295844475285 a65.3152158283726,65.3152158283726 0 0,0 0.11528946596673276,1.115321001055653 l -44.11782673682604 4.178004061108944" fill="#34ff5d" stroke="none" /><path d="M 120.93736805541906 98.37931529534042 l 32.25172353609026 -2.496487375848664 a53.3482011905789,53.3482011905789 0 0,0 0.06283919887733463,0.913668160368061 l -32.28982669613266 1.9424757913262687" fill="#8cff24" stroke="none" /><path d="M 120.98066250479742 99.09900007780936 l 22.219965434796386 -0.9542209223971119 a43.24044517297904,43.24044517297904 0 0,0 0.025481621114821086,0.7418695958706184 l -22.233071742908056 0.5726450619623735" fill="#fff517" stroke="none" /><line stroke="#e1ed5e" stroke-width="0.3" x1="184.99686870605535" x2="189.99668451229388" y1="99.2704041080226" y2="99.22748670261217" /><path d="M 185.99683186730306 99.26182062694052 a86.0,86.0 0 0,1 -10.086455211305974,41.156179273409016" fill="none" id="id40" stroke="none" /><text fill="#e1ed5e" style="font-size:6.75px; font-family:Arial;" text-anchor="middle"><textPath startOffset="21.40746469413373" xlink:href="#id40">April</textPath></text><path d="M 120.99922638620191 99.81974689727618 l 22.76944271151426 -0.19544828083475083 a43.7702815402755,43.7702815402755 0 0,0 0.0,0.7514027671171526 l -22.76944271151426 -0.19544828083474805" fill="#fffc17" stroke="none" /><path d="M 120.99303781780057 100.54070618675476 l 26.571781808684957 0.6843948427926319 a47.58059413913094,47.58059413913094 0 0,0 -0.028039273587989976,0.816332856983165 l -26.556117848100122 -1.1404339643399075" fill="#d1ff1c" stroke="none" /><path d="M 120.9064616781168 101.97986365728391 l 22.14518942313391 2.0971724626374133 a43.24426997958186,43.24426997958186 0 0,0 -0.07633150604857195,0.7384380786597164 l -22.105925524603673 -2.477015063580061" fill="#fff517" stroke="none" /><path d="M 120.82617615685814 102.69636545807757 l 21.43407794270379 2.775070514873039 a42.61297558450522,42.61297558450522 0 0,0 -0.10015161957115615,0.7246472287433872 l -21.383281806577422 -3.142606051816511" fill="#ffed16" stroke="none" /><path d="M 120.77682067341334 103.0534771498775 l 23.924045246897343 3.5160107815492254 a45.18103125988554,45.18103125988554 0 0,0 -0.11936077133108289,0.766381775585514 l -23.860162983427994 -3.92618073906619" fill="#f0ff19" stroke="none" /><path d="M 120.65975698304385 103.76489593502545 l 19.866392529070225 3.620318503150987 a41.19356972363615,41.19356972363615 0 0,0 -0.13274864749199272,0.6945970179171845 l -19.801317589296072 -3.960818086101486" fill="#ffda14" stroke="none" /><path d="M 120.51834098615036 104.47187691870673 l 21.684506724960027 4.7260373137547225 a43.19354096569177,43.19354096569177 0 0,0 -0.16411311523458516,0.7231126666255134 l -21.60018274816778 -5.097584314319253" fill="#fff417" stroke="none" /><path d="M 120.43855184770803 104.8234425847677 l 19.62292198793169 4.630956158705458 a41.16196474276019,41.16196474276019 0 0,0 -0.16820047657263207,0.686315342969726 l -19.54053398484276 -4.967127326283284" fill="#ffd914" stroke="none" /><path d="M 120.35273937422433 105.17358676015961 l 23.178972204054112 5.89200409360483 a44.91611307623731,44.91611307623731 0 0,0 -0.19637007913156146,0.7456491755319994 l -23.07441264411782 -6.289033773509633" fill="#f3ff19" stroke="none" /><path d="M 120.26092885502905 105.52220625578681 l 23.405170817030854 6.379183384353342 a45.25893653121675,45.25893653121675 0 0,0 -0.21073747910110782,0.7478329689956605 l -23.292214845855163 -6.780024277252012" fill="#efff19" stroke="none" /><path d="M 120.16314734710363 105.8691983318838 l 21.316083762574188 6.204801319351915 a43.200787967676064,43.200787967676064 0 0,0 -0.21337831936906085,0.7102670276423275 l -21.2064291232015 -6.569805950584966" fill="#fff417" stroke="none" /><path d="M 120.05942366710727 106.21446072829308 l 29.766762550595192 9.221819128454305 a52.162511143703455,52.162511143703455 0 0,0 -0.2723262730958114,0.853058171769812 l -29.604071561722126 -9.7314463339155" fill="#9aff23" stroke="none" /><path d="M 119.94978838288452 106.5578916946017 l 19.125742541361408 6.287011458862862 a41.13257412360164,41.13257412360164 0 0,0 -0.22625771235863298,0.668890723227497 l -19.01499940743041 -6.61440385656452" fill="#ffd914" stroke="none" /><path d="M 119.83427380445688 106.89939002012753 l 19.56238650166091 6.804813502630406 a41.71213297673482,41.71213297673482 0 0,0 -0.24105606500766505,0.6742767162091472 l -19.4426902666093 -7.139625175220474" fill="#ffe115" stroke="none" /><path d="M 119.58574465831526 107.57618678355244 l 25.86030237532652 10.00332050134425 a48.727633508756796,48.727633508756796 0 0,0 -0.30847219830567635,0.7775514486845071 l -25.68477150205472 -10.445772967242322" fill="#c3ff1e" stroke="none" /><path d="M 119.31412917781788 108.2440532568976 l 22.78948379966835 9.72747548760558 a45.778707617979464,45.778707617979464 0 0,0 -0.3147092526232408,0.7201163582314337 l -22.619140665028144 -10.117253915612856" fill="#e8ff1a" stroke="none" /><path d="M 119.16976305983485 108.57439118712176 l 11.06222803553521 4.94799389443479 a33.11839645702125,33.11839645702125 0 0,0 -0.23658447464964083,0.516979773809218 l -10.975659096030512 -5.137162650458697" fill="#ff6809" stroke="none" /><line stroke="#e1ed5e" stroke-width="0.3" x1="174.33088141563837" x2="178.70328620479359" y1="141.23008692659167" y2="143.65538615756765" /><path d="M 175.20536237346943 141.71514677278685 a86.0,86.0 0 0,1 -30.301960400862466,31.631185727798858" fill="none" id="id41" stroke="none" /><text fill="#e1ed5e" style="font-size:6.75px; font-family:Arial;" text-anchor="middle"><textPath startOffset="22.145653131862474" xlink:href="#id41">May</textPath></text><path d="M 118.36410011445183 110.18625677009912 l 34.63440516988959 19.211120716038124 a60.60567106663216,60.60567106663216 0 0,0 -0.5124545272344327,0.9054580471788248 l -34.29951727763378 -19.802835533316074" fill="#3bff2e" stroke="none" /><path d="M 117.21940702142032 112.02048342749411 l 21.769421443965122 15.19674686635832 a47.54898915825497,47.54898915825497 0 0,0 -0.4729650435867647,0.6652845648399144 l -21.505341301848397 -15.568208657907737" fill="#d2ff1c" stroke="none" /><path d="M 116.79662413953412 112.60449989151573 l 31.538411506584445 23.667011960913495 a60.4309377965663,60.4309377965663 0 0,0 -0.6297710115906459,0.8243904700932221 l -31.127488517639495 -24.204923344247597" fill="#3dff2e" stroke="none" /><path d="M 116.1254893667686 113.45245675266167 l 21.830832468581907 18.212056885753345 a49.42998878440169,49.42998878440169 0 0,0 -0.5491564337706318,0.6469048981475924 l -21.51498147130416 -18.584128566350493" fill="#bbff1f" stroke="none" /><path d="M 115.41159269507618 114.26474011684316 l 18.67920077442602 17.289189372533276 a46.45247749690853,46.45247749690853 0 0,0 -0.5466885153266001,0.5805642583714148 l -18.37965642536316 -17.607295090849185" fill="#e0ff1b" stroke="none" /><path d="M 114.91283532996324 114.78537596483092 l 14.651515119999843 14.526289247514702 a41.6320133436862,41.6320133436862 0 0,0 -0.5075300855828945,0.503192247669269 l -14.399993114286984 -14.775661505412632" fill="#ffe015" stroke="none" /><path d="M 113.86319453409587 115.77377054828091 l 16.283030894407528 18.527100123081734 a45.66557386478014,45.66557386478014 0 0,0 -0.5932621723198602,0.5124457345524419 l -15.96258924232481 -18.803889990098895" fill="#eaff1a" stroke="none" /><path d="M 113.59037401385872 116.0094264158162 l 18.248430771165822 21.49660556340684 a49.1976821096828,49.1976821096828 0 0,0 -0.648532433700208,0.5410288220480095 l -17.87672400330372 -21.806696569366718" fill="#bdff1f" stroke="none" /><path d="M 113.31354834802062 116.24036423190432 l 37.186786722436956 45.36183331443026 a79.65622753285595,79.65622753285595 0 0,0 -1.064924976964573,0.8578281793588683 l -36.40261097511713 -45.99350978758253" fill="#47feff" stroke="none" /><path d="M 113.03279911837588 116.46651593811092 l 37.70028143248894 47.633074018922535 a81.74718891093664,81.74718891093664 0 0,0 -1.107830334194177,0.8614555685212685 l -36.87704115365953 -48.2732306390646" fill="#4ae8ff" stroke="none" /><path d="M 112.7482090630111 116.68781488649013 l 26.947469558783197 35.27510267784115 a65.39030282115434,65.39030282115434 0 0,0 -0.8978618272714161,0.6737722539020004 l -26.337954742601013 -35.73249395900716" fill="#34ff5e" stroke="none" /><path d="M 112.45986205192187 116.90419585922612 l 25.719733268269895 34.89375779620504 a64.3483449803008,64.3483449803008 0 0,0 -0.8948066040597521,0.6477709758216532 l -25.116945653836176 -35.330129543399764" fill="#33ff51" stroke="none" /><path d="M 112.16784306229584 117.11559508785304 l 36.50352918688752 51.346785263559106 a84.0,84.0 0 0,0 -1.1824196353049663,0.8254207367795119 l -35.616714460408794 -51.96585081614374" fill="#4dd2ff" stroke="none" /><path d="M 111.8722381534696 117.32195027204791 l 28.03215709789738 40.89975495699669 a70.5841888821787,70.5841888821787 0 0,0 -1.0053329950629466,0.6764329056643898 l -27.32592781473743 -41.3749375367182" fill="#3bff9c" stroke="none" /><path d="M 111.5731344415666 117.5232005979908 l 29.70370166692252 44.975190208012364 a74.89877203577487,74.89877203577487 0 0,0 -1.0789502222442287,0.6993624985519455 l -28.927265812421282 -45.4784665482682" fill="#41ffce" stroke="none" /><path d="M 111.27062007382361 117.71928675628689 l 30.00636888374435 47.174995810644134 a76.90941247519628,76.90941247519628 0 0,0 -1.120078912791563,0.6990120822601461 l -29.192125842163072 -47.68314368974583" fill="#44ffe4" stroke="none" /><path d="M 110.96478420261333 117.91015095944535 l 21.318889658141426 34.822804079816535 a61.830414401978544,61.830414401978544 0 0,0 -0.9099883685776611,0.5464218692413917 l -20.717968533006328 -35.183639949593854" fill="#2fff30" stroke="none" /><line stroke="#e1ed5e" stroke-width="0.3" x1="143.1302829299769" x2="145.66735839644613" y1="173.24464959558577" y2="177.55315839532614" /><path d="M 143.63769802327073 174.10635135553383 a86.0,86.0 0 0,1 -40.68552437913181,11.842963189579606" fill="none" id="id42" stroke="none" /><text fill="#e1ed5e" style="font-size:6.75px; font-family:Arial;" text-anchor="middle"><textPath startOffset="21.407464694133747" xlink:href="#id42">June</textPath></text><path d="M 109.71004243097381 118.62028667847754 l 14.443175010992961 27.696692487587892 a52.23639030282115,52.23639030282115 0 0,0 -0.7986515696276416,0.4077971820696044 l -13.965596219651738 -27.940547621330335" fill="#99ff23" stroke="none" /><path d="M 109.3889696526874 118.78422872680471 l 10.458109219825433 20.92322404928396 a44.39130934920772,44.39130934920772 0 0,0 -0.6845557406941807,0.3348505162991456 l -10.097393229869184 -21.099668315680326" fill="#faff18" stroke="none" /><path d="M 108.73861861582097 119.09545874513695 l 18.643961223255676 40.74041997210623 a65.80378454548068,65.80378454548068 0 0,0 -1.031197311204463,0.46124144100148184 l -17.941850509195586 -41.054465164017564" fill="#35ff63" stroke="none" /><path d="M 108.07796709384702 119.3841803445677 l 8.94640334186986 21.468111196707056 a44.257642423719545,44.257642423719545 0 0,0 -0.7037924878871346,0.28622627785229027 l -8.576556392792284 -21.61852473113864" fill="#fcff18" stroke="none" /><path d="M 107.407793817531 119.65005319985036 l 12.241936897144871 32.4731920492739 a55.704080752307824,55.704080752307824 0 0,0 -0.8976602487483574,0.3296332772304233 l -11.682687496742387 -32.67855617551304" fill="#71ff27" stroke="none" /><path d="M 106.72888874123015 119.89276391827305 l 7.750551801385477 22.913129217993397 a45.18847956748051,45.18847956748051 0 0,0 -0.7369536558158107,0.2422513044262208 l -7.3560754079219315 -23.042801443821634" fill="#f0ff19" stroke="none" /><line stroke="#e1ed5e" stroke-width="0.3" x1="101.45913802915013" x2="101.54496967792366" y1="184.9874750549273" y2="189.98673829345242" /><path d="M 101.47630435890484 185.9873277026323 a86.0,86.0 0 0,1 -42.54439059252881,-10.42667462771756" fill="none" id="id43" stroke="none" /><text fill="#e1ed5e" style="font-size:6.75px; font-family:Arial;" text-anchor="middle"><textPath startOffset="22.145653131862474" xlink:href="#id43">July</textPath></text><line stroke="#e1ed5e" stroke-width="0.3" x1="58.13341422392154" x2="55.67067388415222" y1="173.97424548756322" y2="178.32567169271397" /><path d="M 57.64086615596768 174.84453072859336 a86.0,86.0 0 0,1 -31.369924170532247,-30.572349798747897" fill="none" id="id44" stroke="none" /><text fill="#e1ed5e" style="font-size:6.75px; font-family:Arial;" text-anchor="middle"><textPath startOffset="22.145653131862474" xlink:href="#id44">August</textPath></text><line stroke="#e1ed5e" stroke-width="0.3" x1="26.387840678322732" x2="22.057713659400548" y1="142.50000000000003" y2="145.00000000000006" /><path d="M 25.521815274538298 143.00000000000003 a86.0,86.0 0 0,1 -11.493303480769221,-40.785679425670985" fill="none" id="id45" stroke="none" /><text fill="#e1ed5e" style="font-size:6.75px; font-family:Arial;" text-anchor="middle"><textPath startOffset="21.40746469413373" xlink:href="#id45">September</textPath></text><line stroke="#e1ed5e" stroke-width="0.3" x1="15.003131293944662" x2="10.003315487706104" y1="100.72959589197737" y2="100.7725132973878" /><path d="M 14.003168132696942 100.73817937305945 a86.0,86.0 0 0,1 10.791469493833604,-42.45332614584628" fill="none" id="id46" stroke="none" /><text fill="#e1ed5e" style="font-size:6.75px; font-family:Arial;" text-anchor="middle"><textPath startOffset="22.145653131862435" xlink:href="#id46">October</textPath></text><line stroke="#e1ed5e" stroke-width="0.3" x1="26.387840678322718" x2="22.05771365940052" y1="57.49999999999999" y2="54.99999999999999" /><path d="M 25.521815274538284 56.99999999999999 a86.0,86.0 0 0,1 29.574782752854787,-30.34633250058573" fill="none" id="id47" stroke="none" /><text fill="#e1ed5e" style="font-size:6.75px; font-family:Arial;" text-anchor="middle"><textPath startOffset="21.40746469413373" xlink:href="#id47">November</textPath></text><line stroke="#e1ed5e" stroke-width="0.3" x1="56.869717070023135" x2="54.33264160355391" y1="26.7553504044142" y2="22.446841604673864" /><path d="M 56.362301976729285 25.89364864446614 a86.0,86.0 0 0,1 42.16139366436587,-11.88097634709845" fill="none" id="id48" stroke="none" /><text fill="#e1ed5e" style="font-size:6.75px; font-family:Arial;" text-anchor="middle"><textPath startOffset="22.145653131862474" xlink:href="#id48">December</textPath></text></svg>