<?xml version="1.0" encoding="utf-8" ?>
<svg baseProfile="full" height="200mm" version="1.1" viewBox="0,0,200,200" width="200mm" xmlns="http://www.w3.org/2000/svg" xmlns:ev="http://www.w3.org/2001/xml-events" xmlns:xlink="http://www.w3.org/1999/xlink"><defs /><rect fill="#1a1a1a" height="200" width="200" x="0" y="0" /><text alignment-baseline="middle" fill="#e1ed5e" style="dominant-baseline: central; font-size:9.0px; font-family:Arial;" text-anchor="middle" x="100.0" y="100.0">2024</text><line stroke="#e1ed5e" stroke-width="0.3" x1="100.0" x2="100.0" y1="15.0" y2="10.0" /><path d="M 100.0 14.0 a86.0,86.0 0 0,1 42.35913384403234,11.155469271406648" fill="none" id="id37" stroke="none" /><text fill="#e1ed5e" style="font-size:6.75px; font-family:Arial;" text-anchor="middle"><textPath startOffset="22.145653131862478" xlink:href="#id37">January</textPath></text><path d="M 100.0 79.0 l 0.0 -63.0 a84.0,84.0 0 0,0 1.441971699395419,0.012377592777739643 l -1.0814787745465644 62.990716805416696" fill="#4dd2ff" stroke="none" /><path d="M 100.36049292484886 79.00309439819443 l 0.5515744731848963 -32.12644783717922 a53.13118244065205,53.13118244065205 0 0,0 0.91179860758521,0.02348469775906918 l -1.1029863948408476 32.1122454220701" fill="#a3ff22" stroke="none" /><path d="M 100.72087961077811 79.0123766808444 l 1.1288157636066494 -32.86423931137303 a53.88361979076153,53.88361979076153 0 0,0 0.924166274962441,0.03968767628962603 l -1.6928077991699266 32.84001906665757" fill="#99ff23" stroke="none" /><path d="M 101.08105385017728 79.02784411241856 l 1.553453641620833 -30.13658563896762 a51.17659709429634,51.17659709429634 0 0,0 0.8769613096678073,0.05275581470257825 l -2.0705593034211027 30.10547784644035" fill="#bbff1f" stroke="none" /><path d="M 101.44090949804482 79.04949213459386 l 2.118731936399861 -30.80589735751183 a51.87867123144834,51.87867123144834 0 0,0 0.8879429976402214,0.0687324037613506 l -2.6472439288153162 30.764987186755427" fill="#b2ff20" stroke="none" /><path d="M 101.80034050326958 79.07731436759882 l 2.692086618091169 -31.286127209393484 a52.401736992110116,52.401736992110116 0 0,0 0.8955717278977162,0.08481157375432849 l -3.2287579093738983 31.235303880133973" fill="#acff21" stroke="none" /><path d="M 102.15924093988457 79.11130261209362 l 3.1030973814562306 -30.01965226257199 a51.17960793854924,51.17960793854924 0 0,0 0.8731340997394788,0.09783649705925981 l -3.6179673827965058 29.96196000500576" fill="#bbff1f" stroke="none" /><path d="M 102.87502721639298 79.19773525538626 l 8.252187991107535 -59.70872148080451 a81.27628080358696,81.27628080358696 0 0,0 1.3804385177247505,0.2028769240944131 l -9.275951614439967 59.55826348341122" fill="#49eeff" stroke="none" /><path d="M 103.58742460773223 79.30868818359171 l 2.4240926706405133 -13.981522346695304 a35.19010896388725,35.19010896388725 0 0,0 0.5943194939068822,0.10830480961382097 l -2.663746898098449 13.937849363150118" fill="#ff5f08" stroke="none" /><path d="M 103.94208987418118 79.37332000966035 l 7.722672034372878 -40.40828337442257 a62.13962844530952,62.13962844530952 0 0,0 1.0460274782484493,0.20923479135779027 l -8.415195998152285 40.26975918640192" fill="#38ff2e" stroke="none" /><path d="M 104.64783097203109 79.52079915486377 l 9.13710485188433 -40.25976988639004 a62.2836015432206,62.2836015432206 0 0,0 1.04063395860919,0.24558678073240203 l -9.826870964233404 40.09698696201141" fill="#36ff2e" stroke="none" /><path d="M 104.9986988182912 79.60360301121754 l 6.709764143604484 -27.378127418534653 a49.188345034931004,49.188345034931004 0 0,0 0.8183879709622783,0.20803102193734568 l -7.1787574077921565 27.25891116476204" fill="#d5ff1c" stroke="none" /><path d="M 105.3480935250658 79.69241777938227 l 10.536465477665834 -40.00867561488025 a62.372832018351815,62.372832018351815 0 0,0 1.0330681453504222,0.281567316865247 l -11.221715023950948 39.82190780387086" fill="#35ff2f" stroke="none" /><path d="M 105.69591212413111 79.78721728523813 l 11.150889798466679 -39.570574064473334 a62.11170970769177,62.11170970769177 0 0,0 1.0237784013894193,0.2980069719381705 l -11.828528212237702 39.37332339823265" fill="#38ff2e" stroke="none" /><path d="M 106.38641147887787 79.99465700312896 l 8.840277604355796 -27.692043684878403 a50.06888012234542,50.06888012234542 0 0,0 0.8165453806354395,0.268414685266966 l -9.314345722638977 27.536208078209416" fill="#caff1d" stroke="none" /><path d="M 106.72888874123014 80.10723608172694 l 12.305317005469403 -36.37848321512939 a59.403318445657085,59.403318445657085 0 0,0 0.9631660501008539,0.3350391498728947 l -12.927988827615275 36.16188563268791" fill="#57ff2a" stroke="none" /><path d="M 108.07796709384702 80.6158196554323 l 5.728818961062926 -13.74708000323598 a35.89300424038094,35.89300424038094 0 0,0 0.5667076787080639,0.24189380951888084 l -5.963961714941419 13.646711544057698" fill="#ff6a09" stroke="none" /><path d="M 108.4095320186766 80.7573450057729 l 16.57459834821758 -37.925924650064964 a62.38952851829968,62.38952851829968 0 0,0 0.9776932208347032,0.4373097419236425 l -17.223204971907915 37.63581115723147" fill="#35ff2f" stroke="none" /><path d="M 108.73861861582097 80.90454125486305 l 13.254857358071698 -28.964255448279967 a52.853089916930244,52.853089916930244 0 0,0 0.8217681126019944,0.38462897020222453 l -13.750114184545197 28.73245024650721" fill="#a6ff21" stroke="none" /><path d="M 109.3889696526874 81.21577127319529 l 18.366349928069443 -36.74500298620536 a62.07941156025165,62.07941156025165 0 0,0 0.9491432925731509,0.4846393281015623 l -18.994420442356173 36.42430570643096" fill="#39ff2e" stroke="none" /><path d="M 109.71004243097381 81.37971332152246 l 15.204825878681174 -29.157258453811302 a53.88361979076153,53.88361979076153 0 0,0 0.8164938315869049,0.43473697612206796 l -15.703108526054638 28.89195100996666" fill="#99ff23" stroke="none" /><path d="M 110.02825361518725 81.54914285379988 l 3.955741902567173 -7.2781195562276295 a29.283653679051824,29.283653679051824 0 0,0 0.43961152449262303,0.24384510211053426 l -4.080097615215896 7.209141538683949" fill="#ff0000" stroke="none" /><line stroke="#e1ed5e" stroke-width="0.3" x1="143.13028292997686" x2="145.6673583964461" y1="26.7553504044142" y2="22.446841604673864" /><path d="M 143.63769802327073 25.89364864446614 a86.0,86.0 0 0,1 29.32050498858742,28.57503671076993" fill="none" id="id38" stroke="none" /><text fill="#e1ed5e" style="font-size:6.75px; font-family:Arial;" text-anchor="middle"><textPath startOffset="20.669276256404974" xlink:href="#id38">February</textPath></text><path d="M 110.96478420261332 82.08984904055464 l 21.463047726000198 -35.058275449764466 a62.106509158527686,62.106509158527686 0 0,0 0.9044951588727624,0.5644718753093168 l -22.061707013662673 34.684667777613605" fill="#38ff2e" stroke="none" /><path d="M 111.27062007382361 82.28071324371311 l 17.31681161050712 -27.224904097674607 a53.26557557957666,53.26557557957666 0 0,0 0.7673143770915345,0.49736390880143005 l -17.781611619855664 26.923626347169282" fill="#a1ff22" stroke="none" /><line stroke="#e1ed5e" stroke-width="0.3" x1="172.87174338648825" x2="177.1583165268699" y1="56.24261187166439" y2="53.66864786411523" /><path d="M 173.72905801456457 55.72781907015455 a86.0,86.0 0 0,1 12.242430191666344,42.057860355516425" fill="none" id="id39" stroke="none" /><text fill="#e1ed5e" style="font-size:6.75px; font-family:Arial;" text-anchor="middle"><textPath startOffset="22.145653131862474" xlink:href="#id39">March</textPath></text><line stroke="#e1ed5e" stroke-width="0.3" x1="184.99686870605535" x2="189.99668451229388" y1="99.2704041080226" y2="99.22748670261217" /><path d="M 185.99683186730306 99.26182062694052 a86.0,86.0 0 0,1 -10.086455211305974,41.156179273409016" fill="none" id="id40" stroke="none" /><text fill="#e1ed5e" style="font-size:6.75px; font-family:Arial;" text-anchor="middle"><textPath startOffset="21.40746469413373" xlink:href="#id40">April</textPath></text><line stroke="#e1ed5e" stroke-width="0.3" x1="174.33088141563837" x2="178.70328620479359" y1="141.23008692659167" y2="143.65538615756765" /><path d="M 175.20536237346943 141.71514677278685 a86.0,86.0 0 0,1 -30.301960400862466,31.631185727798858" fill="none" id="id41" stroke="none" /><text fill="#e1ed5e" style="font-size:6.75px; font-family:Arial;" text-anchor="middle"><textPath startOffset="22.145653131862474" xlink:href="#id41">May</textPath></text><line stroke="#e1ed5e" stroke-width="0.3" x1="143.1302829299769" x2="145.66735839644613" y1="173.24464959558577" y2="177.55315839532614" /><path d="M 143.63769802327073 174.10635135553383 a86.0,86.0 0 0,1 -40.68552437913181,11.842963189579606" fill="none" id="id42" stroke="none" /><text fill="#e1ed5e" style="font-size:6.75px; font-family:Arial;" text-anchor="middle"><textPath startOffset="21.407464694133747" xlink:href="#id42">June</textPath></text><line stroke="#e1ed5e" stroke-width="0.3" x1="101.45913802915013" x2="101.54496967792366" y1="184.9874750549273" y2="189.98673829345242" /><path d="M 101.47630435890484 185.9873277026323 a86.0,86.0 0 0,1 -42.54439059252881,-10.42667462771756" fill="none" id="id43" stroke="none" /><text fill="#e1ed5e" style="font-size:6.75px; font-family:Arial;" text-anchor="middle"><textPath startOffset="22.145653131862474" xlink:href="#id43">July</textPath></text><line stroke="#e1ed5e" stroke-width="0.3" x1="58.13341422392154" x2="55.67067388415222" y1="173.97424548756322" y2="178.32567169271397" /><path d="M 57.64086615596768 174.84453072859336 a86.0,86.0 0 0,1 -31.369924170532247,-30.572349798747897" fill="none" id="id44" stroke="none" /><text fill="#e1ed5e" style="font-size:6.75px; font-family:Arial;" text-anchor="middle"><textPath startOffset="22.145653131862474" xlink:href="#id44">August</textPath></text><line stroke="#e1ed5e" stroke-width="0.3" x1="26.387840678322732" x2="22.057713659400548" y1="142.50000000000003" y2="145.00000000000006" /><path d="M 25.521815274538298 143.00000000000003 a86.0,86.0 0 0,1 -11.493303480769221,-40.785679425670985" fill="none" id="id45" stroke="none" /><text fill="#e1ed5e" style="font-size:6.75px; font-family:Arial;" text-anchor="middle"><textPath startOffset="21.40746469413373" xlink:href="#id45">September</textPath></text><line stroke="#e1ed5e" stroke-width="0.3" x1="15.003131293944662" x2="10.003315487706104" y1="100.72959589197737" y2="100.7725132973878" /><path d="M 14.003168132696942 100.73817937305945 a86.0,86.0 0 0,1 10.791469493833604,-42.45332614584628" fill="none" id="id46" stroke="none" /><text fill="#e1ed5e" style="font-size:6.75px; font-family:Arial;" text-anchor="middle"><textPath startOffset="22.145653131862435" xlink:href="#id46">October</textPath></text><line stroke="#e1ed5e" stroke-width="0.3" x1="26.387840678322718" x2="22.05771365940052" y1="57.49999999999999" y2="54.99999999999999" /><path d="M 25.521815274538284 56.99999999999999 a86.0,86.0 0 0,1 29.574782752854787,-30.34633250058573" fill="none" id="id47" stroke="none" /><text fill="#e1ed5e" style="font-size:6.75px; font-family:Arial;" text-anchor="middle"><textPath startOffset="21.40746469413373" xlink:href="#id47">November</textPath></text><line stroke="#e1ed5e" stroke-width="0.3" x1="56.869717070023135" x2="54.33264160355391" y1="26.7553504044142" y2="22.446841604673864" /><path d="M 56.362301976729285 25.89364864446614 a86.0,86.0 0 0,1 42.16139366436587,-11.88097634709845" fill="none" id="id48" stroke="none" /><text fill="#e1ed5e" style="font-size:6.75px; font-family:Arial;" text-anchor="middle"><textPath startOffset="22.145653131862474" xlink:href="#id48">December</textPath></text></svg>