<?xml version="1.0" encoding="utf-8" ?>
<svg baseProfile="full" height="200mm" version="1.1" viewBox="0,0,200,200" width="200mm" xmlns="http://www.w3.org/2000/svg" xmlns:ev="http://www.w3.org/2001/xml-events" xmlns:xlink="http://www.w3.org/1999/xlink"><defs /><rect fill="#1a1a1a" height="200" width="200" x="0" y="0" /><text alignment-baseline="middle" fill="#e1ed5e" style="dominant-baseline: central; font-size:9.0px; font-family:Arial;" text-anchor="middle" x="100.0" y="100.0">2026</text><line stroke="#e1ed5e" stroke-width="0.3" x1="100.0" x2="100.0" y1="15.0" y2="10.0" /><path d="M 100.0 14.0 a86.0,86.0 0 0,1 42.46469731375804,11.215312516191453" fill="none" id="id61" stroke="none" /><text fill="#e1ed5e" style="font-size:6.75px; font-family:Arial;" text-anchor="middle"><textPath startOffset="22.20632615414155" xlink:href="#id61">January</textPath></text><path d="M 100.0 79.0 l 0.0 -60.52563223765145 a81.52563223765145,81.52563223765145 0 0,0 1.4033297435362921,0.012078902149628645 l -1.0418492642637638 60.516664712110384" fill="#49efff" stroke="none" /><path d="M 100.72285384407766 79.0124445844662 l 1.4099602392251336 -40.93720867209994 a61.961482416280425,61.961482416280425 0 0,0 1.065617019685091,0.04588771045258526 l -2.114418091299556 40.906873235123165" fill="#59ff2a" stroke="none" /><path d="M 101.08401301168833 79.027996857942 l 1.8086107717721571 -34.990530906349626 a56.03724198666297,56.03724198666297 0 0,0 0.9628744565307782,0.05808321671401936 l -2.410647277142547 34.954214420255305" fill="#a9ff21" stroke="none" /><path d="M 101.44485096284872 79.0497635885617 l 2.9125990050400468 -42.23247884819938 a63.33279464703185,63.33279464703185 0 0,0 1.0869409774233563,0.0843675392915492 l -3.639130171825744 42.17608604671936" fill="#47ff2c" stroke="none" /><path d="M 101.80526077348638 79.07773832637324 l 2.602508000304882 -30.162043173923095 a51.274112642937226,51.274112642937226 0 0,0 0.8786792748065494,0.08344118476379982 l -3.121312402201676 30.112776444644116" fill="#f0ff19" stroke="none" /><path d="M 102.16513564639614 79.11191278185805 l 3.4736977157227344 -33.512404165647176 a54.69195465956084,54.69195465956084 0 0,0 0.9355795792309849,0.10512326679344305 l -4.050043998463445 33.44764494538313" fill="#bdff1f" stroke="none" /><path d="M 102.52436894288641 79.15227682838746 l 2.466797164136395 -20.372261567927467 a41.521065509399016,41.521065509399016 0 0,0 0.7087947829419244,0.0920219053723409 l -2.817106675586165 20.32678133939099" fill="#ff700a" stroke="none" /><path d="M 103.2404852339499 79.25152402106235 l 9.361086335874539 -59.93802191775608 a81.66462238241581,81.66462238241581 0 0,0 1.38701836645263,0.22886991489664488 l -10.391433908466045 59.768005739919815" fill="#49edff" stroke="none" /><path d="M 103.95276090670814 79.375362276772 l 8.632862549237903 -45.0443795601932 a66.86417388067494,66.86417388067494 0 0,0 1.128519486978194,0.2263703925276974 l -9.406948445683222 44.889105211588294" fill="#32ff48" stroke="none" /><path d="M 104.307194497241 79.44645832069477 l 7.644821014559327 -36.48039285298652 a58.272809808932806,58.272809808932806 0 0,0 0.9799746080020136,0.21418449263219835 l -8.271638346714868 36.34339486225845" fill="#8aff24" stroke="none" /><path d="M 105.01212808612495 79.60689891045804 l 6.2786011540401585 -25.546064632647486 a47.30631579425209,47.30631579425209 0 0,0 0.7890943777040818,0.20115772679600363 l -6.717404420429266 25.434203909682616" fill="#ffd013" stroke="none" /><path d="M 105.36241919743992 79.69619591428918 l 8.052866833853232 -30.490684242092232 a52.536177475952044,52.536177475952044 0 0,0 0.8723559989515342,0.23844784795222607 l -8.576520722028476 30.347549853313712" fill="#ddff1b" stroke="none" /><path d="M 105.71112130821622 79.79150937346287 l 9.883403562414836 -34.9718833606296 a57.34163303660191,57.34163303660191 0 0,0 0.9475289331149699,0.276609678530393 l -10.483922713253234 34.7965753531805" fill="#97ff23" stroke="none" /><path d="M 106.0581310904928 79.89281104454417 l 10.332118112844134 -34.29272957316372 a56.81541520457217,56.81541520457217 0 0,0 0.9339767801967701,0.2901911319731429 l -10.920880265751622 34.10979830630806" fill="#9eff22" stroke="none" /><path d="M 106.40334571778207 80.00007090966166 l 8.734419473129888 -27.280702590016464 a49.64483927931036,49.64483927931036 0 0,0 0.8116155291238862,0.2675768794178059 l -9.202717824496192 27.126311986339424" fill="#fff517" stroke="none" /><path d="M 106.74666289553966 80.11325718540242 l 16.198312241877364 -47.746815658705884 a71.41967597111068,71.41967597111068 0 0,0 1.1608009844242795,0.40498067054082165 l -17.017795230364918 47.460914134992855" fill="#39ff8b" stroke="none" /><path d="M 107.4271985657038 80.35727306442388 l 21.8508101559632 -57.78888142248375 a82.78197731162246,82.78197731162246 0 0,0 1.3285199994586845,0.5154451199934216 l -22.84231332042155 57.40419359859978" fill="#4be0ff" stroke="none" /><path d="M 107.76421540070413 80.48803036053334 l 14.954773606260712 -37.58230207575041 a61.44842003005143,61.44842003005143 0 0,0 0.979417970112678,0.3995291817296389 l -15.599475445961778 37.31931200783719" fill="#60ff29" stroke="none" /><path d="M 109.08828744355905 81.06846463323043 l 26.14153846741923 -54.454644300280535 a81.40437334592285,81.40437334592285 0 0,0 1.258002768655339,0.617296495133135 l -27.075012503085002 53.99659264501257" fill="#49f1ff" stroke="none" /><path d="M 109.41281617654863 81.2277094730956 l 19.43320165167477 -38.7562765946758 a64.35548756406357,64.35548756406357 0 0,0 0.9859858661833198,0.5050602565579091 l -20.097448005446847 38.41602381280539" fill="#3aff2e" stroke="none" /><path d="M 109.73455568895987 81.39251694778311 l 6.630213042938366 -12.673570399209998 a35.30311545288235,35.30311545288235 0 0,0 0.5360272969111649,0.28632721820907264 l -6.847385386377843 12.557564454499172" fill="#ff0000" stroke="none" /><path d="M 110.36928655335952 81.73862282372117 l 17.645377680343174 -31.075319944190422 a56.735624565911145,56.735624565911145 0 0,0 0.8450994642779712,0.4895361571058131 l -18.177673877086473 30.76697962969456" fill="#a0ff22" stroke="none" /><line stroke="#e1ed5e" stroke-width="0.3" x1="143.23703022742887" x2="145.7803849466894" y1="26.81831364943548" y2="22.513508569990506" /><path d="M 143.74570117128098 25.957352633546492 a86.0,86.0 0 0,1 28.547481713284135,27.462654790039103" fill="none" id="id62" stroke="none" /><text fill="#e1ed5e" style="font-size:6.75px; font-family:Arial;" text-anchor="middle"><textPath startOffset="19.985693538727396" xlink:href="#id62">February</textPath></text><path d="M 110.68208982089419 81.91981866633111 l 20.408368537013995 -34.54258577304005 a61.12096382479379,61.12096382479379 0 0,0 0.9012080452140796,0.5429677635558403 l -20.999938648445713 34.1861714000256" fill="#64ff29" stroke="none" /><path d="M 110.99172775467656 82.1063720568725 l 20.993202573349446 -34.17520562428408 a61.10809436694524,61.10809436694524 0 0,0 0.8915404642409718,0.5582825569176172 l -21.578362189962682 33.80877872604353" fill="#64ff29" stroke="none" /><path d="M 111.2981086023043 82.29822771554956 l 16.20054270917509 -25.38286079705781 a51.11224346199765,51.11224346199765 0 0,0 0.737556912148911,0.47972753214189845 l -16.635066647108278 25.10023434075638" fill="#f2ff19" stroke="none" /><path d="M 111.60114157652 82.49532879139004 l 25.999756656232385 -39.23037993884544 a68.0638933401123,68.0638933401123 0 0,0 0.971029663100547,0.6556435631085048 l -26.671191013739474 38.777024463438266" fill="#34ff5a" stroke="none" /><path d="M 112.19680574252982 82.90503203632743 l 22.57540493012981 -31.641548795173115 a59.86948054601001,59.86948054601001 0 0,0 0.833767142530779,0.6057672875021146 l -23.116717389014376 31.248262272854326" fill="#74ff27" stroke="none" /><path d="M 112.48926042617603 83.11751280151076 l 19.99260221974127 -27.02520721978517 a54.616453840182665,54.616453840182665 0 0,0 0.7509862435443085,0.5656272690599707 l -20.454834617043957 26.67706336121935" fill="#beff1f" stroke="none" /><path d="M 112.77801427241765 83.33499621200491 l 23.845208880890716 -31.098767606118212 a60.188357112701944,60.188357112701944 0 0,0 0.8167486826456382,0.6374853018578563 l -24.376990118695787 30.683703915037132" fill="#70ff27" stroke="none" /><path d="M 113.06298171725822 83.55741782278167 l 13.32277191514966 -16.769584217803157 a42.41763773951491,42.41763773951491 0 0,0 0.5677835147381057,0.4591081155547945 l -13.609458828452258 16.53777000498423" fill="#ff7f0b" stroke="none" /><path d="M 113.34407831869373 83.78471172551755 l 23.68198485975982 -28.777574759507683 a58.26909196555434,58.26909196555434 0 0,0 0.7689923650709255,0.6440089907103934 l -24.173834761789863 28.365664611403467" fill="#8aff24" stroke="none" /><path d="M 113.89432698308785 84.25364557470407 l 34.90570505868446 -39.55841862566709 a73.75676951640799,73.75676951640799 0 0,0 0.9447505043013701,0.8482063308660474 l -35.58146655058182 38.95171328603174" fill="#3dffab" stroke="none" /><path d="M 114.42810811169701 84.74124197986012 l 43.28432433509102 -45.77627406041963 a84.0,84.0 0 0,0 1.042067025550327,1.0024676529507923 l -44.06587460425377 45.02442332070654" fill="#4dd2ff" stroke="none" /><line stroke="#e1ed5e" stroke-width="0.3" x1="172.23445277983987" x2="176.4835382374775" y1="55.19839476539836" y2="52.563006222186495" /><path d="M 173.08426987136738 54.67131705675599 a86.0,86.0 0 0,1 12.851231095245387,41.99856678651699" fill="none" id="id63" stroke="none" /><text fill="#e1ed5e" style="font-size:6.75px; font-family:Arial;" text-anchor="middle"><textPath startOffset="22.20632615414155" xlink:href="#id63">March</textPath></text><line stroke="#e1ed5e" stroke-width="0.3" x1="184.98032266829074" x2="189.97916517819016" y1="98.17113171792111" y2="98.06355123074" /><path d="M 185.9800911702706 98.14961562048488 a86.0,86.0 0 0,1 -9.607161424134198,41.387399972396054" fill="none" id="id64" stroke="none" /><text fill="#e1ed5e" style="font-size:6.75px; font-family:Arial;" text-anchor="middle"><textPath startOffset="21.466115282336823" xlink:href="#id64">April</textPath></text><line stroke="#e1ed5e" stroke-width="0.3" x1="174.80103733775053" x2="179.2010983576182" y1="140.37084112569926" y2="142.7455964860345" /><path d="M 175.68104954172406 140.8457921977663 a86.0,86.0 0 0,1 -30.038265399797805,32.042727171017184" fill="none" id="id65" stroke="none" /><text fill="#e1ed5e" style="font-size:6.75px; font-family:Arial;" text-anchor="middle"><textPath startOffset="22.206326154141568" xlink:href="#id65">May</textPath></text><line stroke="#e1ed5e" stroke-width="0.3" x1="143.8653032363475" x2="146.44561519142675" y1="172.8068346515853" y2="177.08958963109032" /><path d="M 144.38136562736335 173.6633856474863 a86.0,86.0 0 0,1 -40.68145358897372,12.25698825130547" fill="none" id="id66" stroke="none" /><text fill="#e1ed5e" style="font-size:6.75px; font-family:Arial;" text-anchor="middle"><textPath startOffset="21.466115282336833" xlink:href="#id66">June</textPath></text><line stroke="#e1ed5e" stroke-width="0.3" x1="102.19456741930631" x2="102.32365962044197" y1="184.97166512339345" y2="189.96999836594603" /><path d="M 102.22038585953345 185.97133177190398 a86.0,86.0 0 0,1 -42.740103519485714,-10.115201625700543" fill="none" id="id67" stroke="none" /><text fill="#e1ed5e" style="font-size:6.75px; font-family:Arial;" text-anchor="middle"><textPath startOffset="22.20632615414155" xlink:href="#id67">July</textPath></text><line stroke="#e1ed5e" stroke-width="0.3" x1="58.666819895761336" x2="56.23545636021788" y1="174.27360380694188" y2="178.64263932499728" /><path d="M 58.180547188652646 175.14741091055294 a86.0,86.0 0 0,1 -31.652253787137756,-30.449443065178592" fill="none" id="id68" stroke="none" /><text fill="#e1ed5e" style="font-size:6.75px; font-family:Arial;" text-anchor="middle"><textPath startOffset="22.20632615414155" xlink:href="#id68">August</textPath></text><line stroke="#e1ed5e" stroke-width="0.3" x1="26.63291911575756" x2="22.317208475507996" y1="142.92168965132927" y2="145.44649492493687" /><path d="M 25.769776987707644 143.4266507060508 a86.0,86.0 0 0,1 -11.730757126820373,-40.83630448921669" fill="none" id="id69" stroke="none" /><text fill="#e1ed5e" style="font-size:6.75px; font-family:Arial;" text-anchor="middle"><textPath startOffset="21.46611528233685" xlink:href="#id69">September</textPath></text><line stroke="#e1ed5e" stroke-width="0.3" x1="15.007084014347285" x2="10.007500721073583" y1="101.09737516637583" y2="101.16192664675087" /><path d="M 14.007167355692545 101.11028546245083 a86.0,86.0 0 0,1 10.666146001902534,-42.60595125391555" fill="none" id="id70" stroke="none" /><text fill="#e1ed5e" style="font-size:6.75px; font-family:Arial;" text-anchor="middle"><textPath startOffset="22.20632615414155" xlink:href="#id70">October</textPath></text><line stroke="#e1ed5e" stroke-width="0.3" x1="26.266209847984243" x2="21.928928074336255" y1="57.711370442889674" y2="55.22380399835377" /><path d="M 25.398753493254645 57.213857153982495 a86.0,86.0 0 0,1 29.58750427330803,-30.492523968695096" fill="none" id="id71" stroke="none" /><text fill="#e1ed5e" style="font-size:6.75px; font-family:Arial;" text-anchor="middle"><textPath startOffset="21.46611528233685" xlink:href="#id71">November</textPath></text><line stroke="#e1ed5e" stroke-width="0.3" x1="56.762969772571076" x2="54.21961505331055" y1="26.818313649435495" y2="22.513508569990535" /><path d="M 56.25429882871897 25.957352633546506 a86.0,86.0 0 0,1 42.265352541879196,-11.944610805530505" fill="none" id="id72" stroke="none" /><text fill="#e1ed5e" style="font-size:6.75px; font-family:Arial;" text-anchor="middle"><textPath startOffset="22.20632615414155" xlink:href="#id72">December</textPath></text></svg>