<?xml version="1.0" encoding="utf-8" ?>
<svg baseProfile="full" height="200mm" version="1.1" viewBox="0,0,200,200" width="200mm" xmlns="http://www.w3.org/2000/svg" xmlns:ev="http://www.w3.org/2001/xml-events" xmlns:xlink="http://www.w3.org/1999/xlink"><defs /><rect fill="#1a1a1a" height="200" width="200" x="0" y="0" /><text alignment-baseline="middle" fill="#e1ed5e" style="dominant-baseline: central; font-size:9.0px; font-family:Arial;" text-anchor="middle" x="100.0" y="100.0">2026</text><line stroke="#e1ed5e" stroke-width="0.3" x1="100.0" x2="100.0" y1="15.0" y2="10.0" /><path d="M 100.0 14.0 a86.0,86.0 0 0,1 42.46469731375804,11.215312516191453" fill="none" id="id61" stroke="none" /><text fill="#e1ed5e" style="font-size:6.75px; font-family:Arial;" text-anchor="middle"><textPath startOffset="22.20632615414155" xlink:href="#id61">January</textPath></text><path d="M 100.0 79.0 l 0.0 -60.52563223765145 a81.52563223765145,81.52563223765145 0 0,0 1.4033297435362921,0.012078902149628645 l -1.0418492642637638 60.516664712110384" fill="#4aebff" stroke="none" /><path d="M 100.72285384407766 79.0124445844662 l 1.4099602392251336 -40.93720867209994 a61.961482416280425,61.961482416280425 0 0,0 1.065617019685091,0.04588771045258526 l -2.114418091299556 40.906873235123165" fill="#33ff2f" stroke="none" /><path d="M 101.08401301168833 79.027996857942 l 1.8086107717721571 -34.990530906349626 a56.03724198666297,56.03724198666297 0 0,0 0.9628744565307782,0.05808321671401936 l -2.410647277142547 34.954214420255305" fill="#75ff27" stroke="none" /><path d="M 101.44485096284872 79.0497635885617 l 2.9125990050400468 -42.23247884819938 a63.33279464703185,63.33279464703185 0 0,0 1.0869409774233563,0.0843675392915492 l -3.639130171825744 42.17608604671936" fill="#31ff3d" stroke="none" /><path d="M 101.80526077348638 79.07773832637324 l 2.602508000304882 -30.162043173923095 a51.274112642937226,51.274112642937226 0 0,0 0.8786792748065494,0.08344118476379982 l -3.121312402201676 30.112776444644116" fill="#aeff20" stroke="none" /><path d="M 102.16513564639614 79.11191278185805 l 3.4736977157227344 -33.512404165647176 a54.69195465956084,54.69195465956084 0 0,0 0.9355795792309849,0.10512326679344305 l -4.050043998463445 33.44764494538313" fill="#85ff25" stroke="none" /><path d="M 102.52436894288641 79.15227682838746 l 2.466797164136395 -20.372261567927467 a41.521065509399016,41.521065509399016 0 0,0 0.7087947829419244,0.0920219053723409 l -2.817106675586165 20.32678133939099" fill="#ffd013" stroke="none" /><path d="M 103.2404852339499 79.25152402106235 l 9.361086335874539 -59.93802191775608 a81.66462238241581,81.66462238241581 0 0,0 1.38701836645263,0.22886991489664488 l -10.391433908466045 59.768005739919815" fill="#4aeaff" stroke="none" /><path d="M 103.95276090670814 79.375362276772 l 8.632862549237903 -45.0443795601932 a66.86417388067494,66.86417388067494 0 0,0 1.128519486978194,0.2263703925276974 l -9.406948445683222 44.889105211588294" fill="#36ff6b" stroke="none" /><path d="M 104.307194497241 79.44645832069477 l 7.644821014559327 -36.48039285298652 a58.272809808932806,58.272809808932806 0 0,0 0.9799746080020136,0.21418449263219835 l -8.271638346714868 36.34339486225845" fill="#5bff2a" stroke="none" /><path d="M 105.01212808612495 79.60689891045804 l 6.2786011540401585 -25.546064632647486 a47.30631579425209,47.30631579425209 0 0,0 0.7890943777040818,0.20115772679600363 l -6.717404420429266 25.434203909682616" fill="#e0ff1b" stroke="none" /><path d="M 105.36241919743992 79.69619591428918 l 8.052866833853232 -30.490684242092232 a52.536177475952044,52.536177475952044 0 0,0 0.8723559989515342,0.23844784795222607 l -8.576520722028476 30.347549853313712" fill="#9eff22" stroke="none" /><path d="M 105.71112130821622 79.79150937346287 l 9.883403562414836 -34.9718833606296 a57.34163303660191,57.34163303660191 0 0,0 0.9475289331149699,0.276609678530393 l -10.483922713253234 34.7965753531805" fill="#66ff29" stroke="none" /><path d="M 106.0581310904928 79.89281104454417 l 10.332118112844134 -34.29272957316372 a56.81541520457217,56.81541520457217 0 0,0 0.9339767801967701,0.2901911319731429 l -10.920880265751622 34.10979830630806" fill="#6cff28" stroke="none" /><path d="M 106.40334571778207 80.00007090966166 l 8.734419473129888 -27.280702590016464 a49.64483927931036,49.64483927931036 0 0,0 0.8116155291238862,0.2675768794178059 l -9.202717824496192 27.126311986339424" fill="#c2ff1e" stroke="none" /><path d="M 106.74666289553966 80.11325718540242 l 16.198312241877364 -47.746815658705884 a71.41967597111068,71.41967597111068 0 0,0 1.1608009844242795,0.40498067054082165 l -17.017795230364918 47.460914134992855" fill="#3cffa3" stroke="none" /><path d="M 107.4271985657038 80.35727306442388 l 21.8508101559632 -57.78888142248375 a82.78197731162246,82.78197731162246 0 0,0 1.3285199994586845,0.5154451199934216 l -22.84231332042155 57.40419359859978" fill="#4bdeff" stroke="none" /><path d="M 107.76421540070413 80.48803036053334 l 14.954773606260712 -37.58230207575041 a61.44842003005143,61.44842003005143 0 0,0 0.979417970112678,0.3995291817296389 l -15.599475445961778 37.31931200783719" fill="#38ff2e" stroke="none" /><path d="M 109.08828744355905 81.06846463323043 l 26.14153846741923 -54.454644300280535 a81.40437334592285,81.40437334592285 0 0,0 1.258002768655339,0.617296495133135 l -27.075012503085002 53.99659264501257" fill="#49ecff" stroke="none" /><path d="M 109.41281617654863 81.2277094730956 l 19.43320165167477 -38.7562765946758 a64.35548756406357,64.35548756406357 0 0,0 0.9859858661833198,0.5050602565579091 l -20.097448005446847 38.41602381280539" fill="#32ff4b" stroke="none" /><path d="M 109.73455568895987 81.39251694778311 l 6.630213042938366 -12.673570399209998 a35.30311545288235,35.30311545288235 0 0,0 0.5360272969111649,0.28632721820907264 l -6.847385386377843 12.557564454499172" fill="#ff770a" stroke="none" /><path d="M 110.36928655335952 81.73862282372117 l 17.645377680343174 -31.075319944190422 a56.735624565911145,56.735624565911145 0 0,0 0.8450994642779712,0.4895361571058131 l -18.177673877086473 30.76697962969456" fill="#6dff28" stroke="none" /><line stroke="#e1ed5e" stroke-width="0.3" x1="143.23703022742887" x2="145.7803849466894" y1="26.81831364943548" y2="22.513508569990506" /><path d="M 143.74570117128098 25.957352633546492 a86.0,86.0 0 0,1 28.547481713284135,27.462654790039103" fill="none" id="id62" stroke="none" /><text fill="#e1ed5e" style="font-size:6.75px; font-family:Arial;" text-anchor="middle"><textPath startOffset="19.985693538727396" xlink:href="#id62">February</textPath></text><path d="M 110.68208982089419 81.91981866633111 l 20.408368537013995 -34.54258577304005 a61.12096382479379,61.12096382479379 0 0,0 0.9012080452140796,0.5429677635558403 l -20.999938648445713 34.1861714000256" fill="#3cff2e" stroke="none" /><path d="M 110.99172775467656 82.1063720568725 l 20.993202573349446 -34.17520562428408 a61.10809436694524,61.10809436694524 0 0,0 0.8915404642409718,0.5582825569176172 l -21.578362189962682 33.80877872604353" fill="#3cff2e" stroke="none" /><path d="M 111.2981086023043 82.29822771554956 l 16.20054270917509 -25.38286079705781 a51.11224346199765,51.11224346199765 0 0,0 0.737556912148911,0.47972753214189845 l -16.635066647108278 25.10023434075638" fill="#b0ff20" stroke="none" /><path d="M 111.60114157652 82.49532879139004 l 25.999756656232385 -39.23037993884544 a68.0638933401123,68.0638933401123 0 0,0 0.971029663100547,0.6556435631085048 l -26.671191013739474 38.777024463438266" fill="#37ff7a" stroke="none" /><path d="M 112.19680574252982 82.90503203632743 l 22.57540493012981 -31.641548795173115 a59.86948054601001,59.86948054601001 0 0,0 0.833767142530779,0.6057672875021146 l -23.116717389014376 31.248262272854326" fill="#4aff2c" stroke="none" /><path d="M 112.48926042617603 83.11751280151076 l 19.99260221974127 -27.02520721978517 a54.616453840182665,54.616453840182665 0 0,0 0.7509862435443085,0.5656272690599707 l -20.454834617043957 26.67706336121935" fill="#86ff25" stroke="none" /><path d="M 112.77801427241765 83.33499621200491 l 23.845208880890716 -31.098767606118212 a60.188357112701944,60.188357112701944 0 0,0 0.8167486826456382,0.6374853018578563 l -24.376990118695787 30.683703915037132" fill="#46ff2c" stroke="none" /><path d="M 113.06298171725822 83.55741782278167 l 13.32277191514966 -16.769584217803157 a42.41763773951491,42.41763773951491 0 0,0 0.5677835147381057,0.4591081155547945 l -13.609458828452258 16.53777000498423" fill="#ffdc14" stroke="none" /><path d="M 113.34407831869373 83.78471172551755 l 23.68198485975982 -28.777574759507683 a58.26909196555434,58.26909196555434 0 0,0 0.7689923650709255,0.6440089907103934 l -24.173834761789863 28.365664611403467" fill="#5bff2a" stroke="none" /><path d="M 113.89432698308785 84.25364557470407 l 34.90570505868446 -39.55841862566709 a73.75676951640799,73.75676951640799 0 0,0 0.9447505043013701,0.8482063308660474 l -35.58146655058182 38.95171328603174" fill="#3fffbe" stroke="none" /><path d="M 114.42810811169701 84.74124197986012 l 43.28432433509102 -45.77627406041963 a84.0,84.0 0 0,0 1.042067025550327,1.0024676529507923 l -44.06587460425377 45.02442332070654" fill="#4dd2ff" stroke="none" /><path d="M 114.68862486808459 84.99185889309783 l 5.479204006033506 -5.5983911097579675 a28.833495998438416,28.833495998438416 0 0,0 0.3517194967056516,0.3502091014107096 l -5.574759302906481 5.50324615769714" fill="#ff1302" stroke="none" /><path d="M 115.19652480421416 85.50635884689758 l 33.078615890122165 -31.5486333046218 a66.71117032625324,66.71117032625324 0 0,0 0.7853895854401988,0.8377988500423892 l -33.61677279753283 30.974565037701353" fill="#35ff69" stroke="none" /><path d="M 115.9244219780498 86.31012108654704 l 27.63419150143217 -23.756512861015445 a57.442014807820634,57.442014807820634 0 0,0 0.638124399741924,0.7553380144977144 l -28.03902651466121 23.277315896888624" fill="#65ff29" stroke="none" /><path d="M 116.15771136456269 86.58626213691792 l 46.97177817522989 -38.99482452615442 a82.04870420220709,82.04870420220709 0 0,0 0.8927739349229052,1.0944352814371687 l -47.63605060222921 38.180505075109146" fill="#4ae6ff" stroke="none" /><path d="M 116.38621287248628 86.86637796730983 l 16.056240698195474 -12.869147876754045 a41.577119148028274,41.577119148028274 0 0,0 0.4427882399102422,0.5622960988362286 l -16.275383018699678 12.590859383964778" fill="#ffd113" stroke="none" /><path d="M 116.60985879189232 87.15038557335679 l 30.621950718634466 -23.689560799769726 a59.71561902773175,59.71561902773175 0 0,0 0.6219639345607458,0.8184316320890205 l -31.025190593419325 23.158944391799672" fill="#4bff2c" stroke="none" /><path d="M 116.82858285166822 87.43820079747576 l 33.65915192668003 -25.125081033682985 a63.00247856225231,63.00247856225231 0 0,0 0.6412373891934318,0.8746470782227688 l -34.08665192838709 24.54197151178872" fill="#30ff39" stroke="none" /><path d="M 117.04232023915458 87.72973835380427 l 32.58897261843611 -23.463660769043045 a61.156998306769744,61.156998306769744 0 0,0 0.6077473217761022,0.8596154866386583 l -32.988032560016094 22.899218782072595" fill="#3cff2e" stroke="none" /><path d="M 117.2510076193507 88.02491185347247 l 16.637912373324355 -11.549497376678993 a41.25366677410129,41.25366677410129 0 0,0 0.3999160598410329,0.586827470766833 l -16.83425289883412 11.261391882641753" fill="#ffcc13" stroke="none" /><path d="M 117.45458315368197 88.32363383020206 l 30.957007311124883 -20.70890778102349 a58.24506897757037,58.24506897757037 0 0,0 0.5502865551885576,0.8381241765426731 l -31.308890501671364 20.172965540503142" fill="#5cff2a" stroke="none" /><path d="M 117.65298651832404 88.62581576622439 l 6.056326503406241 -3.9022163959699547 a28.204608491572433,28.204608491572433 0 0,0 0.25944533425041794,0.4103802128523729 l -6.122599433902614 3.7973885354033756" fill="#ff0901" stroke="none" /><line stroke="#e1ed5e" stroke-width="0.3" x1="172.23445277983987" x2="176.4835382374775" y1="55.19839476539836" y2="52.563006222186495" /><path d="M 173.08426987136738 54.67131705675599 a86.0,86.0 0 0,1 12.851231095245387,41.99856678651699" fill="none" id="id63" stroke="none" /><text fill="#e1ed5e" style="font-size:6.75px; font-family:Arial;" text-anchor="middle"><textPath startOffset="22.20632615414155" xlink:href="#id63">March</textPath></text><path d="M 117.84615892207809 88.93136811851018 l 32.35460353436486 -20.06713028596816 a59.07243212325627,59.07243212325627 0 0,0 0.5285131787032965,0.8687367026047033 l -32.695232511354384 19.507225810156378" fill="#52ff2b" stroke="none" /><path d="M 118.03404312379186 89.2402003453031 l 27.56227306325779 -16.44470594602564 a53.095283922483645,53.095283922483645 0 0,0 0.46152525768097913,0.7888962709871487 l -27.841257995409098 15.967830262684597" fill="#98ff23" stroke="none" /><path d="M 118.21658344932153 89.55222093294921 l 27.573577445651946 -15.814307114274811 a52.78670292207055,52.78670292207055 0 0,0 0.4452743363814856,0.7920933593770301 l -27.841709423325863 15.337330244962986" fill="#9bff22" stroke="none" /><path d="M 118.3937258080291 89.86733742301442 l 25.810950713734933 -14.218633957200698 a50.46819859366559,50.46819859366559 0 0,0 0.4126181402650688,0.7645187480761471 l -26.051876953218468 13.772234225792092" fill="#b8ff1f" stroke="none" /><path d="M 118.89224826269711 90.83032412892265 l 36.67500392351891 -17.800840528502945 a61.76672462083899,61.76672462083899 0 0,0 0.4560202164616069,0.9604948755227211 l -36.975982333822266 17.166903237339685" fill="#35ff2f" stroke="none" /><path d="M 119.34039704204932 91.81776055985345 l 34.33456247394285 -14.525741670332474 a58.280817471594126,58.280817471594126 0 0,0 0.38292804198209485,0.9272906272394773 l -34.579512202811145 13.932576472639692" fill="#5bff2a" stroke="none" /><path d="M 119.47837535516314 92.15188598940014 l 30.379029104485653 -12.240142188251705 a53.75219824866425,53.75219824866425 0 0,0 0.33839939602433233,0.8611895518953411 l -30.585222050391685 11.715403631460578" fill="#90ff24" stroke="none" /><path d="M 119.61058180528143 92.48833698450437 l 36.498868845025285 -13.980574667946103 a60.08482947400914,60.08482947400914 0 0,0 0.3616403212465267,0.9690162646849939 l -36.73411375477344 13.350235266231776" fill="#47ff2c" stroke="none" /><path d="M 119.97218684219823 93.5106431181261 l 57.53500990912915 -18.694257942431502 a81.49588949062368,81.49588949062368 0 0,0 0.4220110036922668,1.3378902066106406 l -57.848276396589625 17.70111756939444" fill="#4aebff" stroke="none" /><path d="M 120.08093135843002 93.85539295169968 l 27.91789929939369 -8.54265759624631 a50.19565207522845,50.19565207522845 0 0,0 0.24570557256982037,0.8283970439223688 l -28.06081076907521 8.06083116557741" fill="#bbff1f" stroke="none" /><path d="M 120.18372546131832 94.20196356495316 l 27.571814301766096 -7.920360599848547 a49.686879508282296,49.686879508282296 0 0,0 0.22906415550841933,0.8240656429104395 l -27.70406522784088 7.444583653519156" fill="#c2ff1e" stroke="none" /><path d="M 120.28053869075195 94.5502522615342 l 34.65024340386072 -9.311147425960106 a56.87947650586275,56.87947650586275 0 0,0 0.24594595752520362,0.9477301020148362 l -34.80538569325623 8.71332089839642" fill="#6bff28" stroke="none" /><path d="M 120.37134235888165 94.90015583598534 l 14.157356544122806 -3.5442098452555255 a35.59425118821185,35.59425118821185 0 0,0 0.1436773809541771,0.5956355016934465 l -14.216266725337801 3.299989111902673" fill="#ff7b0b" stroke="none" /><path d="M 120.45610955862082 95.25157060432595 l 31.240351293255202 -7.251750484957724 a53.07097494654749,53.07097494654749 0 0,0 0.1989039816936917,0.8916475487813759 l -31.36054966195093 6.712924766626385" fill="#98ff23" stroke="none" /><path d="M 120.53481517161879 95.60439243477599 l 28.043027964804267 -6.002788184051869 a49.6782998697166,49.6782998697166 0 0,0 0.1717939578230827,0.8377283497276502 l -28.142201218542347 5.519184178160806" fill="#c2ff1e" stroke="none" /><path d="M 120.6074358757038 95.95851677861258 l 28.98581055322132 -5.684630912634483 a50.53797965399997,50.53797965399997 0 0,0 0.16007129198781275,0.8551072424674836 l -29.079367569118993 5.184845592704437" fill="#b7ff1f" stroke="none" /><path d="M 120.67395015179393 96.31383870115 l 33.901715732666794 -6.044669334153661 a55.43638129911162,55.43638129911162 0 0,0 0.15941427955754625,0.940872101873595 l -34.00074187374456 5.460211443964228" fill="#7cff26" stroke="none" /><path d="M 120.73433829027371 96.67025291283417 l 31.142027536886182 -5.0011277923456685 a52.54103927113927,52.54103927113927 0 0,0 0.13571627300160038,0.8942006700641735 l -31.223499703327082 4.464328009889413" fill="#9eff22" stroke="none" /><path d="M 120.78858239683441 97.02765380044208 l 17.030124774716537 -2.4349628890440282 a38.203319276041924,38.203319276041924 0 0,0 0.08747468762204688,0.6517880270882508 l -17.06951546139642 2.141456519891113" fill="#ffa10e" stroke="none" /><path d="M 120.83666639777658 97.38593545837742 l 37.624499194434506 -4.720182555256219 a58.919428568834576,58.919428568834576 0 0,0 0.11758535488333884,1.0073995124743627 l -37.70017490232143 4.071839304457003" fill="#54ff2b" stroke="none" /><path d="M 120.87857604477298 97.74499172005257 l 6.601674780958731 -0.7130194731986539 a27.640068273949222,27.640068273949222 0 0,0 0.04701822309928127,0.4734670900542651 l -6.612970129740241 0.5992768524399538" fill="#ff0000" stroke="none" /><path d="M 120.94382443527127 98.46500227214037 l 37.185939072062034 -2.725401569343449 a58.285679266781365,58.285679266781365 0 0,0 0.06472321873369208,1.001239546635532 l -37.22734288180014 2.0849029584548817" fill="#5bff2a" stroke="none" /><path d="M 120.96714384426684 98.82574320788733 l 33.377114759704696 -1.8692724196874368 a54.429417719450356,54.429417719450356 0 0,0 0.04433766395864699,0.9358980100700389 l -33.40434603189684 1.2944633029943982" fill="#88ff25" stroke="none" /><path d="M 120.98425023603335 99.18683210126433 l 31.523385088950466 -1.2215735385103135 a52.547045018135265,52.547045018135265 0 0,0 0.027245156267163364,0.9041340966502263 l -31.539741939673274 0.6787692944350882" fill="#9eff22" stroke="none" /><line stroke="#e1ed5e" stroke-width="0.3" x1="184.98032266829074" x2="189.97916517819016" y1="98.17113171792111" y2="98.06355123074" /><path d="M 185.9800911702706 98.14961562048488 a86.0,86.0 0 0,1 -9.607161424134198,41.387399972396054" fill="none" id="id64" stroke="none" /><text fill="#e1ed5e" style="font-size:6.75px; font-family:Arial;" text-anchor="middle"><textPath startOffset="21.466115282336823" xlink:href="#id64">April</textPath></text><path d="M 120.99513854157772 99.54816195383933 l 28.69281910932103 -0.6175004418057456 a49.69946297817867,49.69946297817867 0 0,0 0.011045097141548539,0.8554549457370458 l -28.699197213580295 0.12350923800823708" fill="#c2ff1e" stroke="none" /><path d="M 120.99980553446 99.90962569577887 l 34.366567980296644 -0.14789921099940048 a55.36688622672943,55.36688622672943 0 0,0 -0.004101638808319107,0.9530764091589353 l -34.36402204419882 -0.4436866763632196" fill="#7dff26" stroke="none" /><path d="M 120.99824983174949 100.27111621757518 l 21.06897829016166 0.2720294190216523 a42.07073435350834,42.07073435350834 0 0,0 -0.01558207307606149,0.7240377072641235 l -21.061174154400593 -0.6346569420758906" fill="#ffd814" stroke="none" /><path d="M 120.9904718944345 100.63252640178507 l 37.479153664747706 1.129395962546142 a58.496166399593264,58.496166399593264 0 0,0 -0.038991503141686576,1.0061974412375176 l -37.45416002875481 -1.774370650797666" fill="#59ff2a" stroke="none" /><path d="M 120.9764740272857 100.99374915477107 l 34.34209758278724 1.6269383692210648 a55.38061364843456,55.38061364843456 0 0,0 -0.053306871043941044,0.9518299920200246 l -34.309004360855766 -2.2178400775765126" fill="#7dff26" stroke="none" /><path d="M 120.95626037817324 101.35467743843564 l 24.069414556891726 1.5559213460878898 a45.119651911806756,45.119651911806756 0 0,0 -0.056772213113196676,0.7746117421962473 l -24.039065785114193 -1.9700062247809074" fill="#fdff18" stroke="none" /><path d="M 120.92983693683757 101.71520430193887 l 29.723752735460636 2.435867451594805 a50.823395630285674,50.823395630285674 0 0,0 -0.07895875242895216,0.8713032535267664 l -29.67741938675461 -2.947152093670142" fill="#b4ff20" stroke="none" /><path d="M 120.89721153311464 102.0752229133903 l 29.10767395022401 2.8905728327092115 a50.25084775000113,50.25084775000113 0 0,0 -0.09288677415600424,0.8600161671313219 l -29.053604874566954 -3.3911853217253247" fill="#bbff1f" stroke="none" /><path d="M 120.81339534386255 102.79330883721812 l 42.26416779229997 5.672158311580493 a63.64309157515808,63.64309157515808 0 0,0 -0.15506472269906224,1.084522309396942 l -42.16026901858431 -6.398826092957845" fill="#31ff41" stroke="none" /><path d="M 120.76222939487914 103.15116336523771 l 10.997839309405633 1.6691843476653718 a32.12378738838525,32.12378738838525 0 0,0 -0.08767995887491481,0.545983187611151 l -10.967477596169429 -1.8582467649697278" fill="#ff4706" stroke="none" /><path d="M 120.70491114924044 103.5080841355445 l 25.423761246879284 4.307610539991144 a46.78610370921834,46.78610370921834 0 0,0 -0.14136879663988489,0.7928712874458014 l -25.34584600790021 -4.7446005781701635" fill="#e7ff1a" stroke="none" /><path d="M 120.64145759157962 103.86396538481128 l 31.0345709639461 5.809498065004631 a52.573641897688944,52.573641897688944 0 0,0 -0.17416913288265012,0.8880846562500339 l -30.929971898087782 -6.34284644832261" fill="#9eff22" stroke="none" /><path d="M 120.49622156327973 104.57218783832717 l 28.846406549448368 6.434902589125027 a50.55542491908356,50.55542491908356 0 0,0 -0.19677961057268178,0.8477214121462245 l -28.731366372945132 -6.930492658619817" fill="#b7ff1f" stroke="none" /><path d="M 120.41448212921028 104.9243191809786 l 27.382163982815932 6.605042168782071 a49.16752538710512,49.16752538710512 0 0,0 -0.20554059205229466,0.82103249328474 l -27.264412076468577 -7.075402501464207" fill="#c8ff1d" stroke="none" /><path d="M 120.13307415673323 105.97154293290107 l 38.7577831391603 11.495699275620165 a61.42668494568498,61.42668494568498 0 0,0 -0.3093951771882882,1.0111213405364716 l -38.55416118946589 -12.161147588708694" fill="#39ff2e" stroke="none" /><path d="M 120.02730092923936 106.31721596034902 l 28.839662446937016 9.096901102378764 a51.2403660645788,51.2403660645788 0 0,0 -0.2725688547703612,0.8388806770734591 l -28.678801341150407 -9.59198067943002" fill="#aeff20" stroke="none" /><path d="M 119.79798401119884 107.00284435728193 l 35.186270382054836 12.445912415091811 a58.32257171261388,58.32257171261388 0 0,0 -0.34292488772812657,0.9435820106489745 l -34.96682123332148 -13.049742222746916" fill="#5bff2a" stroke="none" /><path d="M 119.67450827220406 107.3425965602758 l 38.85083276245644 14.49926915878673 a62.46825306756125,62.46825306756125 0 0,0 -0.384642974544578,1.0041814312719928 l -38.59549550831836 -15.165874156891865" fill="#30ff32" stroke="none" /><path d="M 119.54520255179757 107.68017299344265 l 26.99768219598423 10.60858126886364 a50.00718601473518,50.00718601473518 0 0,0 -0.3217066713778575,0.7984495753877486 l -26.81107291034898 -11.071730212094202" fill="#beff1f" stroke="none" /><path d="M 119.26925614724726 108.34839909993367 l 15.800704317574448 6.845650122410191 a38.21990657726895,38.21990657726895 0 0,0 -0.26673657379222027,0.6014205575025043 l -15.680526659050956 -7.116619016405384" fill="#ffa10e" stroke="none" /><path d="M 118.97047184881838 109.00673069616215 l 28.450669970145444 13.507704214666058 a52.49442323493229,52.49442323493229 0 0,0 -0.3945749406439494,0.8129412469634778 l -28.21394177288678 -13.995434417594812" fill="#9fff22" stroke="none" /><path d="M 118.64920377521936 109.65438752849418 l 20.376309559975972 10.548481922534783 a43.944813404209924,43.944813404209924 0 0,0 -0.35354123815077926,0.6687667870870033 l -20.1917158136003 -10.897663724707922" fill="#fff116" stroke="none" /><line stroke="#e1ed5e" stroke-width="0.3" x1="174.80103733775053" x2="179.2010983576182" y1="140.37084112569926" y2="142.7455964860345" /><path d="M 175.68104954172406 140.8457921977663 a86.0,86.0 0 0,1 -30.038265399797805,32.042727171017184" fill="none" id="id65" stroke="none" /><text fill="#e1ed5e" style="font-size:6.75px; font-family:Arial;" text-anchor="middle"><textPath startOffset="22.206326154141568" xlink:href="#id65">May</textPath></text><path d="M 118.48025628344425 109.97397251340804 l 31.357938513560637 16.92418178700184 a56.63352686697928,56.63352686697928 0 0,0 -0.47039157626490125,0.8538973453902681 l -31.061970527844228 -17.46144965078991" fill="#6eff28" stroke="none" /><path d="M 118.30583269289576 110.29060199501025 l 23.372638283660308 13.13890070916192 a47.812514469628525,47.812514469628525 0 0,0 -0.4094754898237219,0.713955031299412 l -23.143010797684205 -13.539275586319647" fill="#daff1c" stroke="none" /><path d="M 117.75023020441432 111.22182372390056 l 27.201269526106135 17.196839036620403 a53.18136629609286,53.18136629609286 0 0,0 -0.49584061332088725,0.7695556430498983 l -26.901224049408196 -17.662516279591756" fill="#97ff23" stroke="none" /><path d="M 117.35343817320211 111.8261652097733 l 29.806550070456648 20.31281535960642 a57.06994448202134,57.06994448202134 0 0,0 -0.5602069801824348,0.8070199371637107 l -29.452482183112078 -20.822876558957155" fill="#69ff28" stroke="none" /><path d="M 117.14729908036423 112.12312394758627 l 8.075356683693817 5.70926940380338 a30.889749374685074,30.889749374685074 0 0,0 -0.3106923464945988,0.43152449536045406 l -7.975884544823616 -5.8474275046149655" fill="#ff3304" stroke="none" /><path d="M 116.71984013943494 112.70617746262583 l 40.148063678512855 30.510364789721425 a71.42568171810666,71.42568171810666 0 0,0 -0.7523273272189159,0.9724844851747348 l -39.61692953407587 -31.196927269009414" fill="#3cffa3" stroke="none" /><path d="M 116.498646956653 112.99209946851258 l 23.248975162796444 18.307743577374282 a50.59203137696389,50.59203137696389 0 0,0 -0.54466438509954,0.6795525663893972 l -22.93039286564205 -18.70522397734193" fill="#b6ff1f" stroke="none" /><path d="M 116.27256486870786 113.27417163493432 l 24.413833471815728 19.915324866504584 a52.506434728924276,52.506434728924276 0 0,0 -0.5773307528684376,0.6954320832828982 l -24.067406719053746 -20.33261820690125" fill="#9fff22" stroke="none" /><path d="M 116.0416608686014 113.55231037782055 l 22.383275914028772 18.909831403620757 a50.30175360549096,50.30175360549096 0 0,0 -0.5644754770885253,0.6566125055047262 l -22.05445792736947 -19.29232100828701" fill="#baff1f" stroke="none" /><path d="M 115.56566222782051 114.09645910891815 l 44.89790762829975 40.66010875060149 a81.57282024976281,81.57282024976281 0 0,0 -0.9515026347666051,1.0326681859864624 l -44.191358585537415 -41.42692819138929" fill="#4aebff" stroke="none" /><line stroke="#e1ed5e" stroke-width="0.3" x1="143.8653032363475" x2="146.44561519142675" y1="172.8068346515853" y2="177.08958963109032" /><path d="M 144.38136562736335 173.6633856474863 a86.0,86.0 0 0,1 -40.68145358897372,12.25698825130547" fill="none" id="id66" stroke="none" /><text fill="#e1ed5e" style="font-size:6.75px; font-family:Arial;" text-anchor="middle"><textPath startOffset="21.466115282336833" xlink:href="#id66">June</textPath></text><line stroke="#e1ed5e" stroke-width="0.3" x1="102.19456741930631" x2="102.32365962044197" y1="184.97166512339345" y2="189.96999836594603" /><path d="M 102.22038585953345 185.97133177190398 a86.0,86.0 0 0,1 -42.740103519485714,-10.115201625700543" fill="none" id="id67" stroke="none" /><text fill="#e1ed5e" style="font-size:6.75px; font-family:Arial;" text-anchor="middle"><textPath startOffset="22.20632615414155" xlink:href="#id67">July</textPath></text><line stroke="#e1ed5e" stroke-width="0.3" x1="58.666819895761336" x2="56.23545636021788" y1="174.27360380694188" y2="178.64263932499728" /><path d="M 58.180547188652646 175.14741091055294 a86.0,86.0 0 0,1 -31.652253787137756,-30.449443065178592" fill="none" id="id68" stroke="none" /><text fill="#e1ed5e" style="font-size:6.75px; font-family:Arial;" text-anchor="middle"><textPath startOffset="22.20632615414155" xlink:href="#id68">August</textPath></text><line stroke="#e1ed5e" stroke-width="0.3" x1="26.63291911575756" x2="22.317208475507996" y1="142.92168965132927" y2="145.44649492493687" /><path d="M 25.769776987707644 143.4266507060508 a86.0,86.0 0 0,1 -11.730757126820373,-40.83630448921669" fill="none" id="id69" stroke="none" /><text fill="#e1ed5e" style="font-size:6.75px; font-family:Arial;" text-anchor="middle"><textPath startOffset="21.46611528233685" xlink:href="#id69">September</textPath></text><line stroke="#e1ed5e" stroke-width="0.3" x1="15.007084014347285" x2="10.007500721073583" y1="101.09737516637583" y2="101.16192664675087" /><path d="M 14.007167355692545 101.11028546245083 a86.0,86.0 0 0,1 10.666146001902534,-42.60595125391555" fill="none" id="id70" stroke="none" /><text fill="#e1ed5e" style="font-size:6.75px; font-family:Arial;" text-anchor="middle"><textPath startOffset="22.20632615414155" xlink:href="#id70">October</textPath></text><line stroke="#e1ed5e" stroke-width="0.3" x1="26.266209847984243" x2="21.928928074336255" y1="57.711370442889674" y2="55.22380399835377" /><path d="M 25.398753493254645 57.213857153982495 a86.0,86.0 0 0,1 29.58750427330803,-30.492523968695096" fill="none" id="id71" stroke="none" /><text fill="#e1ed5e" style="font-size:6.75px; font-family:Arial;" text-anchor="middle"><textPath startOffset="21.46611528233685" xlink:href="#id71">November</textPath></text><line stroke="#e1ed5e" stroke-width="0.3" x1="56.762969772571076" x2="54.21961505331055" y1="26.818313649435495" y2="22.513508569990535" /><path d="M 56.25429882871897 25.957352633546506 a86.0,86.0 0 0,1 42.265352541879196,-11.944610805530505" fill="none" id="id72" stroke="none" /><text fill="#e1ed5e" style="font-size:6.75px; font-family:Arial;" text-anchor="middle"><textPath startOffset="22.20632615414155" xlink:href="#id72">December</textPath></text></svg>