<?xml version="1.0" encoding="utf-8" ?>
<svg baseProfile="full" height="200mm" version="1.1" viewBox="0,0,200,200" width="200mm" xmlns="http://www.w3.org/2000/svg" xmlns:ev="http://www.w3.org/2001/xml-events" xmlns:xlink="http://www.w3.org/1999/xlink"><defs /><rect fill="#1a1a1a" height="200" width="200" x="0" y="0" /><text alignment-baseline="middle" fill="#e1ed5e" style="dominant-baseline: central; font-size:9.0px; font-family:Arial;" text-anchor="middle" x="100.0" y="100.0">2024</text><line stroke="#e1ed5e" stroke-width="0.3" x1="100.0" x2="100.0" y1="15.0" y2="10.0" /><path d="M 100.0 14.0 a86.0,86.0 0 0,1 42.35913384403234,11.155469271406648" fill="none" id="id37" stroke="none" /><text fill="#e1ed5e" style="font-size:6.75px; font-family:Arial;" text-anchor="middle"><textPath startOffset="22.145653131862478" xlink:href="#id37">January</textPath></text><path d="M 100.0 79.0 l 0.0 -46.334109797831644 a67.33410979783164,67.33410979783164 0 0,0 1.1558795325292504,0.009921835608680585 l -0.7953866076803957 46.3272823604174" fill="#38ff7e" stroke="none" /><path d="M 100.36049292484886 79.00309439819443 l 0.4056620984480973 -23.62778351590751 a44.63126563713226,44.63126563713226 0 0,0 0.765929233894976,0.019727620127099096 l -0.8112046464138147 23.617338178430366" fill="#e3ff1b" stroke="none" /><path d="M 100.72087961077811 79.0123766808444 l 0.8302011671821218 -24.17040115357735 a45.18465476087769,45.18465476087769 0 0,0 0.7749689838577584,0.03328050265315851 l -1.2449959116407163 24.15258808249836" fill="#dcff1b" stroke="none" /><path d="M 101.08105385017728 79.02784411241856 l 1.142506215820652 -22.164315363931458 a43.19374227130244,43.19374227130244 0 0,0 0.7401672432791898,0.044526623358271664 l -1.522817811232304 22.141436762748494" fill="#f5ff19" stroke="none" /><path d="M 101.44090949804482 79.04949213459386 l 1.558246955132121 -22.65656873942357 a43.71009116268369,43.71009116268369 0 0,0 0.7481315240509324,0.057910111475982476 l -1.9469474739582868 22.626480860952533" fill="#eeff19" stroke="none" /><path d="M 101.80034050326958 79.07731436759882 l 1.9799275706017376 -23.009759575697867 a44.094786184683514,44.094786184683514 0 0,0 0.7536018101965435,0.07136687494246054 l -2.374628944183294 22.972380945250222" fill="#eaff1a" stroke="none" /><path d="M 102.15924093988457 79.11130261209362 l 2.282210393424712 -22.07831530201168 a43.195956633019875,43.195956633019875 0 0,0 0.7369314503628549,0.08257470610506908 l -2.6608777453883636 22.035884835399642" fill="#f5ff19" stroke="none" /><path d="M 102.87502721639298 79.19773525538626 l 6.069171181782925 -43.91349931713881 a65.33091766600523,65.33091766600523 0 0,0 1.1096141980512209,0.16307507545005126 l -6.8221104854418275 43.80284316838988" fill="#35ff66" stroke="none" /><path d="M 103.58742460773223 79.30868818359171 l 1.7828281898662937 -10.282879230993922 a31.43628677422138,31.43628677422138 0 0,0 0.5309218583307006,0.09675164852548462 l -1.959084781748048 10.250759408537071" fill="#ff6e0a" stroke="none" /><path d="M 103.94208987418118 79.37332000966035 l 5.679732285290108 -29.718759343053815 a51.25663589566618,51.25663589566618 0 0,0 0.8628286156656239,0.17258988805784317 l -6.189057386486689 29.616880058333113" fill="#95ff23" stroke="none" /><path d="M 104.64783097203109 79.52079915486377 l 6.719993959389028 -29.60953330716559 a51.362522646881196,51.362522646881196 0 0,0 0.8581646523617898,0.202524521296178 l -7.227290765490703 29.489812642223185" fill="#94ff23" stroke="none" /><path d="M 104.9986988182912 79.60360301121754 l 4.934776961068636 -20.135573997927143 a41.73145831535962,41.73145831535962 0 0,0 0.6943214591129404,0.17649379978356455 l -5.27970371340697 20.04789496630831" fill="#fff717" stroke="none" /><path d="M 105.3480935250658 79.69241777938227 l 7.749170608305261 -29.42486299691573 a51.428148275961235,51.428148275961235 0 0,0 0.8517936421841776,0.23216014493537704 l -8.25314565142413 29.28750235783621" fill="#93ff23" stroke="none" /><path d="M 105.69591212413111 79.78721728523813 l 8.201056385169458 -29.102655928040264 a51.23610272337733,51.23610272337733 0 0,0 0.8445173315373653,0.245826687083062 l -8.699433729088428 28.957585546654688" fill="#96ff23" stroke="none" /><path d="M 106.38641147887787 79.99465700312896 l 6.50168878037355 -20.366447501928683 a42.379058464900936,42.379058464900936 0 0,0 0.6911363773393115,0.22719025494420983 l -6.8503478953606045 20.25183632558245" fill="#ffff18" stroke="none" /><path d="M 106.72888874123014 80.10723608172694 l 9.05009379727848 -26.754994215371127 a49.24418370574871,49.24418370574871 0 0,0 0.7984457291505808,0.27774087166615025 l -9.50804529847408 26.595694911136388" fill="#acff20" stroke="none" /><path d="M 108.07796709384702 80.6158196554323 l 4.213328996091896 -10.110455782055743 a31.953239582434648,31.953239582434648 0 0,0 0.5045034990576754,0.2153425441152924 l -4.386267570320001 10.036638588281049" fill="#ff750a" stroke="none" /><path d="M 108.4095320186766 80.7573450057729 l 12.189988249544008 -27.89307868127619 a51.44042791821241,51.44042791821241 0 0,0 0.8061121609168899,0.3605637162453793 l -12.66701381331653 27.67971121412096" fill="#93ff23" stroke="none" /><path d="M 108.73861861582097 80.90454125486305 l 9.74844470132525 -21.302110986556308 a44.42673913668651,44.42673913668651 0 0,0 0.6907538920959359,0.32330769970958534 l -10.11268730729269 21.131627055276187" fill="#e6ff1a" stroke="none" /><path d="M 109.3889696526874 81.21577127319529 l 13.507753557977253 -27.02455560134112 a51.21234866131769,51.21234866131769 0 0,0 0.7829948127267692,0.39980273043721065 l -13.969675592417602 26.788694919231077" fill="#96ff23" stroke="none" /><path d="M 109.71004243097381 81.37971332152246 l 11.182572566979772 -21.444057374645205 a45.18465476087769,45.18465476087769 0 0,0 0.6846791666540172,0.3645530915358341 l -11.549040549420349 21.2489338153868" fill="#dcff1b" stroke="none" /><path d="M 110.02825361518725 81.54914285379988 l 2.9092980896100147 -5.352780803809473 a27.092313001466657,27.092313001466657 0 0,0 0.40671472047649576,0.2255977994637689 l -3.0007569982426108 5.302050088912558" fill="#ff2f04" stroke="none" /><line stroke="#e1ed5e" stroke-width="0.3" x1="143.13028292997686" x2="145.6673583964461" y1="26.7553504044142" y2="22.446841604673864" /><path d="M 143.63769802327073 25.89364864446614 a86.0,86.0 0 0,1 29.32050498858742,28.57503671076993" fill="none" id="id38" stroke="none" /><text fill="#e1ed5e" style="font-size:6.75px; font-family:Arial;" text-anchor="middle"><textPath startOffset="20.669276256404974" xlink:href="#id38">February</textPath></text><path d="M 110.96478420261332 82.08984904055464 l 15.785257300517365 -25.784031492254165 a51.23227791677451,51.23227791677451 0 0,0 0.7461270643221096,0.465638471456079 l -16.225548493629187 25.509257223956542" fill="#96ff23" stroke="none" /><path d="M 111.27062007382361 82.28071324371311 l 12.73585794459687 -20.022884058684 a44.73010669197366,44.73010669197366 0 0,0 0.6443571402380485,0.41766451340019173 l -13.077700717091925 19.801305703579914" fill="#e2ff1b" stroke="none" /><path d="M 112.16784306229584 82.88440491214696 l 16.527056616559033 -23.247374871193863 a49.523394587754865,49.523394587754865 0 0,0 0.6886557928746421,0.49853368642086787 l -16.923693419807645 22.96024041339992" fill="#a9ff21" stroke="none" /><path d="M 114.39649973595853 84.71141617570332 l 20.793702021835088 -22.082190963698633 a51.331521582837254,51.331521582837254 0 0,0 0.6363336862100525,0.6095932769389008 l -21.169708193910452 21.72198555645415" fill="#94ff23" stroke="none" /><path d="M 114.91283532996326 85.21462403516908 l 21.573641600770173 -21.389252609596795 a51.379633623788564,51.379633623788564 0 0,0 0.6156092367514642,0.631669309120736 l -21.93763763867245 21.015760608408314" fill="#94ff23" stroke="none" /><path d="M 115.41159269507618 85.73525988315684 l 17.93254686209062 -16.598097658171305 a45.435078940557325,45.435078940557325 0 0,0 0.5248883149242857,0.5769442050008374 l -18.214832877856786 16.287815877612797" fill="#d9ff1c" stroke="none" /><path d="M 115.6541949942343 86.00192230759917 l 18.046764756100035 -16.137528326778444 a45.20961665660138,45.20961665660138 0 0,0 0.5123518365211697,0.5829623388316904 l -18.321127656579797 15.825353710135456" fill="#dcff1b" stroke="none" /><path d="M 117.01052211995028 87.68569379921539 l 8.21737412851709 -5.94874516322376 a31.144594944353376,31.144594944353376 0 0,0 0.3097921736321686,0.4357614885504319 l -8.318281400679219 5.806806447963824" fill="#ff6a09" stroke="none" /><path d="M 117.21940702142032 87.97951657250589 l 20.025675666357166 -13.979476887466191 a45.422396687084806,45.422396687084806 0 0,0 0.44083574396540304,0.6431925249813484 l -20.262701147137893 13.633649627414794" fill="#daff1c" stroke="none" /><path d="M 117.42321728460499 88.27688183743584 l 25.306998048274217 -17.02767770231738 a51.50222874068962,51.50222874068962 0 0,0 0.48724924723284313,0.7377574626468514 l -25.595571734427786 16.59074036133147" fill="#93ff23" stroke="none" /><line stroke="#e1ed5e" stroke-width="0.3" x1="172.87174338648825" x2="177.1583165268699" y1="56.24261187166439" y2="53.66864786411523" /><path d="M 173.72905801456457 55.72781907015455 a86.0,86.0 0 0,1 12.242430191666344,42.057860355516425" fill="none" id="id39" stroke="none" /><text fill="#e1ed5e" style="font-size:6.75px; font-family:Arial;" text-anchor="middle"><textPath startOffset="22.145653131862474" xlink:href="#id39">March</textPath></text><path d="M 118.18653347947321 89.5 l 22.72850336741995 -13.122307537457228 a47.24461507491445,47.24461507491445 0 0,0 0.3994793961768063,0.7058418156679789 l -22.950416128618134 12.73020895169013" fill="#c4ff1e" stroke="none" /><path d="M 118.36410011445183 89.81374322990088 l 37.26916476701954 -20.67257745045921 a63.61861214160411,63.61861214160411 0 0,0 0.5215352348188124,0.9595660903289056 l -37.6185453514537 20.029756526655703" fill="#33ff51" stroke="none" /><path d="M 119.0197475246899 91.09779779509293 l 29.36621013007437 -13.744869127750153 a53.42369079458201,53.42369079458201 0 0,0 0.38163731256988015,0.8339464025342825 l -29.597831907499305 13.238733743001186" fill="#7dff26" stroke="none" /><path d="M 119.16976305983485 91.42560881287824 l 4.799469622952352 -2.146741715557531 a26.257699939608315,26.257699939608315 0 0,0 0.18051058130688025,0.41304353573795316 l -4.835614086276203 2.0640361100437286" fill="#ff2303" stroke="none" /><path d="M 119.31412917781788 91.75594674310238 l 9.52496371401201 -4.0656406201588835 a31.356368446783428,31.356368446783428 0 0,0 0.20706275775050276,0.4968752400509914 l -9.593352316298997 3.9015328706666144" fill="#ff6d0a" stroke="none" /><path d="M 120.65975698304385 96.23510406497455 l 26.208555103721025 -4.776071792803451 a47.640180599890726,47.640180599890726 0 0,0 0.13971091509272324,0.805815431523924 l -26.286680836305983 4.325463328358935" fill="#bfff1e" stroke="none" /><path d="M 120.86939407059847 97.66154086499901 l 44.039604878377645 -4.9347295844475285 a65.3152158283726,65.3152158283726 0 0,0 0.11528946596673276,1.115321001055653 l -44.11782673682604 4.178004061108944" fill="#35ff66" stroke="none" /><path d="M 120.93736805541906 98.37931529534042 l 32.25172353609026 -2.496487375848664 a53.3482011905789,53.3482011905789 0 0,0 0.06283919887733463,0.913668160368061 l -32.28982669613266 1.9424757913262687" fill="#7eff26" stroke="none" /><path d="M 120.98066250479742 99.09900007780936 l 22.219965434796386 -0.9542209223971119 a43.24044517297904,43.24044517297904 0 0,0 0.025481621114821086,0.7418695958706184 l -22.233071742908056 0.5726450619623735" fill="#f4ff19" stroke="none" /><line stroke="#e1ed5e" stroke-width="0.3" x1="184.99686870605535" x2="189.99668451229388" y1="99.2704041080226" y2="99.22748670261217" /><path d="M 185.99683186730306 99.26182062694052 a86.0,86.0 0 0,1 -10.086455211305974,41.156179273409016" fill="none" id="id40" stroke="none" /><text fill="#e1ed5e" style="font-size:6.75px; font-family:Arial;" text-anchor="middle"><textPath startOffset="21.40746469413373" xlink:href="#id40">April</textPath></text><path d="M 120.99922638620191 99.81974689727618 l 22.76944271151426 -0.19544828083475083 a43.7702815402755,43.7702815402755 0 0,0 0.0,0.7514027671171526 l -22.76944271151426 -0.19544828083474805" fill="#eeff19" stroke="none" /><path d="M 120.99303781780057 100.54070618675476 l 26.571781808684957 0.6843948427926319 a47.58059413913094,47.58059413913094 0 0,0 -0.028039273587989976,0.816332856983165 l -26.556117848100122 -1.1404339643399075" fill="#c0ff1e" stroke="none" /><path d="M 120.9064616781168 101.97986365728391 l 22.14518942313391 2.0971724626374133 a43.24426997958186,43.24426997958186 0 0,0 -0.07633150604857195,0.7384380786597164 l -22.105925524603673 -2.477015063580061" fill="#f4ff19" stroke="none" /><path d="M 120.82617615685814 102.69636545807757 l 21.43407794270379 2.775070514873039 a42.61297558450522,42.61297558450522 0 0,0 -0.10015161957115615,0.7246472287433872 l -21.383281806577422 -3.142606051816511" fill="#fcff18" stroke="none" /><path d="M 120.77682067341334 103.0534771498775 l 23.924045246897343 3.5160107815492254 a45.18103125988554,45.18103125988554 0 0,0 -0.11936077133108289,0.766381775585514 l -23.860162983427994 -3.92618073906619" fill="#dcff1b" stroke="none" /><path d="M 120.65975698304385 103.76489593502545 l 19.866392529070225 3.620318503150987 a41.19356972363615,41.19356972363615 0 0,0 -0.13274864749199272,0.6945970179171845 l -19.801317589296072 -3.960818086101486" fill="#fff016" stroke="none" /><path d="M 120.51834098615036 104.47187691870673 l 21.684506724960027 4.7260373137547225 a43.19354096569177,43.19354096569177 0 0,0 -0.16411311523458516,0.7231126666255134 l -21.60018274816778 -5.097584314319253" fill="#f5ff19" stroke="none" /><path d="M 120.43855184770803 104.8234425847677 l 19.62292198793169 4.630956158705458 a41.16196474276019,41.16196474276019 0 0,0 -0.16820047657263207,0.686315342969726 l -19.54053398484276 -4.967127326283284" fill="#fff016" stroke="none" /><path d="M 120.35273937422433 105.17358676015961 l 23.178972204054112 5.89200409360483 a44.91611307623731,44.91611307623731 0 0,0 -0.19637007913156146,0.7456491755319994 l -23.07441264411782 -6.289033773509633" fill="#e0ff1b" stroke="none" /><path d="M 120.26092885502905 105.52220625578681 l 23.405170817030854 6.379183384353342 a45.25893653121675,45.25893653121675 0 0,0 -0.21073747910110782,0.7478329689956605 l -23.292214845855163 -6.780024277252012" fill="#dcff1b" stroke="none" /><path d="M 120.16314734710363 105.8691983318838 l 21.316083762574188 6.204801319351915 a43.200787967676064,43.200787967676064 0 0,0 -0.21337831936906085,0.7102670276423275 l -21.2064291232015 -6.569805950584966" fill="#f5ff19" stroke="none" /><path d="M 120.05942366710727 106.21446072829308 l 29.766762550595192 9.221819128454305 a52.162511143703455,52.162511143703455 0 0,0 -0.2723262730958114,0.853058171769812 l -29.604071561722126 -9.7314463339155" fill="#8bff24" stroke="none" /><path d="M 119.94978838288452 106.5578916946017 l 19.125742541361408 6.287011458862862 a41.13257412360164,41.13257412360164 0 0,0 -0.22625771235863298,0.668890723227497 l -19.01499940743041 -6.61440385656452" fill="#ffef16" stroke="none" /><path d="M 119.83427380445688 106.89939002012753 l 19.56238650166091 6.804813502630406 a41.71213297673482,41.71213297673482 0 0,0 -0.24105606500766505,0.6742767162091472 l -19.4426902666093 -7.139625175220474" fill="#fff717" stroke="none" /><path d="M 119.58574465831526 107.57618678355244 l 25.86030237532652 10.00332050134425 a48.727633508756796,48.727633508756796 0 0,0 -0.30847219830567635,0.7775514486845071 l -25.68477150205472 -10.445772967242322" fill="#b2ff20" stroke="none" /><path d="M 119.31412917781788 108.2440532568976 l 22.78948379966835 9.72747548760558 a45.778707617979464,45.778707617979464 0 0,0 -0.3147092526232408,0.7201163582314337 l -22.619140665028144 -10.117253915612856" fill="#d5ff1c" stroke="none" /><path d="M 119.16976305983485 108.57439118712176 l 11.06222803553521 4.94799389443479 a33.11839645702125,33.11839645702125 0 0,0 -0.23658447464964083,0.516979773809218 l -10.975659096030512 -5.137162650458697" fill="#ff850c" stroke="none" /><line stroke="#e1ed5e" stroke-width="0.3" x1="174.33088141563837" x2="178.70328620479359" y1="141.23008692659167" y2="143.65538615756765" /><path d="M 175.20536237346943 141.71514677278685 a86.0,86.0 0 0,1 -30.301960400862466,31.631185727798858" fill="none" id="id41" stroke="none" /><text fill="#e1ed5e" style="font-size:6.75px; font-family:Arial;" text-anchor="middle"><textPath startOffset="22.145653131862474" xlink:href="#id41">May</textPath></text><path d="M 118.36410011445183 110.18625677009912 l 34.63440516988959 19.211120716038124 a60.60567106663216,60.60567106663216 0 0,0 -0.5124545272344327,0.9054580471788248 l -34.29951727763378 -19.802835533316074" fill="#32ff2f" stroke="none" /><path d="M 117.21940702142032 112.02048342749411 l 21.769421443965122 15.19674686635832 a47.54898915825497,47.54898915825497 0 0,0 -0.4729650435867647,0.6652845648399144 l -21.505341301848397 -15.568208657907737" fill="#c0ff1e" stroke="none" /><path d="M 116.79662413953412 112.60449989151573 l 31.538411506584445 23.667011960913495 a60.4309377965663,60.4309377965663 0 0,0 -0.6297710115906459,0.8243904700932221 l -31.127488517639495 -24.204923344247597" fill="#34ff2f" stroke="none" /><path d="M 116.1254893667686 113.45245675266167 l 21.830832468581907 18.212056885753345 a49.42998878440169,49.42998878440169 0 0,0 -0.5491564337706318,0.6469048981475924 l -21.51498147130416 -18.584128566350493" fill="#aaff21" stroke="none" /><path d="M 115.41159269507618 114.26474011684316 l 18.67920077442602 17.289189372533276 a46.45247749690853,46.45247749690853 0 0,0 -0.5466885153266001,0.5805642583714148 l -18.37965642536316 -17.607295090849185" fill="#cdff1d" stroke="none" /><path d="M 114.91283532996324 114.78537596483092 l 14.651515119999843 14.526289247514702 a41.6320133436862,41.6320133436862 0 0,0 -0.5075300855828945,0.503192247669269 l -14.399993114286984 -14.775661505412632" fill="#fff617" stroke="none" /><path d="M 113.86319453409587 115.77377054828091 l 16.283030894407528 18.527100123081734 a45.66557386478014,45.66557386478014 0 0,0 -0.5932621723198602,0.5124457345524419 l -15.96258924232481 -18.803889990098895" fill="#d7ff1c" stroke="none" /><path d="M 113.59037401385872 116.0094264158162 l 18.248430771165822 21.49660556340684 a49.1976821096828,49.1976821096828 0 0,0 -0.648532433700208,0.5410288220480095 l -17.87672400330372 -21.806696569366718" fill="#adff20" stroke="none" /><path d="M 113.31354834802062 116.24036423190432 l 37.186786722436956 45.36183331443026 a79.65622753285595,79.65622753285595 0 0,0 -1.064924976964573,0.8578281793588683 l -36.40261097511713 -45.99350978758253" fill="#47fcff" stroke="none" /><path d="M 113.03279911837588 116.46651593811092 l 37.70028143248894 47.633074018922535 a81.74718891093664,81.74718891093664 0 0,0 -1.107830334194177,0.8614555685212685 l -36.87704115365953 -48.2732306390646" fill="#4ae7ff" stroke="none" /><path d="M 112.7482090630111 116.68781488649013 l 26.947469558783197 35.27510267784115 a65.39030282115434,65.39030282115434 0 0,0 -0.8978618272714161,0.6737722539020004 l -26.337954742601013 -35.73249395900716" fill="#35ff67" stroke="none" /><path d="M 112.45986205192187 116.90419585922612 l 25.719733268269895 34.89375779620504 a64.3483449803008,64.3483449803008 0 0,0 -0.8948066040597521,0.6477709758216532 l -25.116945653836176 -35.330129543399764" fill="#34ff5a" stroke="none" /><path d="M 112.16784306229584 117.11559508785304 l 36.50352918688752 51.346785263559106 a84.0,84.0 0 0,0 -1.1824196353049663,0.8254207367795119 l -35.616714460408794 -51.96585081614374" fill="#4dd2ff" stroke="none" /><path d="M 111.8722381534696 117.32195027204791 l 28.03215709789738 40.89975495699669 a70.5841888821787,70.5841888821787 0 0,0 -1.0053329950629466,0.6764329056643898 l -27.32592781473743 -41.3749375367182" fill="#3cffa3" stroke="none" /><path d="M 111.5731344415666 117.5232005979908 l 29.70370166692252 44.975190208012364 a74.89877203577487,74.89877203577487 0 0,0 -1.0789502222442287,0.6993624985519455 l -28.927265812421282 -45.4784665482682" fill="#41ffd2" stroke="none" /><path d="M 111.27062007382361 117.71928675628689 l 30.00636888374435 47.174995810644134 a76.90941247519628,76.90941247519628 0 0,0 -1.120078912791563,0.6990120822601461 l -29.192125842163072 -47.68314368974583" fill="#44ffe6" stroke="none" /><path d="M 110.96478420261333 117.91015095944535 l 21.318889658141426 34.822804079816535 a61.830414401978544,61.830414401978544 0 0,0 -0.9099883685776611,0.5464218692413917 l -20.717968533006328 -35.183639949593854" fill="#31ff3b" stroke="none" /><line stroke="#e1ed5e" stroke-width="0.3" x1="143.1302829299769" x2="145.66735839644613" y1="173.24464959558577" y2="177.55315839532614" /><path d="M 143.63769802327073 174.10635135553383 a86.0,86.0 0 0,1 -40.68552437913181,11.842963189579606" fill="none" id="id42" stroke="none" /><text fill="#e1ed5e" style="font-size:6.75px; font-family:Arial;" text-anchor="middle"><textPath startOffset="21.407464694133747" xlink:href="#id42">June</textPath></text><path d="M 109.71004243097381 118.62028667847754 l 14.443175010992961 27.696692487587892 a52.23639030282115,52.23639030282115 0 0,0 -0.7986515696276416,0.4077971820696044 l -13.965596219651738 -27.940547621330335" fill="#8aff24" stroke="none" /><path d="M 109.3889696526874 118.78422872680471 l 10.458109219825433 20.92322404928396 a44.39130934920772,44.39130934920772 0 0,0 -0.6845557406941807,0.3348505162991456 l -10.097393229869184 -21.099668315680326" fill="#e6ff1a" stroke="none" /><path d="M 108.73861861582097 119.09545874513695 l 18.643961223255676 40.74041997210623 a65.80378454548068,65.80378454548068 0 0,0 -1.031197311204463,0.46124144100148184 l -17.941850509195586 -41.054465164017564" fill="#36ff6c" stroke="none" /><path d="M 108.07796709384702 119.3841803445677 l 8.94640334186986 21.468111196707056 a44.257642423719545,44.257642423719545 0 0,0 -0.7037924878871346,0.28622627785229027 l -8.576556392792284 -21.61852473113864" fill="#e8ff1a" stroke="none" /><path d="M 107.407793817531 119.65005319985036 l 12.241936897144871 32.4731920492739 a55.704080752307824,55.704080752307824 0 0,0 -0.8976602487483574,0.3296332772304233 l -11.682687496742387 -32.67855617551304" fill="#64ff29" stroke="none" /><path d="M 106.72888874123015 119.89276391827305 l 7.750551801385477 22.913129217993397 a45.18847956748051,45.18847956748051 0 0,0 -0.7369536558158107,0.2422513044262208 l -7.3560754079219315 -23.042801443821634" fill="#dcff1b" stroke="none" /><path d="M 106.0420521117495 120.11202640906438 l 6.505519945971644 21.654760094446086 a43.61084749662094,43.61084749662094 0 0,0 -0.7188313434527622,0.2092413277188474 l -6.132828590137274 -21.763245116467452" fill="#f0ff19" stroke="none" /><path d="M 105.69591212413111 120.21278271476187 l 5.544066998917019 19.673937933564265 a41.440169096712964,41.440169096712964 0 0,0 -0.6863648362022878,0.1870717882357897 l -5.205520761780036 -19.766210215944195" fill="#fff316" stroke="none" /><path d="M 103.94208987418118 120.62667999033965 l 5.774506596819615 30.214658588788257 a51.76151036723895,51.76151036723895 0 0,0 -0.874190946009358,0.15930671119549078 l -5.2549809172592 -30.30933347391511" fill="#90ff24" stroke="none" /><path d="M 103.58742460773223 120.69131181640829 l 3.492339062046599 20.14288365689402 a41.443389986483766,41.443389986483766 0 0,0 -0.7020164841874907,0.11551654532444508 l -3.146045074806036 -20.199866200714137" fill="#fff316" stroke="none" /><path d="M 103.2317021107853 120.74984581791261 l 3.1356980766081786 20.13343104984821 a41.37615391251833,41.37615391251833 0 0,0 -0.7027540631956013,0.103280646624498 l -2.7896189078048916 -20.184292769771588" fill="#fff216" stroke="none" /><path d="M 102.51750503828377 120.84855314841334 l 2.606265317147709 21.583615586510565 a42.74040203606246,42.74040203606246 0 0,0 -0.7291596000318705,0.08170385406495438 l -2.2353698155150394 -21.62517520108249" fill="#faff18" stroke="none" /><path d="M 102.15924093988457 120.88869738790638 l 2.121838852265134 20.526866118627073 a41.636240761510365,41.636240761510365 0 0,0 -0.7115840470625092,0.06738774908796431 l -1.7691552418176095 -20.56026562322022" fill="#fff617" stroke="none" /><path d="M 101.44090949804482 120.95050786540614 l 1.58740520962433 23.08052336038305 a44.13504730681851,44.13504730681851 0 0,0 -0.7562974305837844,0.04549697537172791 l -1.1909634269080804 -23.10437231357947" fill="#e9ff1a" stroke="none" /><path d="M 101.08105385017728 120.97215588758144 l 1.2795563904637663 24.823052138759294 a45.85600897247865,45.85600897247865 0 0,0 -0.7864834835020967,0.033774984811728415 l -0.8532471463608401 -24.841359691996853" fill="#d4ff1c" stroke="none" /><path d="M 100.72087961077811 120.9876233191556 l 0.6991880579619175 20.35609742647231 a41.368101688091336,41.368101688091336 0 0,0 -0.7099291938359859,0.018285257740997148 l -0.3496455500551877 -20.36510040156335" fill="#fff216" stroke="none" /><line stroke="#e1ed5e" stroke-width="0.3" x1="101.45913802915013" x2="101.54496967792366" y1="184.9874750549273" y2="189.98673829345242" /><path d="M 101.47630435890484 185.9873277026323 a86.0,86.0 0 0,1 -42.54439059252881,-10.42667462771756" fill="none" id="id43" stroke="none" /><text fill="#e1ed5e" style="font-size:6.75px; font-family:Arial;" text-anchor="middle"><textPath startOffset="22.145653131862474" xlink:href="#id43">July</textPath></text><path d="M 99.63950707515114 120.99690560180557 l -0.3668306392074304 21.366045690128033 a42.36919448997786,42.36919448997786 0 0,0 -0.7271092184635818,-0.01872775423365654 l 0.7335531717417562 -21.35660021854433" fill="#ffff18" stroke="none" /><path d="M 99.27912038922189 120.98762331915562 l -1.1950117617257505 34.79146357044161 a55.81198055962959,55.81198055962959 0 0,0 -0.9572398879726363,-0.041107999539288356 l 1.7920774102992254 -34.765823002476495" fill="#63ff29" stroke="none" /><path d="M 98.19965949673042 120.92268563240118 l -2.65656317975914 30.873291008989536 a51.98737526241624,51.98737526241624 0 0,0 -0.8884900800070593,-0.08414093433632229 l 3.186152823151214 -30.823138319148033" fill="#8dff24" stroke="none" /><path d="M 96.76829788921471 120.74984581791261 l -4.361042887141255 28.00102373652768 a49.33859603715526,49.33859603715526 0 0,0 -0.8357546941996712,-0.1375231168885932 l 4.84107508439399 -27.922034621143418" fill="#abff21" stroke="none" /><path d="M 96.05791012581884 120.62667999033965 l -4.333128381241503 22.672758696424214 a44.083110459264375,44.083110459264375 0 0,0 -0.742073070289378,-0.14843539702630026 l 4.721697937061839 -22.595033902735054" fill="#eaff1a" stroke="none" /><path d="M 95.35216902796893 120.47920084513623 l -5.110658147688999 22.51850277843003 a44.09116268369137,44.09116268369137 0 0,0 -0.7366748233300484,-0.17385325244434266 l 5.496465124758935 -22.42745338233946" fill="#eaff1a" stroke="none" /><path d="M 95.00130118170881 120.39639698878247 l -4.904972316996337 20.013960879252476 a41.6062462255198,41.6062462255198 0 0,0 -0.6922381999980087,-0.17596424346307163 l 5.247815810219723 -19.92681140395414" fill="#fff517" stroke="none" /><path d="M 94.6519064749342 120.30758222061772 l -5.88839354386074 22.35918939690478 a44.12155983090328,44.12155983090328 0 0,0 -0.7307761489981337,-0.19917628902662854 l 6.271351093793569 -22.25481261373401" fill="#e9ff1a" stroke="none" /><path d="M 94.30408787586889 120.21278271476187 l -7.789310937762253 27.641516591466686 a49.71805711327754,49.71805711327754 0 0,0 -0.8194956035047835,-0.23854322672335065 l 8.262666553648643 -27.50372967044082" fill="#a7ff21" stroke="none" /><path d="M 93.27111125876986 119.89276391827306 l -13.867952076786151 40.99813614142153 a64.28010237828201,64.28010237828201 0 0,0 -1.042238277721909,-0.36254457525405703 l 14.569696126553083 -40.75403313359889" fill="#34ff59" stroke="none" /><path d="M 92.93061703081489 119.77432235084164 l -8.142879605606675 22.7770835003895 a45.18888217870187,45.18888217870187 0 0,0 -0.7282099025665033,-0.26740876298058497 l 8.532678659827296 -22.633943888400196" fill="#dcff1b" stroke="none" /><path d="M 92.25597844496254 119.51999308798841 l -8.925604882058725 22.498354939439356 a45.20418140511316,45.20418140511316 0 0,0 -0.718844510275027,-0.29234780431980023 l 9.310503853524192 -22.341819878540264" fill="#dcff1b" stroke="none" /><path d="M 91.92203290615298 119.3841803445677 l -9.89088099832412 23.734513747179104 a46.71296695712191,46.71296695712191 0 0,0 -0.7375419703668694,-0.31481281019311275 l 10.29685804386142 -23.561226287326587" fill="#caff1d" stroke="none" /><path d="M 91.59046798132341 119.24265499422711 l -9.764324483192915 22.34268528432747 a45.38314209300319,45.38314209300319 0 0,0 -0.7111897047193146,-0.3181061089531021 l 10.146427590767864 -22.171775424464514" fill="#daff1c" stroke="none" /><path d="M 90.93487009805054 118.94263497670748 l -9.715910275953236 20.302515663260866 a43.50757771834469,43.50757771834469 0 0,0 -0.6709277677866613,-0.3281843918436515 l 10.062998293001966 -20.132737521319992" fill="#f1ff19" stroke="none" /><path d="M 90.28995756902619 118.62028667847754 l -10.69743811256365 20.513748090926757 a44.13544991803986,44.13544991803986 0 0,0 -0.6687806563910645,-0.3560880303079662 l 11.048007584741276 -20.32708959289622" fill="#e9ff1a" stroke="none" /><path d="M 89.97174638481275 118.45085714620012 l -15.42637431714207 28.382791234791082 a53.30411526184108,53.30411526184108 0 0,0 -0.8002110538805901,-0.4438635824406462 l 15.911329559178764 -28.11379473691729" fill="#7eff26" stroke="none" /><line stroke="#e1ed5e" stroke-width="0.3" x1="58.13341422392154" x2="55.67067388415222" y1="173.97424548756322" y2="178.32567169271397" /><path d="M 57.64086615596768 174.84453072859336 a86.0,86.0 0 0,1 -31.369924170532247,-30.572349798747897" fill="none" id="id44" stroke="none" /><text fill="#e1ed5e" style="font-size:6.75px; font-family:Arial;" text-anchor="middle"><textPath startOffset="22.145653131862474" xlink:href="#id44">August</textPath></text><path d="M 89.65649057296885 118.27599006163327 l -12.616089072805686 22.29142054134103 a46.61392459666983,46.61392459666983 0 0,0 -0.6930103981746524,-0.40010973993734833 l 12.996891938840738 -22.071563904127512" fill="#cbff1d" stroke="none" /><path d="M 89.03521579738668 117.91015095944536 l -15.0612718943344 24.601455740869856 a49.84568487044545,49.84568487044545 0 0,0 -0.7259332599250538,-0.453036043984995 l 15.481369283049165 -24.339283900043313" fill="#a5ff21" stroke="none" /><path d="M 88.72937992617639 117.7192867562869 l -11.349381201075762 17.843112330202803 a42.14675179018204,42.14675179018204 0 0,0 -0.6071427604870316,-0.39354260205696645 l 11.654009593819803 -17.645655886441943" fill="#fffc17" stroke="none" /><path d="M 88.4268655584334 117.5232005979908 l -15.098248245195643 22.860672189945827 a48.396485779196496,48.396485779196496 0 0,0 -0.6893127876008643,-0.46380040655015214 l 15.488457320893513 -22.598122109338554" fill="#b6ff1f" stroke="none" /><path d="M 87.83215693770417 117.11559508785305 l -16.90205652496766 23.774859204895762 a50.17059212607482,50.17059212607482 0 0,0 -0.6976555057903254,-0.5050487845337512 l 17.307693041131937 -23.481209648988944" fill="#a2ff22" stroke="none" /><path d="M 87.54013794807813 116.9041958592261 l -22.596257654816856 30.656163245695335 a59.08400195554022,59.08400195554022 0 0,0 -0.8112712079557362,-0.6087930388702208 l 23.119181851683358 -30.2637511795611" fill="#41ff2d" stroke="none" /><path d="M 87.2517909369889 116.68781488649013 l -14.676467489618455 19.2119670648462 a45.176401230840014,45.176401230840014 0 0,0 -0.6122264060698047,-0.47607095637819047 l 15.004103840323488 -18.957195056847215" fill="#ddff1b" stroke="none" /><path d="M 86.68645165197938 116.24036423190432 l -6.66372965081671 8.128666666711265 a31.51097115578178,31.51097115578178 0 0,0 -0.41538312244784215,-0.34652737435868075 l 6.802287107426444 -8.013077108440713" fill="#ff6f0a" stroke="none" /><path d="M 86.40962598614128 116.0094264158162 l -28.084740639630585 33.08375385540898 a64.39685963247348,64.39685963247348 0 0,0 -0.8366087974556824,-0.7226427534875257 l 28.648528916849127 -32.59676696945673" fill="#34ff5b" stroke="none" /><path d="M 86.13680546590413 115.77377054828092 l -6.709334852164014 7.633991446151314 a31.163316366146148,31.163316366146148 0 0,0 -0.398793951797671,-0.3566040107830129 l 6.839393830785056 -7.517691905484919" fill="#ff6a09" stroke="none" /><path d="M 85.86807049272751 115.53346607816431 l -17.32857767858461 19.047142388773523 a46.75020849509677,46.75020849509677 0 0,0 -0.588986350127022,-0.5451569726219324 l 17.6529938000256 -18.746867670019213" fill="#caff1d" stroke="none" /><path d="M 85.60350026404147 115.28858382429668 l -13.941498637122692 14.805388424909168 a41.336295401604694,41.336295401604694 0 0,0 -0.5124273821636564,-0.4908938405364448 l 14.193598505151662 -14.56388245406714" fill="#fff216" stroke="none" /><path d="M 85.34317274990678 115.03919595460226 l -16.558776755787395 16.99076370005085 a44.725074051706784,44.725074051706784 0 0,0 -0.5452371585725091,-0.5405770399203174 l 16.848005834489868 -16.70400664990187" fill="#e2ff1b" stroke="none" /><path d="M 85.08716467003676 114.78537596483092 l -2.0626856179223303 2.0450559322515103 a23.904638656428837,23.904638656428837 0 0,0 -0.2864153618894322,-0.2938873931147761 l 2.097487780962572 -2.009345847068997" fill="#ff0000" stroke="none" /><path d="M 84.83555147118756 114.52719865689866 l -12.841643258038237 12.302003751477946 a38.78333764702499,38.78333764702499 0 0,0 -0.4564321736999707,-0.48471515130086057 l 13.05093126547446 -12.079747140232596" fill="#ffd113" stroke="none" /><path d="M 84.58840730492382 114.26474011684316 l -16.32592610691704 15.111033472637803 a43.24588042446726,43.24588042446726 0 0,0 -0.4995976200044237,-0.5491453010062554 l 16.582921427763345 -14.828550596073873" fill="#f4ff19" stroke="none" /><path d="M 84.1078160697243 113.72728997021213 l -16.770436601007212 14.485903709591076 a43.16052684554108,43.16052684554108 0 0,0 -0.4795040740458078,-0.5648545935301162 l 17.01663523856013 -14.195882333611404" fill="#f5ff19" stroke="none" /><path d="M 83.8745106332314 113.45245675266167 l -19.508133792165676 16.274379040245876 a46.40517067839991,46.40517067839991 0 0,0 -0.505049969634408,-0.616078842977609 l 19.784630581038716 -15.937097915569773" fill="#ceff1d" stroke="none" /><path d="M 83.64595745247003 113.17365903436017 l -17.812469658791308 14.348464678553974 a43.872746096109054,43.872746096109054 0 0,0 -0.46741933722090334,-0.5905690631935756 l 18.056155426653774 -14.040575671445719" fill="#ecff1a" stroke="none" /><path d="M 83.20337586046588 112.60449989151573 l -21.092749728267226 15.82839262539376 a47.37123630402899,47.37123630402899 0 0,0 -0.4825053226309016,-0.6546111379791528 l 21.361357070481954 -15.463975178145729" fill="#c2ff1e" stroke="none" /><path d="M 82.98947788004972 112.3143062007846 l -8.353857482598311 6.047548586282425 a31.313087740488314,31.313087740488314 0 0,0 -0.311468154637838,-0.43811896572375747 l 8.45644073576611 -5.903252393849164" fill="#ff6c09" stroke="none" /><path d="M 82.78059297857968 112.02048342749411 l -18.93426643864571 13.2175884834114 a44.09136398930204,44.09136398930204 0 0,0 -0.42791773803956906,-0.6243447682762673 l 19.158373913500604 -12.890608980065084" fill="#eaff1a" stroke="none" /><path d="M 82.37810715431573 111.42229804090323 l -17.8244316882918 11.553581271676547 a42.241365427199256,42.241365427199256 0 0,0 -0.38918842341565896,-0.6118688440883396 l 18.02013780333335 -11.245898752909534" fill="#fffd17" stroke="none" /><path d="M 81.99639281039703 110.81064883170644 l -21.48821529325882 12.903055877028827 a46.064561585137895,46.064561585137895 0 0,0 -0.40125806406038067,-0.6814239161663095 l 21.70654706744897 -12.532280792568958" fill="#d2ff1c" stroke="none" /><line stroke="#e1ed5e" stroke-width="0.3" x1="26.387840678322732" x2="22.057713659400548" y1="142.50000000000003" y2="145.00000000000006" /><path d="M 25.521815274538298 143.00000000000003 a86.0,86.0 0 0,1 -11.493303480769221,-40.785679425670985" fill="none" id="id45" stroke="none" /><text fill="#e1ed5e" style="font-size:6.75px; font-family:Arial;" text-anchor="middle"><textPath startOffset="21.40746469413373" xlink:href="#id45">September</textPath></text><path d="M 81.81346652052679 110.50000000000001 l -21.79894502701645 12.585626779397817 a46.17125355879561,46.17125355879561 0 0,0 -0.3904035298657166,-0.6898056295289983 l 22.011781921903548 -12.209564379769697" fill="#d1ff1d" stroke="none" /><path d="M 81.4637452351635 109.86951160357371 l -24.91330637820719 13.26493239883304 a49.22465706151324,49.22465706151324 0 0,0 -0.39073110188712107,-0.7492784076954843 l 25.137345549069256 -12.83530774803305" fill="#adff20" stroke="none" /><path d="M 80.83023694016515 108.57439118712176 l -39.86805006192091 17.832471691572866 a64.67446006959422,64.67446006959422 0 0,0 -0.44460955870933005,-1.0173536798930587 l 40.16829350264721 -17.145455941903958" fill="#34ff5e" stroke="none" /><path d="M 80.68587082218212 108.24405325689762 l -19.253031366022512 8.21797423414264 a41.93356914847726,41.93356914847726 0 0,0 -0.2769096327255224,-0.6644823131290135 l 19.39126684328452 -7.886259411572344" fill="#fff917" stroke="none" /><path d="M 80.5471966667186 107.91128576633889 l -20.57164860595164 8.366310398458005 a43.20783366404969,43.20783366404969 0 0,0 -0.2735288885305743,-0.6894714813918342 l 20.71223616944834 -8.011937899852605" fill="#f5ff19" stroke="none" /><path d="M 80.41425534168474 107.57618678355246 l -30.281781556523846 11.713643632822336 a53.46838064015184,53.46838064015184 0 0,0 -0.3237874954075029,-0.8588847998369765 l 30.478399735745782 -11.192090552791214" fill="#7dff26" stroke="none" /><path d="M 80.28708602549918 107.23885506374661 l -24.01570686169668 8.818900211816567 a46.583728755068584,46.583728755068584 0 0,0 -0.26920920954448546,-0.7530260720846991 l 24.163556241285104 -8.405339183350947" fill="#ccff1d" stroke="none" /><path d="M 80.05021161711548 106.5578916946017 l -37.71735650640023 12.398444245546909 a60.70290167658816,60.70290167658816 0 0,0 -0.3169133275456236,-0.9927264847870053 l 37.92463454972311 -11.74914872706851" fill="#31ff2f" stroke="none" /><path d="M 79.94057633289273 106.21446072829308 l -22.219024384189304 6.883510550851384 a44.26086331349035,44.26086331349035 0 0,0 -0.21861426774721715,-0.7276957968932909 l 22.33391497194015 -6.50107715036737" fill="#e8ff1a" stroke="none" /><path d="M 79.83685265289637 105.86919833188381 l -29.026744688369167 8.449262338474433 a51.23147269433181,51.23147269433181 0 0,0 -0.23854717396628564,-0.8465197653196754 l 29.167510354410027 -7.949734649251763" fill="#96ff23" stroke="none" /><path d="M 79.73907114497094 105.5222062557868 l -27.85380026540019 7.591677122682853 a49.86984154372645,49.86984154372645 0 0,0 -0.21802743068167812,-0.8278856669515319 l 27.980017176886598 -7.112410951358519" fill="#a5ff21" stroke="none" /><path d="M 79.56144815229197 104.8234425847677 l -20.97244360074443 4.949439584772419 a42.54855778908923,42.54855778908923 0 0,0 -0.16166251275977486,-0.7123148599549993 l 21.05431697506187 -4.588690390878393" fill="#fdff18" stroke="none" /><path d="M 79.48165901384964 104.47187691870673 l -25.352942750350334 5.525555871359761 a46.94809191039025,46.94809191039025 0 0,0 -0.1648599890428668,-0.7889147275579661 l 25.444060450217567 -5.0895246925163855" fill="#c7ff1e" stroke="none" /><path d="M 79.407916724674 104.11899336999214 l -24.359767910686262 4.872635817226487 a45.84232019095275,45.84232019095275 0 0,0 -0.1477295132243006,-0.7729832377398982 l 24.43982371619272 -4.4537500144532745" fill="#d4ff1c" stroke="none" /><path d="M 79.2786578344484 103.40968896794605 l -32.273720342166754 5.3106284007125995 a53.70773301124435,53.70773301124435 0 0,0 -0.1418868994333404,-0.9110156771559824 l 32.360128733738364 -4.755824541625167" fill="#7aff26" stroke="none" /><path d="M 79.22317932658666 103.0534771498775 l -32.07950353287525 4.714582300957816 a53.42409340580335,53.42409340580335 0 0,0 -0.12556056941156696,-0.9084937323344325 l 32.15570861884203 -4.163200260423298" fill="#7dff26" stroke="none" /><path d="M 79.17382384314188 102.69636545807758 l -25.790407948923182 3.3390846509432843 a47.00566531504328,47.00566531504328 0 0,0 -0.09673746613775096,-0.8011249922226878 l 25.843927501320593 -2.895865981797197" fill="#c7ff1e" stroke="none" /><path d="M 79.03789590574601 101.26102812881392 l -24.22822090852564 1.4575096058769785 a45.27202139591061,45.27202139591061 0 0,0 -0.040008417104577865,-0.7761526034942843 l 24.24967091508679 -1.0413852090059634" fill="#dbff1b" stroke="none" /><path d="M 79.01933749520258 100.90099992219065 l -23.12621324436719 0.9931391026844214 a44.14752825468035,44.14752825468035 0 0,0 -0.026016165736531437,-0.7574322792923736 l 23.13985409710057 -0.596000558827928" fill="#e9ff1a" stroke="none" /><line stroke="#e1ed5e" stroke-width="0.3" x1="15.003131293944662" x2="10.003315487706104" y1="100.72959589197737" y2="100.7725132973878" /><path d="M 14.003168132696942 100.73817937305945 a86.0,86.0 0 0,1 10.791469493833604,-42.45332614584628" fill="none" id="id46" stroke="none" /><text fill="#e1ed5e" style="font-size:6.75px; font-family:Arial;" text-anchor="middle"><textPath startOffset="22.145653131862435" xlink:href="#id46">October</textPath></text><path d="M 79.00696218219943 99.45929381324524 l -46.74819228664682 -1.2040676060497568 a67.763695971012,67.763695971012 0 0,0 0.03993318799483507,-1.162611197539807 l 46.72063441165513 2.0063850681537025" fill="#38ff83" stroke="none" /><path d="M 79.01933749520258 99.09900007780938 l -23.91078330764631 -1.0268319169988087 a44.93282144192332,44.93282144192332 0 0,0 0.03970865462827772,-0.7703372915361941 l 23.88963306356146 1.4371410019117148" fill="#dfff1b" stroke="none" /><path d="M 79.03789590574601 98.7389718711861 l -33.47036295082972 -2.0134939208787155 a54.53087165329423,54.53087165329423 0 0,0 0.06423227423422906,-0.9339231703192279 l 33.430866715430426 2.5877605153522683" fill="#71ff27" stroke="none" /><path d="M 79.06263194458094 98.37931529534042 l -34.24994472647506 -2.651162333618507 a55.35239985045869,55.35239985045869 0 0,0 0.08146391211255538,-0.9467341430252515 l 34.199387191664755 3.238717524019439" fill="#68ff28" stroke="none" /><path d="M 79.0935383218832 98.0201363427161 l -34.63848321000039 -3.280300373482232 a55.79346044344751,55.79346044344751 0 0,0 0.09848238541940628,-0.9527277429146414 l 34.57706843209932 3.874432638679786" fill="#64ff29" stroke="none" /><path d="M 79.22317932658666 96.9465228501225 l -23.57849185903538 -3.4652263333179616 a44.83176602536451,44.83176602536451 0 0,0 0.11843807066159694,-0.7604573753866164 l 23.515532296235516 3.8694718906360284" fill="#e1ff1b" stroke="none" /><path d="M 79.34024301695615 96.23510406497455 l -45.886409699645235 -8.362032404006229 a67.64210738216431,67.64210738216431 0 0,0 0.21798058116187555,-1.1405665104650229 l 45.7361028262012 9.148501479504565" fill="#38ff81" stroke="none" /><path d="M 79.407916724674 95.88100663000787 l -23.013136979558915 -4.603271916402215 a44.46901331492825,44.46901331492825 0 0,0 0.15615461139164388,-0.7472563441146797 l 22.930724657342903 4.9976447118023035" fill="#e5ff1a" stroke="none" /><path d="M 79.48165901384962 95.52812308129327 l -20.263826149581014 -4.416406594673646 a41.739510539786615,41.739510539786615 0 0,0 0.158588551665451,-0.6987704201895175 l 20.1850267363579 4.763611348802172" fill="#fff717" stroke="none" /><path d="M 79.94057633289273 93.78553927170692 l -22.865308598427823 -7.083731052464631 a44.93745147096885,44.93745147096885 0 0,0 0.2346062030602563,-0.7349005896248108 l 22.740337679590308 7.475200675780833" fill="#dfff1b" stroke="none" /><path d="M 80.05021161711548 93.44210830539832 l -22.30201949236103 -7.331116781533122 a44.47605901130187,44.47605901130187 0 0,0 0.24464920032443585,-0.7232618894451411 l 22.172884870464227 7.712880345452425" fill="#e5ff1a" stroke="none" /><path d="M 80.16572619554312 93.10060997987247 l -13.346054078643837 -4.64245039803709 a35.13044603571736,35.13044603571736 0 0,0 0.20302023605595654,-0.5678837331367848 l 13.264393672543937 4.870869087554796" fill="#ffa10e" stroke="none" /><path d="M 80.28708602549916 92.7611449362534 l -14.129109537796825 -5.188404730838422 a36.05162051016593,36.05162051016593 0 0,0 0.21831713941234557,-0.5791121499277292 l 14.037961714570045 5.430185160960296" fill="#ffad10" stroke="none" /><path d="M 81.29705330413844 90.45014215332179 l -18.47292262919306 -9.432405919250918 a41.74172490150404,41.74172490150404 0 0,0 0.3313337489594545,-0.635376151622132 l 18.308280811258665 9.748128313977537" fill="#fff717" stroke="none" /><path d="M 81.63589988554816 89.8137432299009 l -23.00815656744079 -12.76223659977524 a47.31064331521583,47.31064331521583 0 0,0 0.4000377015312923,-0.7068282877335709 l 22.78568550088813 13.155321657607917" fill="#c3ff1e" stroke="none" /><line stroke="#e1ed5e" stroke-width="0.3" x1="26.387840678322718" x2="22.05771365940052" y1="57.49999999999999" y2="54.99999999999999" /><path d="M 25.521815274538284 56.99999999999999 a86.0,86.0 0 0,1 29.574782752854787,-30.34633250058573" fill="none" id="id47" stroke="none" /><text fill="#e1ed5e" style="font-size:6.75px; font-family:Arial;" text-anchor="middle"><textPath startOffset="21.40746469413373" xlink:href="#id47">November</textPath></text><path d="M 81.81346652052679 89.5 l -18.405150538525337 -10.626218617893192 a42.25243723578638,42.25243723578638 0 0,0 0.3680515038817506,-0.6250319173355324 l 18.22002532451381 10.940601703522297" fill="#fffd18" stroke="none" /><path d="M 81.99639281039701 89.18935116829357 l -17.39956933299383 -10.447941454229912 a41.295430362637674,41.295430362637674 0 0,0 0.37014871027856466,-0.6046101004845089 l 17.217652658259873 10.745088670838964" fill="#fff116" stroke="none" /><path d="M 82.18462484594161 88.88188828441811 l -20.155202558325623 -12.578337068731242 a44.75808817185748,44.75808817185748 0 0,0 0.41237610561442556,-0.648323731876444 l 19.936308761085307 12.922474475286359" fill="#e2ff1b" stroke="none" /><path d="M 82.37810715431573 88.57770195909679 l -17.151272982878105 -11.117247931700131 a41.43916256865959,41.43916256865959 0 0,0 0.392045184475408,-0.593606377401505 l 16.957903359481968 11.410034187440697" fill="#fff316" stroke="none" /><path d="M 82.576782715395 88.27688183743585 l -20.376941895445203 -13.710515901278546 a45.560089724786465,45.560089724786465 0 0,0 0.44217208940603175,-0.6451422929163865 l 20.138580069223856 14.058292929264967" fill="#d8ff1c" stroke="none" /><path d="M 82.78059297857968 87.97951657250589 l -11.068923168765071 -7.726968027692947 a34.499151640640726,34.499151640640726 0 0,0 0.34315961386927535,-0.4826969719629457 l 10.934648456365823 7.915842226365413" fill="#ff980e" stroke="none" /><path d="M 83.64595745247003 86.82634096563983 l -16.360470099025378 -13.17883661486237 a42.00825353003768,42.00825353003768 0 0,0 0.4571961886914364,-0.5577050111431303 l 16.131827091095314 13.457743907703993" fill="#fffa17" stroke="none" /><path d="M 83.8745106332314 86.54754324733833 l -21.91229541297638 -18.280016171297227 a49.536076841227384,49.536076841227384 0 0,0 0.5503350490279844,-0.6482933039571678 l 21.595265800441283 18.65347625770395" fill="#a9ff21" stroke="none" /><path d="M 84.34580500576568 86.00192230759919 l -18.137551554013292 -16.218710441291634 a45.33140655105973,45.33140655105973 0 0,0 0.5236906406361521,-0.5756277511565268 l 17.856463212535274 16.527675768005818" fill="#dbff1b" stroke="none" /><path d="M 84.58840730492382 85.73525988315684 l -24.10270923816647 -22.309107838291467 a53.84260777039657,53.84260777039657 0 0,0 0.6336612574704573,-0.6729262965808859 l 23.71619214695974 22.719575594816867" fill="#79ff26" stroke="none" /><path d="M 85.08716467003674 85.21462403516908 l -30.777030614689348 -30.513980651619963 a64.33968883904178,64.33968883904178 0 0,0 0.7843561999579938,-0.7776523410959962 l 30.24868249460138 31.037813002944635" fill="#34ff5a" stroke="none" /><path d="M 86.13680546590413 84.22622945171909 l -20.63498877938123 -23.47882931829165 a52.257930003163374,52.257930003163374 0 0,0 0.6789064595228417,-0.5864232300235186 l 20.228902840095543 23.82959668077988" fill="#8aff24" stroke="none" /><path d="M 86.96720088162412 83.53348406188908 l -26.678765330694258 -33.707748468829585 a63.98800793719264,63.98800793719264 0 0,0 0.8671595581679076,-0.6743085173990631 l 26.09619582789111 34.160758037849455" fill="#33ff56" stroke="none" /><path d="M 87.83215693770416 82.88440491214696 l -24.908508690748715 -35.03693685154122 a63.98861185402468,63.98861185402468 0 0,0 0.9007308463345848,-0.628780085024358 l 24.303382753240363 35.459361752370704" fill="#33ff56" stroke="none" /><line stroke="#e1ed5e" stroke-width="0.3" x1="56.869717070023135" x2="54.33264160355391" y1="26.7553504044142" y2="22.446841604673864" /><path d="M 56.362301976729285 25.89364864446614 a86.0,86.0 0 0,1 42.16139366436587,-11.88097634709845" fill="none" id="id48" stroke="none" /><text fill="#e1ed5e" style="font-size:6.75px; font-family:Arial;" text-anchor="middle"><textPath startOffset="22.145653131862474" xlink:href="#id48">December</textPath></text></svg>