<?xml version="1.0" encoding="utf-8" ?>
<svg baseProfile="full" height="200mm" version="1.1" viewBox="0,0,200,200" width="200mm" xmlns="http://www.w3.org/2000/svg" xmlns:ev="http://www.w3.org/2001/xml-events" xmlns:xlink="http://www.w3.org/1999/xlink"><defs /><rect fill="#1a1a1a" height="200" width="200" x="0" y="0" /><text alignment-baseline="middle" fill="#e1ed5e" style="dominant-baseline: central; font-size:9.0px; font-family:Arial;" text-anchor="middle" x="100.0" y="100.0">2024</text><line stroke="#e1ed5e" stroke-width="0.3" x1="100.0" x2="100.0" y1="15.0" y2="10.0" /><path d="M 100.0 14.0 a86.0,86.0 0 0,1 42.35913384403234,11.155469271406648" fill="none" id="id37" stroke="none" /><text fill="#e1ed5e" style="font-size:6.75px; font-family:Arial;" text-anchor="middle"><textPath startOffset="22.145653131862478" xlink:href="#id37">January</textPath></text><path d="M 100.0 79.0 l 0.0 -63.0 a84.0,84.0 0 0,0 1.441971699395419,0.012377592777739643 l -1.0814787745465644 62.990716805416696" fill="#4dd2ff" stroke="none" /><path d="M 100.36049292484886 79.00309439819443 l 0.5515744731848963 -32.12644783717922 a53.13118244065205,53.13118244065205 0 0,0 0.91179860758521,0.02348469775906918 l -1.1029863948408476 32.1122454220701" fill="#9bff22" stroke="none" /><path d="M 100.72087961077811 79.0123766808444 l 1.1288157636066494 -32.86423931137303 a53.88361979076153,53.88361979076153 0 0,0 0.924166274962441,0.03968767628962603 l -1.6928077991699266 32.84001906665757" fill="#92ff23" stroke="none" /><path d="M 101.08105385017728 79.02784411241856 l 1.553453641620833 -30.13658563896762 a51.17659709429634,51.17659709429634 0 0,0 0.8769613096678073,0.05275581470257825 l -2.0705593034211027 30.10547784644035" fill="#b3ff20" stroke="none" /><path d="M 101.44090949804482 79.04949213459386 l 2.118731936399861 -30.80589735751183 a51.87867123144834,51.87867123144834 0 0,0 0.8879429976402214,0.0687324037613506 l -2.6472439288153162 30.764987186755427" fill="#aaff21" stroke="none" /><path d="M 101.80034050326958 79.07731436759882 l 2.692086618091169 -31.286127209393484 a52.401736992110116,52.401736992110116 0 0,0 0.8955717278977162,0.08481157375432849 l -3.2287579093738983 31.235303880133973" fill="#a4ff21" stroke="none" /><path d="M 102.15924093988457 79.11130261209362 l 3.1030973814562306 -30.01965226257199 a51.17960793854924,51.17960793854924 0 0,0 0.8731340997394788,0.09783649705925981 l -3.6179673827965058 29.96196000500576" fill="#b3ff20" stroke="none" /><path d="M 102.87502721639298 79.19773525538626 l 8.252187991107535 -59.70872148080451 a81.27628080358696,81.27628080358696 0 0,0 1.3804385177247505,0.2028769240944131 l -9.275951614439967 59.55826348341122" fill="#49eeff" stroke="none" /><path d="M 103.58742460773223 79.30868818359171 l 2.4240926706405133 -13.981522346695304 a35.19010896388725,35.19010896388725 0 0,0 0.5943194939068822,0.10830480961382097 l -2.663746898098449 13.937849363150118" fill="#ff6e0a" stroke="none" /><path d="M 103.94208987418118 79.37332000966035 l 7.722672034372878 -40.40828337442257 a62.13962844530952,62.13962844530952 0 0,0 1.0460274782484493,0.20923479135779027 l -8.415195998152285 40.26975918640192" fill="#33ff2f" stroke="none" /><path d="M 104.64783097203109 79.52079915486377 l 9.13710485188433 -40.25976988639004 a62.2836015432206,62.2836015432206 0 0,0 1.04063395860919,0.24558678073240203 l -9.826870964233404 40.09698696201141" fill="#32ff2f" stroke="none" /><path d="M 104.9986988182912 79.60360301121754 l 6.709764143604484 -27.378127418534653 a49.188345034931004,49.188345034931004 0 0,0 0.8183879709622783,0.20803102193734568 l -7.1787574077921565 27.25891116476204" fill="#ccff1d" stroke="none" /><path d="M 105.3480935250658 79.69241777938227 l 10.536465477665834 -40.00867561488025 a62.372832018351815,62.372832018351815 0 0,0 1.0330681453504222,0.281567316865247 l -11.221715023950948 39.82190780387086" fill="#31ff2f" stroke="none" /><path d="M 105.69591212413111 79.78721728523813 l 11.150889798466679 -39.570574064473334 a62.11170970769177,62.11170970769177 0 0,0 1.0237784013894193,0.2980069719381705 l -11.828528212237702 39.37332339823265" fill="#33ff2f" stroke="none" /><path d="M 106.38641147887787 79.99465700312896 l 8.840277604355796 -27.692043684878403 a50.06888012234542,50.06888012234542 0 0,0 0.8165453806354395,0.268414685266966 l -9.314345722638977 27.536208078209416" fill="#c1ff1e" stroke="none" /><path d="M 106.72888874123014 80.10723608172694 l 12.305317005469403 -36.37848321512939 a59.403318445657085,59.403318445657085 0 0,0 0.9631660501008539,0.3350391498728947 l -12.927988827615275 36.16188563268791" fill="#51ff2b" stroke="none" /><path d="M 108.07796709384702 80.6158196554323 l 5.728818961062926 -13.74708000323598 a35.89300424038094,35.89300424038094 0 0,0 0.5667076787080639,0.24189380951888084 l -5.963961714941419 13.646711544057698" fill="#ff790b" stroke="none" /><path d="M 108.4095320186766 80.7573450057729 l 16.57459834821758 -37.925924650064964 a62.38952851829968,62.38952851829968 0 0,0 0.9776932208347032,0.4373097419236425 l -17.223204971907915 37.63581115723147" fill="#30ff2f" stroke="none" /><path d="M 108.73861861582097 80.90454125486305 l 13.254857358071698 -28.964255448279967 a52.853089916930244,52.853089916930244 0 0,0 0.8217681126019944,0.38462897020222453 l -13.750114184545197 28.73245024650721" fill="#9eff22" stroke="none" /><path d="M 109.3889696526874 81.21577127319529 l 18.366349928069443 -36.74500298620536 a62.07941156025165,62.07941156025165 0 0,0 0.9491432925731509,0.4846393281015623 l -18.994420442356173 36.42430570643096" fill="#34ff2f" stroke="none" /><path d="M 109.71004243097381 81.37971332152246 l 15.204825878681174 -29.157258453811302 a53.88361979076153,53.88361979076153 0 0,0 0.8164938315869049,0.43473697612206796 l -15.703108526054638 28.89195100996666" fill="#92ff23" stroke="none" /><path d="M 110.02825361518725 81.54914285379988 l 3.955741902567173 -7.2781195562276295 a29.283653679051824,29.283653679051824 0 0,0 0.43961152449262303,0.24384510211053426 l -4.080097615215896 7.209141538683949" fill="#ff1202" stroke="none" /><line stroke="#e1ed5e" stroke-width="0.3" x1="143.13028292997686" x2="145.6673583964461" y1="26.7553504044142" y2="22.446841604673864" /><path d="M 143.63769802327073 25.89364864446614 a86.0,86.0 0 0,1 29.32050498858742,28.57503671076993" fill="none" id="id38" stroke="none" /><text fill="#e1ed5e" style="font-size:6.75px; font-family:Arial;" text-anchor="middle"><textPath startOffset="20.669276256404974" xlink:href="#id38">February</textPath></text><path d="M 110.96478420261332 82.08984904055464 l 21.463047726000198 -35.058275449764466 a62.106509158527686,62.106509158527686 0 0,0 0.9044951588727624,0.5644718753093168 l -22.061707013662673 34.684667777613605" fill="#33ff2f" stroke="none" /><path d="M 111.27062007382361 82.28071324371311 l 17.31681161050712 -27.224904097674607 a53.26557557957666,53.26557557957666 0 0,0 0.7673143770915345,0.49736390880143005 l -17.781611619855664 26.923626347169282" fill="#99ff23" stroke="none" /><path d="M 112.16784306229584 82.88440491214696 l 22.471664425760604 -31.609210218467464 a59.782958534635576,59.782958534635576 0 0,0 0.8313218641971074,0.601812919964639 l -23.01096730033168 31.21879652712975" fill="#4dff2c" stroke="none" /><path d="M 114.39649973595853 84.71141617570332 l 28.272977145595583 -30.024921958857153 a62.24144972368009,62.24144972368009 0 0,0 0.771579137271657,0.7391553596800435 l -28.784228768732554 29.53515446887153" fill="#32ff2f" stroke="none" /><path d="M 114.91283532996326 85.21462403516908 l 29.333452758212403 -29.082740993281366 a62.306867157902055,62.306867157902055 0 0,0 0.7465347693271983,0.766010439453332 l -29.828374328690415 28.57490786176029" fill="#31ff2f" stroke="none" /><path d="M 115.41159269507618 85.73525988315684 l 24.382694676580996 -22.568258180148057 a54.224118904452396,54.224118904452396 0 0,0 0.6264236150496936,0.6885492862052552 l -24.76651599247257 22.14637131838513" fill="#8dff24" stroke="none" /><path d="M 115.6541949942343 86.00192230759917 l 24.537995541408012 -21.942026921916174 a53.91756021688506,53.91756021688506 0 0,0 0.6110372757126248,0.6952482531953568 l -24.911043881079227 21.51756639090952" fill="#91ff24" stroke="none" /><path d="M 117.01052211995028 87.68569379921539 l 11.17307686185014 -8.088446004861746 a34.793498661846996,34.793498661846996 0 0,0 0.346087454275136,0.4868153461572879 l -11.310279414655236 7.895453431994953" fill="#ff6809" stroke="none" /><path d="M 117.21940702142032 87.97951657250589 l 27.228699817160248 -19.007747159773544 a54.20687497827674,54.20687497827674 0 0,0 0.526091307416255,0.7675829399495243 l -27.550980861391828 18.53752948475397" fill="#8eff24" stroke="none" /><path d="M 117.42321728460499 88.27688183743584 l 34.40965811143927 -23.152353631626205 a62.4735584442668,62.4735584442668 0 0,0 0.5910461560254108,0.8949192119902983 l -34.80202870638541 22.55825454129685" fill="#30ff2f" stroke="none" /><line stroke="#e1ed5e" stroke-width="0.3" x1="172.87174338648825" x2="177.1583165268699" y1="56.24261187166439" y2="53.66864786411523" /><path d="M 173.72905801456457 55.72781907015455 a86.0,86.0 0 0,1 12.242430191666344,42.057860355516425" fill="none" id="id39" stroke="none" /><text fill="#e1ed5e" style="font-size:6.75px; font-family:Arial;" text-anchor="middle"><textPath startOffset="22.145653131862474" xlink:href="#id39">March</textPath></text><path d="M 118.18653347947321 89.5 l 30.903706111873262 -17.842263042647115 a56.68452608529422,56.68452608529422 0 0,0 0.4792990739201777,0.8468755380667146 l -31.205438550814815 17.309130734481283" fill="#70ff27" stroke="none" /><path d="M 118.36410011445183 89.81374322990088 l 50.6744899290611 -28.10828534445867 a78.94807705675854,78.94807705675854 0 0,0 0.6472037430593982,1.190781991152516 l -51.14953902173584 27.234248519831553" fill="#46fff7" stroke="none" /><path d="M 119.0197475246899 91.09779779509293 l 39.92892593096211 -18.68875346535272 a65.0861501164367,65.0861501164367 0 0,0 0.4649492209638909,1.0159979577808078 l -40.24385961678105 18.00056652535723" fill="#33ff52" stroke="none" /><path d="M 119.16976305983485 91.42560881287824 l 6.525788184240641 -2.918902050136155 a28.14883910882486,28.14883910882486 0 0,0 0.1935113632319014,0.4427918690200871 l -6.574933429489513 2.8064481113402184" fill="#ff0000" stroke="none" /><path d="M 119.31412917781788 91.75594674310238 l 12.950992618635327 -5.528008635271035 a35.08144485766918,35.08144485766918 0 0,0 0.2316614160989147,0.5559030652600363 l -13.043979879270726 5.3048730605697205" fill="#ff6d0a" stroke="none" /><path d="M 120.65975698304385 96.23510406497455 l 35.63549572310321 -6.493974401569242 a57.22237235410657,57.22237235410657 0 0,0 0.16781191642642754,0.9678945396662247 l -35.74172245702187 5.881286828982425" fill="#6aff28" stroke="none" /><path d="M 120.86939407059847 97.66154086499901 l 59.88018588127989 -6.70969972611286 a81.2549311807028,81.2549311807028 0 0,0 0.14342504275883455,1.3875071839815072 l -59.98654331652039 5.680788019848421" fill="#49eeff" stroke="none" /><path d="M 120.93736805541906 98.37931529534042 l 43.852328050311954 -3.3944475325999726 a64.98350769872442,64.98350769872442 0 0,0 0.07654450333647021,1.112940279303033 l -43.904136514813494 2.641163829142606" fill="#33ff50" stroke="none" /><path d="M 120.98066250479742 99.09900007780936 l 30.21225245289342 -1.2974441156487129 a51.24009853672101,51.24009853672101 0 0,0 0.03019582179544126,0.8791184050427515 l -30.23007296168571 0.7786194460418413" fill="#b2ff20" stroke="none" /><line stroke="#e1ed5e" stroke-width="0.3" x1="184.99686870605535" x2="189.99668451229388" y1="99.2704041080226" y2="99.22748670261217" /><path d="M 185.99683186730306 99.26182062694052 a86.0,86.0 0 0,1 -10.086455211305974,41.156179273409016" fill="none" id="id40" stroke="none" /><text fill="#e1ed5e" style="font-size:6.75px; font-family:Arial;" text-anchor="middle"><textPath startOffset="21.40746469413373" xlink:href="#id40">April</textPath></text><path d="M 120.99922638620191 99.81974689727618 l 30.959370905892076 -0.26574896434430983 a51.96051145250425,51.96051145250425 0 0,0 0.0,0.8920041341362697 l -30.959370905892076 -0.26574896434430606" fill="#a9ff21" stroke="none" /><path d="M 120.99303781780057 100.54070618675476 l 36.12937123970586 0.9305644434319874 a57.141353272392344,57.141353272392344 0 0,0 -0.033673434865222125,0.9803653151605721 l -36.108073117843794 -1.5506360231566703" fill="#6bff28" stroke="none" /><path d="M 120.9064616781168 101.97986365728391 l 30.110580299154183 2.8515032601822017 a51.245299085885094,51.245299085885094 0 0,0 -0.09045431588929645,0.8750634526884297 l -30.05719359078322 -3.3679712351535627" fill="#b2ff20" stroke="none" /><path d="M 120.82617615685814 102.69636545807757 l 29.14368952554112 3.7732340860724403 a50.38693476069653,50.38693476069653 0 0,0 -0.11842245354358387,0.8568458817621086 l -29.07462255544233 -4.272968276034634" fill="#bdff1f" stroke="none" /><path d="M 120.77682067341334 103.0534771498775 l 32.52927178553601 4.780682745478525 a53.87869295471135,53.87869295471135 0 0,0 -0.14233854717465827,0.9139155796454702 l -32.44241174622309 -5.338386507055446" fill="#92ff23" stroke="none" /><path d="M 120.65975698304385 103.76489593502545 l 27.012124216747033 4.922508853492334 a48.456983594591776,48.456983594591776 0 0,0 -0.15615541641279088,0.8170711236698908 l -26.923642508052083 -5.38548254219554" fill="#d6ff1c" stroke="none" /><path d="M 120.51834098615036 104.47187691870673 l 29.484194897306825 6.4259430485590405 a51.17632338118244,51.17632338118244 0 0,0 -0.1944435595824247,0.8567542007646507 l -29.369540476166737 -6.931131583262708" fill="#b3ff20" stroke="none" /><path d="M 120.43855184770803 104.8234425847677 l 26.6810798919795 6.296662205693163 a48.41401063570957,48.41401063570957 0 0,0 -0.1978345716150761,0.8072325634026297 l -26.569057793848128 -6.753750593703892" fill="#d6ff1c" stroke="none" /><path d="M 120.35273937422433 105.17358676015961 l 31.516203834000223 8.01129577144645 a53.51848649681971,53.51848649681971 0 0,0 -0.23397904913419285,0.8884565604405823 l -31.374035304061298 -8.551132836259837" fill="#96ff23" stroke="none" /><path d="M 120.26092885502905 105.52220625578681 l 31.823763700364623 8.673708310525654 a53.98461992979041,53.98461992979041 0 0,0 -0.2513665495959811,0.8920112069878571 l -31.670178658694063 -9.21872744141652" fill="#90ff24" stroke="none" /><path d="M 120.16314734710363 105.8691983318838 l 28.983254084338103 8.436602857479832 a51.18617705328282,51.18617705328282 0 0,0 -0.2528199356624886,0.8415553405926641 l -28.834157828671984 -8.93289580166322" fill="#b3ff20" stroke="none" /><path d="M 120.05942366710727 106.21446072829308 l 40.47355282900585 12.53881012557642 a63.371337457856875,63.371337457856875 0 0,0 -0.3308445044651255,1.0363656980676765 l -40.25234360876347 -13.23174485733548" fill="#31ff3b" stroke="none" /><path d="M 119.94978838288452 106.5578916946017 l 26.005070246588765 8.548383116381709 a48.374048521080255,48.374048521080255 0 0,0 -0.26609084865478794,0.786650312802601 l -25.854493976361614 -8.99353510365847" fill="#d7ff1c" stroke="none" /><path d="M 119.83427380445688 106.89939002012753 l 26.59877043029567 9.252433089494213 a49.16206857599666,49.16206857599666 0 0,0 -0.28410953727004556,0.7947049406454685 l -26.43602072298168 -9.707672986520603" fill="#ccff1d" stroke="none" /><path d="M 119.58574465831526 107.57618678355244 l 35.161980164380196 13.601409292947725 a58.70097059539119,58.70097059539119 0 0,0 -0.37160880055837486,0.9366969302424795 l -34.923312688855695 -14.20300724040377" fill="#59ff2a" stroke="none" /><path d="M 119.31412917781788 108.2440532568976 l 30.986620561906125 13.226345739523216 a54.6913471898787,54.6913471898787 0 0,0 -0.3759798800507201,0.8603155443750096 l -30.755006799838437 -13.75632335367407" fill="#88ff25" stroke="none" /><path d="M 119.16976305983485 108.57439118712176 l 15.041194689604954 6.727735068387562 a37.477255743630735,37.477255743630735 0 0,0 -0.2677224083878423,0.5850217785295233 l -14.923487816362055 -6.9849458291317745" fill="#ff900d" stroke="none" /><line stroke="#e1ed5e" stroke-width="0.3" x1="174.33088141563837" x2="178.70328620479359" y1="141.23008692659167" y2="143.65538615756765" /><path d="M 175.20536237346943 141.71514677278685 a86.0,86.0 0 0,1 -30.301960400862466,31.631185727798858" fill="none" id="id41" stroke="none" /><text fill="#e1ed5e" style="font-size:6.75px; font-family:Arial;" text-anchor="middle"><textPath startOffset="22.145653131862474" xlink:href="#id41">May</textPath></text><path d="M 118.36410011445183 110.18625677009912 l 47.09203511675445 26.121158049464498 a74.85141288102605,74.85141288102605 0 0,0 -0.6329101670799645,1.1182916209493925 l -46.63669158465311 -26.925706440513014" fill="#40ffca" stroke="none" /><path d="M 117.21940702142032 112.02048342749411 l 29.599652544397973 20.662856300853726 a57.098380313510134,57.098380313510134 0 0,0 -0.5679518831374476,0.7988954501957622 l -29.240585562730566 -21.167928977758994" fill="#6bff28" stroke="none" /><path d="M 116.79662413953412 112.60449989151573 l 42.88244521334914 32.17978633976749 a74.61382989816133,74.61382989816133 0 0,0 -0.7775756731064233,1.0178715166107515 l -42.32371756288842 -32.91117876961912" fill="#40ffc7" stroke="none" /><path d="M 116.1254893667686 113.45245675266167 l 29.68315246632889 24.76274150531225 a59.65595564978624,59.65595564978624 0 0,0 -0.6627647034415999,0.780735154156062 l -29.253693199380177 -25.26864344191787" fill="#4eff2b" stroke="none" /><path d="M 115.41159269507618 114.26474011684316 l 25.397912119677983 23.50792828916224 a55.60746498210003,55.60746498210003 0 0,0 -0.6544314557638682,0.6949835273994988 l -24.990624830177854 -23.940453276506236" fill="#7dff26" stroke="none" /><line stroke="#e1ed5e" stroke-width="0.3" x1="143.1302829299769" x2="145.66735839644613" y1="173.24464959558577" y2="177.55315839532614" /><path d="M 143.63769802327073 174.10635135553383 a86.0,86.0 0 0,1 -40.68552437913181,11.842963189579606" fill="none" id="id42" stroke="none" /><text fill="#e1ed5e" style="font-size:6.75px; font-family:Arial;" text-anchor="middle"><textPath startOffset="21.407464694133747" xlink:href="#id42">June</textPath></text><line stroke="#e1ed5e" stroke-width="0.3" x1="101.45913802915013" x2="101.54496967792366" y1="184.9874750549273" y2="189.98673829345242" /><path d="M 101.47630435890484 185.9873277026323 a86.0,86.0 0 0,1 -42.54439059252881,-10.42667462771756" fill="none" id="id43" stroke="none" /><text fill="#e1ed5e" style="font-size:6.75px; font-family:Arial;" text-anchor="middle"><textPath startOffset="22.145653131862474" xlink:href="#id43">July</textPath></text><line stroke="#e1ed5e" stroke-width="0.3" x1="58.13341422392154" x2="55.67067388415222" y1="173.97424548756322" y2="178.32567169271397" /><path d="M 57.64086615596768 174.84453072859336 a86.0,86.0 0 0,1 -31.369924170532247,-30.572349798747897" fill="none" id="id44" stroke="none" /><text fill="#e1ed5e" style="font-size:6.75px; font-family:Arial;" text-anchor="middle"><textPath startOffset="22.145653131862474" xlink:href="#id44">August</textPath></text><line stroke="#e1ed5e" stroke-width="0.3" x1="26.387840678322732" x2="22.057713659400548" y1="142.50000000000003" y2="145.00000000000006" /><path d="M 25.521815274538298 143.00000000000003 a86.0,86.0 0 0,1 -11.493303480769221,-40.785679425670985" fill="none" id="id45" stroke="none" /><text fill="#e1ed5e" style="font-size:6.75px; font-family:Arial;" text-anchor="middle"><textPath startOffset="21.40746469413373" xlink:href="#id45">September</textPath></text><line stroke="#e1ed5e" stroke-width="0.3" x1="15.003131293944662" x2="10.003315487706104" y1="100.72959589197737" y2="100.7725132973878" /><path d="M 14.003168132696942 100.73817937305945 a86.0,86.0 0 0,1 10.791469493833604,-42.45332614584628" fill="none" id="id46" stroke="none" /><text fill="#e1ed5e" style="font-size:6.75px; font-family:Arial;" text-anchor="middle"><textPath startOffset="22.145653131862435" xlink:href="#id46">October</textPath></text><line stroke="#e1ed5e" stroke-width="0.3" x1="26.387840678322718" x2="22.05771365940052" y1="57.49999999999999" y2="54.99999999999999" /><path d="M 25.521815274538284 56.99999999999999 a86.0,86.0 0 0,1 29.574782752854787,-30.34633250058573" fill="none" id="id47" stroke="none" /><text fill="#e1ed5e" style="font-size:6.75px; font-family:Arial;" text-anchor="middle"><textPath startOffset="21.40746469413373" xlink:href="#id47">November</textPath></text><line stroke="#e1ed5e" stroke-width="0.3" x1="56.869717070023135" x2="54.33264160355391" y1="26.7553504044142" y2="22.446841604673864" /><path d="M 56.362301976729285 25.89364864446614 a86.0,86.0 0 0,1 42.16139366436587,-11.88097634709845" fill="none" id="id48" stroke="none" /><text fill="#e1ed5e" style="font-size:6.75px; font-family:Arial;" text-anchor="middle"><textPath startOffset="22.145653131862474" xlink:href="#id48">December</textPath></text></svg>