<?xml version="1.0" encoding="utf-8" ?>
<svg baseProfile="full" height="200mm" version="1.1" viewBox="0,0,200,200" width="200mm" xmlns="http://www.w3.org/2000/svg" xmlns:ev="http://www.w3.org/2001/xml-events" xmlns:xlink="http://www.w3.org/1999/xlink"><defs /><rect fill="#1a1a1a" height="200" width="200" x="0" y="0" /><text alignment-baseline="middle" fill="#e1ed5e" style="dominant-baseline: central; font-size:9.0px; font-family:Arial;" text-anchor="middle" x="100.0" y="100.0">2023</text><line stroke="#e1ed5e" stroke-width="0.3" x1="100.0" x2="100.0" y1="15.0" y2="10.0" /><path d="M 100.0 14.0 a86.0,86.0 0 0,1 42.46469731375804,11.215312516191453" fill="none" id="id25" stroke="none" /><text fill="#e1ed5e" style="font-size:6.75px; font-family:Arial;" text-anchor="middle"><textPath startOffset="22.20632615414155" xlink:href="#id25">January</textPath></text><path d="M 100.0 79.0 l 0.0 -26.215091643470146 a47.215091643470146,47.215091643470146 0 0,0 0.8127301883894256,0.00699542531954554 l -0.4512497091168972 26.21120759475916" fill="#ffcd13" stroke="none" /><path d="M 102.16513564639614 79.11191278185805 l 2.70341061193632 -26.081080297471946 a47.22081574665268,47.22081574665268 0 0,0 0.8077756811252341,0.09076300971209877 l -3.15195299657128 26.03068133428925" fill="#ffcd13" stroke="none" /><path d="M 108.43124777332544 80.76684994638697 l 10.478454486703653 -23.903186442976235 a47.09904846076965,47.09904846076965 0 0,0 0.7397194469315002,0.3318905535338367 l -10.888356052101933 23.719275558925865" fill="#ffcb13" stroke="none" /><line stroke="#e1ed5e" stroke-width="0.3" x1="143.23703022742887" x2="145.7803849466894" y1="26.81831364943548" y2="22.513508569990506" /><path d="M 143.74570117128098 25.957352633546492 a86.0,86.0 0 0,1 28.547481713284135,27.462654790039103" fill="none" id="id26" stroke="none" /><text fill="#e1ed5e" style="font-size:6.75px; font-family:Arial;" text-anchor="middle"><textPath startOffset="19.985693538727396" xlink:href="#id26">February</textPath></text><path d="M 111.60114157652 82.49532879139004 l 14.484873349866943 -21.855861668040763 a47.220035187127785,47.220035187127785 0 0,0 0.6736619462867331,0.4548595532949328 l -14.858939990560218 21.60329020244716" fill="#ffcd13" stroke="none" /><path d="M 115.68641384162765 86.03803664274999 l 20.917917789660393 -18.618353731951668 a49.00361370150412,49.00361370150412 0 0,0 0.5553932750021914,0.6349105227628264 l -21.235302928240433 18.255527652985894" fill="#ffea16" stroke="none" /><path d="M 117.45458315368197 88.32363383020206 l 21.783158878814092 -14.571997346740694 a47.207806421237834,47.207806421237834 0 0,0 0.44600893482596876,0.6793022066541353 l -22.030764448997985 14.194877076108884" fill="#ffcd13" stroke="none" /><line stroke="#e1ed5e" stroke-width="0.3" x1="172.23445277983987" x2="176.4835382374775" y1="55.19839476539836" y2="52.563006222186495" /><path d="M 173.08426987136738 54.67131705675599 a86.0,86.0 0 0,1 12.851231095245387,41.99856678651699" fill="none" id="id27" stroke="none" /><text fill="#e1ed5e" style="font-size:6.75px; font-family:Arial;" text-anchor="middle"><textPath startOffset="22.20632615414155" xlink:href="#id27">March</textPath></text><path d="M 120.83666639777658 97.38593545837742 l 32.73298181057044 -4.106517110708241 a53.98956776000066,53.98956776000066 0 0,0 0.10774684411002117,0.923109160445852 l -32.79881900768405 3.5424642119375362" fill="#c8ff1d" stroke="none" /><line stroke="#e1ed5e" stroke-width="0.3" x1="184.98032266829074" x2="189.97916517819016" y1="98.17113171792111" y2="98.06355123074" /><path d="M 185.9800911702706 98.14961562048488 a86.0,86.0 0 0,1 -9.607161424134198,41.387399972396054" fill="none" id="id28" stroke="none" /><text fill="#e1ed5e" style="font-size:6.75px; font-family:Arial;" text-anchor="middle"><textPath startOffset="21.466115282336823" xlink:href="#id28">April</textPath></text><path d="M 120.99980553446 99.90962569577887 l 27.657829897312627 -0.11902763238137164 a48.65808601848563,48.65808601848563 0 0,0 -0.003604643633645411,0.8375922335443984 l -27.655780956389478 -0.3570740793667114" fill="#ffe415" stroke="none" /><path d="M 120.9764740272857 100.99374915477107 l 26.181305069433122 1.2403252209932611 a47.210668472829084,47.210668472829084 0 0,0 -0.04544285175595,0.8114126448835973 l -26.156075866789646 -1.6908095822122817" fill="#ffcd13" stroke="none" /><path d="M 120.8583938346157 102.4346265915055 l 26.030307936074635 3.038301049866613 a47.207025861712935,47.207025861712935 0 0,0 -0.1011545198439091,0.8063010499758201 l -25.974151906983877 -3.485919854129828" fill="#ffcd13" stroke="none" /><path d="M 120.49622156327973 104.57218783832717 l 25.600934826900634 5.710920059288782 a47.23018246095137,47.23018246095137 0 0,0 -0.1838365897788045,0.791963217316527 l -25.49883767119128 -6.150751933953873" fill="#ffcd13" stroke="none" /><path d="M 118.64920377521936 109.65438752849418 l 24.33252270842756 12.596548710846044 a48.39972081574665,48.39972081574665 0 0,0 -0.3893814968778966,0.7365630498445572 l -24.112088703324773 -13.013526775776734" fill="#ffe015" stroke="none" /><line stroke="#e1ed5e" stroke-width="0.3" x1="174.80103733775053" x2="179.2010983576182" y1="140.37084112569926" y2="142.7455964860345" /><path d="M 175.68104954172406 140.8457921977663 a86.0,86.0 0 0,1 -30.038265399797805,32.042727171017184" fill="none" id="id29" stroke="none" /><text fill="#e1ed5e" style="font-size:6.75px; font-family:Arial;" text-anchor="middle"><textPath startOffset="22.206326154141568" xlink:href="#id29">May</textPath></text><path d="M 118.30583269289576 110.29060199501025 l 20.610561932254654 11.586202785555507 a44.64392856847861,44.64392856847861 0 0,0 -0.382339116045554,0.6666404762854233 l -20.40807082005672 -11.939263107699245" fill="#ffa30f" stroke="none" /><line stroke="#e1ed5e" stroke-width="0.3" x1="143.8653032363475" x2="146.44561519142675" y1="172.8068346515853" y2="177.08958963109032" /><path d="M 144.38136562736335 173.6633856474863 a86.0,86.0 0 0,1 -40.68145358897372,12.25698825130547" fill="none" id="id30" stroke="none" /><text fill="#e1ed5e" style="font-size:6.75px; font-family:Arial;" text-anchor="middle"><textPath startOffset="21.466115282336833" xlink:href="#id30">June</textPath></text><path d="M 110.21172684928248 118.3499491758327 l 8.455185333953722 15.193534202415364 a38.38774397647583,38.38774397647583 0 0,0 -0.5801616305695294,0.3163503787134145 l -8.192400891515543 -15.336825232888549" fill="#ff3605" stroke="none" /><path d="M 107.59598834532513 119.57807347666477 l 10.856691214864695 27.982283365257604 a51.01459522413209,51.01459522413209 0 0,0 -0.8214073248161773,0.3105859652146285 l -10.373413669288244 -28.165017580578866" fill="#f5ff19" stroke="none" /><path d="M 103.41894727170886 120.7198165907248 l 4.7788222741609605 28.961055310687808 a50.35268074702437,50.35268074702437 0 0,0 -0.8563891301908099,0.13375036960380088 l -4.279597280361633 -29.039023987638714" fill="#ffff18" stroke="none" /><line stroke="#e1ed5e" stroke-width="0.3" x1="102.19456741930631" x2="102.32365962044197" y1="184.97166512339345" y2="189.96999836594603" /><path d="M 102.22038585953345 185.97133177190398 a86.0,86.0 0 0,1 -42.740103519485714,-10.115201625700543" fill="none" id="id31" stroke="none" /><text fill="#e1ed5e" style="font-size:6.75px; font-family:Arial;" text-anchor="middle"><textPath startOffset="22.20632615414155" xlink:href="#id31">July</textPath></text><path d="M 98.01472825383883 120.90594882070398 l -1.4505453023691455 15.274999965158404 a36.34371876729414,36.34371876729414 0 0,0 -0.6222865041358343,-0.0645025405296797 l 1.7132644031105733 -15.247768056172964" fill="#ff1101" stroke="none" /><line stroke="#e1ed5e" stroke-width="0.3" x1="58.666819895761336" x2="56.23545636021788" y1="174.27360380694188" y2="178.64263932499728" /><path d="M 58.180547188652646 175.14741091055294 a86.0,86.0 0 0,1 -31.652253787137756,-30.449443065178592" fill="none" id="id32" stroke="none" /><text fill="#e1ed5e" style="font-size:6.75px; font-family:Arial;" text-anchor="middle"><textPath startOffset="22.20632615414155" xlink:href="#id32">August</textPath></text><path d="M 88.24862548938628 117.40417183066458 l -12.831223201260848 19.003463228123362 a43.929716603203175,43.929716603203175 0 0,0 -0.6230554119395989,-0.4285431936546197 l 13.156435497823336 -18.77977924510364" fill="#ff970d" stroke="none" /><path d="M 86.79598089348748 116.32954008644616 l -17.414260969103125 21.536387540559378 a48.696073248697004,48.696073248697004 0 0,0 -0.6472632698232007,-0.532653605605427 l 17.782394367471017 -21.233438816096772" fill="#ffe515" stroke="none" /><path d="M 84.43433777217949 114.09645910891817 l -11.341666555988368 10.271155604785386 a36.30130836644172,36.30130836644172 0 0,0 -0.41546181962195255,-0.466775758625778 l 11.516787225258659 -10.074405676418746" fill="#ff1001" stroke="none" /><path d="M 84.19399662182784 113.82643327865904 l -16.182330574993603 14.155628632683948 a42.49999174011084,42.49999174011084 0 0,0 -0.47692578079700726,-0.5547724295909612 l 16.42359886536139 -13.874979103931457" fill="#ff7f0b" stroke="none" /><line stroke="#e1ed5e" stroke-width="0.3" x1="26.63291911575756" x2="22.317208475507996" y1="142.92168965132927" y2="145.44649492493687" /><path d="M 25.769776987707644 143.4266507060508 a86.0,86.0 0 0,1 -11.730757126820373,-40.83630448921669" fill="none" id="id33" stroke="none" /><text fill="#e1ed5e" style="font-size:6.75px; font-family:Arial;" text-anchor="middle"><textPath startOffset="21.46611528233685" xlink:href="#id33">September</textPath></text><path d="M 81.51974371655577 109.97397251340807 l -55.44076885033272 29.92191754022421 a84.0,84.0 0 0,0 -0.6757899671004557,-1.2783399396554953 l 55.94761132565806 -28.96316258548259" fill="#4dd2ff" stroke="none" /><path d="M 81.02952815118164 109.00673069616217 l -23.640422971009663 11.22391287576289 a47.169559004518156,47.169559004518156 0 0,0 -0.34192400918853233,-0.7364738968042289 l 23.83012159703802 -10.815318911679833" fill="#ffcd13" stroke="none" /><path d="M 80.45479744820244 107.68017299344265 l -24.830061168384823 9.756827267744008 a47.67822362823891,47.67822362823891 0 0,0 -0.29357462161672426,-0.7664306986739022 l 24.994330069595055 -9.327973002236947" fill="#ffd513" stroke="none" /><path d="M 79.86692584326677 105.97154293290107 l -25.534233147511376 7.573546310515901 a47.63373173532011,47.63373173532011 0 0,0 -0.22639034094176202,-0.7880944764407839 l 25.66081612533924 -7.132894358570521" fill="#ffd413" stroke="none" /><path d="M 79.0235259727143 100.99374915477108 l -26.02354878901119 1.2328516022084826 a47.052735262292785,47.052735262292785 0 0,0 -0.03136371129472338,-0.8093580269984281 l 26.040914633157115 -0.7847163281960577" fill="#ffcb12" stroke="none" /><line stroke="#e1ed5e" stroke-width="0.3" x1="15.007084014347285" x2="10.007500721073583" y1="101.09737516637583" y2="101.16192664675087" /><path d="M 14.007167355692545 101.11028546245083 a86.0,86.0 0 0,1 10.666146001902534,-42.60595125391555" fill="none" id="id34" stroke="none" /><text fill="#e1ed5e" style="font-size:6.75px; font-family:Arial;" text-anchor="middle"><textPath startOffset="22.20632615414155" xlink:href="#id34">October</textPath></text><path d="M 79.00175016825051 100.2711162175752 l -26.021685696823884 0.3359756673809371 a47.02385455987181,47.02385455987181 0 0,0 -0.0034835779998480315,-0.8094608438915495 l 26.023613572113234 0.11199465471428771" fill="#ffca12" stroke="none" /><path d="M 79.05617556472873 98.46500227214037 l -26.05621981653415 -1.909691247584841 a47.12610785763255,47.12610785763255 0 0,0 0.06625822190831693,-0.8085181332033412 l 26.019487110806335 2.357923297995961" fill="#ffcc13" stroke="none" /><path d="M 80.02781315780177 93.51064311812611 l -14.565771441751025 -4.732706032251682 a36.31535843788976,36.31535843788976 0 0,0 0.19828653695888288,-0.5928515071202578 l 14.48214761102037 4.982730642294261" fill="#ff1001" stroke="none" /><path d="M 80.14247586403 93.16781622104843 l -25.933680162112612 -8.922747252823564 a48.42573946657635,48.42573946657635 0 0,0 0.27797970010488554,-0.7858860453455123 l 25.77624738119792 9.367830924595687" fill="#ffe115" stroke="none" /><path d="M 80.95270993114464 91.15688171328213 l -14.40664983232524 -6.688600221975427 a36.88360577201054,36.88360577201054 0 0,0 0.272309564596253,-0.5735533906368898 l 14.289382073887234 6.935596028252848" fill="#ff1b02" stroke="none" /><path d="M 81.10775173730289 90.83032412892265 l -23.965676823054668 -11.632151210521338 a47.63945583850265,47.63945583850265 0 0,0 0.3644191223239776,-0.734646713448869 l 23.761897687777278 12.042957512469169" fill="#ffd413" stroke="none" /><line stroke="#e1ed5e" stroke-width="0.3" x1="26.266209847984243" x2="21.928928074336255" y1="57.711370442889674" y2="55.22380399835377" /><path d="M 25.398753493254645 57.213857153982495 a86.0,86.0 0 0,1 29.58750427330803,-30.492523968695096" fill="none" id="id35" stroke="none" /><text fill="#e1ed5e" style="font-size:6.75px; font-family:Arial;" text-anchor="middle"><textPath startOffset="21.46611528233685" xlink:href="#id35">November</textPath></text><path d="M 82.15384107792192 88.93136811851018 l -22.192684111071404 -13.764454970965474 a47.11465965126747,47.11465965126747 0 0,0 0.4333929550899377,-0.6855235754089959 l 21.952463559735506 14.144426194088686" fill="#ffcc13" stroke="none" /><path d="M 82.34701348167596 88.62581576622439 l -21.883348808319464 -14.09989413062953 a47.0324407146456,47.0324407146456 0 0,0 0.4443521183388014,-0.6767787614765337 l 21.637400054622745 14.47449095608373" fill="#ffca12" stroke="none" /><path d="M 83.84228863543731 86.58626213691792 l -20.27077625994108 -16.82830401515816 a47.34570527063527,47.34570527063527 0 0,0 0.5259643112669491,-0.6225758468563585 l 19.978101335187006 17.174738811643635" fill="#ffcf13" stroke="none" /><path d="M 84.07557802195018 86.31012108654704 l -19.79441415955412 -17.016826945465095 a47.103471631410706,47.103471631410706 0 0,0 0.5338575953336179,-0.6102915180829919 l 19.498564700642657 17.35503401975103" fill="#ffcb13" stroke="none" /><path d="M 85.31137513191541 84.99185889309783 l -18.285043071659445 -18.682790869111102 a47.14171904813037,47.14171904813037 0 0,0 0.5848194160453887,-0.5625958148838418 l 17.96074041200163 18.994769770757255" fill="#ffcc13" stroke="none" /><path d="M 85.83668400450813 84.49514656593479 l -17.708853738025944 -19.38622154450171 a47.25698167130597,47.25698167130597 0 0,0 0.6053147061409464,-0.5434575198186865 l 17.372528044289027 19.688178073089674" fill="#ffce13" stroke="none" /><path d="M 87.51073957382395 83.11751280151077 l -16.401032508827655 -22.17026564615138 a48.577428200913545,48.577428200913545 0 0,0 0.6765093522307168,-0.4915128149889756 l 16.016977840243158 22.44929769595702" fill="#ffe315" stroke="none" /><line stroke="#e1ed5e" stroke-width="0.3" x1="56.762969772571076" x2="54.21961505331055" y1="26.818313649435495" y2="22.513508569990535" /><path d="M 56.25429882871897 25.957352633546506 a86.0,86.0 0 0,1 42.265352541879196,-11.944610805530505" fill="none" id="id36" stroke="none" /><text fill="#e1ed5e" style="font-size:6.75px; font-family:Arial;" text-anchor="middle"><textPath startOffset="22.20632615414155" xlink:href="#id36">December</textPath></text><path d="M 89.63071344664047 81.73862282372117 l -13.359726888137352 -23.527849328969275 a48.056274624794526,48.056274624794526 0 0,0 0.7228485487100434,-0.4022644347456236 l 12.952754250355262 23.754329161275084" fill="#ffdb14" stroke="none" /><path d="M 91.90106846888425 80.62456947434976 l -10.65697825580816 -25.495158344711903 a48.63284792718081,48.63284792718081 0 0,0 0.7751523175753673,-0.3162040932545778 l 10.216542068644412 25.674823324150058" fill="#ffe415" stroke="none" /><path d="M 92.23578459929587 80.48803036053334 l -10.307256158233619 -25.902793630303073 a48.87820380450495,48.87820380450495 0 0,0 0.7844179784140494,-0.3043419889601727 l 9.859855014819892 26.076378323153797" fill="#ffe815" stroke="none" /><path d="M 92.91201910852362 80.23233633223022 l -9.248033217799996 -25.791831698879548 a48.39972081574665,48.39972081574665 0 0,0 0.7866521767965304,-0.27444749816392133 l 8.802699036940181 25.94720005021568" fill="#ffe015" stroke="none" /><path d="M 93.25333710446033 80.11325718540243 l -8.38984787137396 -24.730262865500222 a47.11465965126747,47.11465965126747 0 0,0 0.7702510467848848,-0.25393965993908135 l 7.962914002346666 24.87101624969854" fill="#ffcc13" stroke="none" /><path d="M 97.47563105711357 79.15227682838746 l -1.7342200080761059 -14.322208625218753 a35.42682151205531,35.42682151205531 0 0,0 0.6060235179023079,-0.06809380342387633 l 1.48742978666408 14.349938382113228" fill="#ff0000" stroke="none" /><path d="M 97.83486435360386 79.11191278185805 l -2.7023375851100018 -26.070728300370437 a47.2104082863208,47.2104082863208 0 0,0 0.8090399848598929,-0.07682809506671531 l 2.253172473159873 26.11338193995233" fill="#ffcd13" stroke="none" /><path d="M 98.19473922651362 79.07773832637324 l -2.2406246530198772 -25.967957644327946 a47.064443655166144,47.064443655166144 0 0,0 0.8077374869297868,-0.06269597483329367 l 1.7932969767277562 26.002678881349702" fill="#ffcb12" stroke="none" /><path d="M 98.91598698831166 79.02799685794201 l -1.3445649096756076 -26.012805387362796 a47.04753153212684,47.04753153212684 0 0,0 0.8091260631561884,-0.03484267032139601 l 0.8965980141300951 26.032095784208387" fill="#ffcb12" stroke="none" /></svg>