<?xml version="1.0" encoding="utf-8" ?>
<svg baseProfile="full" height="200mm" version="1.1" viewBox="0,0,200,200" width="200mm" xmlns="http://www.w3.org/2000/svg" xmlns:ev="http://www.w3.org/2001/xml-events" xmlns:xlink="http://www.w3.org/1999/xlink"><defs /><rect fill="#1a1a1a" height="200" width="200" x="0" y="0" /><text alignment-baseline="middle" fill="#e1ed5e" style="dominant-baseline: central; font-size:9.0px; font-family:Arial;" text-anchor="middle" x="100.0" y="100.0">2025</text><line stroke="#e1ed5e" stroke-width="0.3" x1="100.0" x2="100.0" y1="15.0" y2="10.0" /><path d="M 100.0 14.0 a86.0,86.0 0 0,1 42.46469731375804,11.215312516191453" fill="none" id="id49" stroke="none" /><text fill="#e1ed5e" style="font-size:6.75px; font-family:Arial;" text-anchor="middle"><textPath startOffset="22.20632615414155" xlink:href="#id49">January</textPath></text><path d="M 100.0 79.0 l 0.0 -39.48950272408647 a60.48950272408647,60.48950272408647 0 0,0 1.0412273540790327,0.008962172563765745 l -0.6797468748065044 39.483651928131266" fill="#8bff24" stroke="none" /><path d="M 100.36148047927253 79.00311137660856 l 0.6724901701787099 -39.06214031801807 a60.06792865322553,60.06792865322553 0 0,0 1.0336642616328915,0.026696498271355472 l -1.3447810670064693 39.04477702760436" fill="#91ff24" stroke="none" /><path d="M 100.72285384407766 79.0124445844662 l 0.6526178457635594 -18.94830236478269 a39.95953777284242,39.95953777284242 0 0,0 0.6872263523879444,0.029593412352857833 l -0.9786850305408353 18.93426122590564" fill="#ff0801" stroke="none" /><path d="M 101.08401301168833 79.027996857942 l 2.058879902912568 -39.83239622350311 a60.88557101710796,60.88557101710796 0 0,0 1.046182128621121,0.06310856299789305 l -2.744224080373301 39.791054391124916" fill="#85ff25" stroke="none" /><path d="M 101.44485096284872 79.0497635885617 l 2.836755310270143 -41.13275065712448 a62.23045424575771,62.23045424575771 0 0,0 1.0680222014575729,0.08289907816275366 l -3.5443677010900574 41.07782631677326" fill="#71ff27" stroke="none" /><path d="M 102.16513564639614 79.11191278185805 l 1.9129109052727737 -18.454755893184366 a39.55363153694,39.55363153694 0 0,0 0.6766181640560309,0.07602593446494081 l -2.23029577283853 18.419094005248827" fill="#ff0000" stroke="none" /><path d="M 102.52436894288641 79.15227682838746 l 2.539260941369617 -20.970710052244602 a42.12388520664885,42.12388520664885 0 0,0 0.7190853535528494,0.09335791677899302 l -2.899861023430313 20.923893812301472" fill="#ff3404" stroke="none" /><path d="M 102.88285421437855 79.19881850522331 l 5.1089954992263555 -36.863862940191474 a58.21620918208002,58.21620918208002 0 0,0 0.991424868826949,0.14611025405402206 l -5.74278934848196 36.77045820197648" fill="#aeff20" stroke="none" /><path d="M 103.95276090670814 79.375362276772 l 9.322601069660895 -48.643283577721206 a70.52857688170178,70.52857688170178 0 0,0 1.190366511397879,0.23877632379968855 l -10.1585339905259 48.47560329784431" fill="#36ff6b" stroke="none" /><path d="M 104.66035177308747 79.52364482259891 l 5.188375111364554 -22.79635030715833 a44.37932470416767,44.37932470416767 0 0,0 0.7434092961678619,0.1759409618118902 l -5.580008094494939 22.703663433205573" fill="#ff5f08" stroke="none" /><path d="M 105.01212808612495 79.60689891045804 l 14.084815644043397 -57.307607531356766 a80.01308255543603,80.01308255543603 0 0,0 1.3346605527657391,0.3402346923568316 l -15.069185085494162 57.05666984283106" fill="#46fff8" stroke="none" /><path d="M 105.71112130821622 79.79150937346287 l 17.13336392464865 -60.62547187961136 a84.0,84.0 0 0,0 1.3880391291062915,0.40520668432518603 l -18.174393271478365 60.321566866367476" fill="#4dd2ff" stroke="none" /><path d="M 108.76106565485865 80.91482961587045 l 18.064358487960718 -39.35153247385287 a64.29970156504841,64.29970156504841 0 0,0 1.0019173028103419,0.4704136079137544 l -18.739054002070656 39.03475388329912" fill="#53ff2b" stroke="none" /><path d="M 109.73455568895987 81.39251694778311 l 24.969268775554625 -47.72844908518112 a74.86528785092133,74.86528785092133 0 0,0 1.1367222797309577,0.6071976746467466 l -25.787136101813893 47.291572684032616" fill="#3dffae" stroke="none" /><line stroke="#e1ed5e" stroke-width="0.3" x1="143.23703022742887" x2="145.7803849466894" y1="26.81831364943548" y2="22.513508569990506" /><path d="M 143.74570117128098 25.957352633546492 a86.0,86.0 0 0,1 28.547481713284135,27.462654790039103" fill="none" id="id50" stroke="none" /><text fill="#e1ed5e" style="font-size:6.75px; font-family:Arial;" text-anchor="middle"><textPath startOffset="19.985693538727396" xlink:href="#id50">February</textPath></text><line stroke="#e1ed5e" stroke-width="0.3" x1="172.23445277983987" x2="176.4835382374775" y1="55.19839476539836" y2="52.563006222186495" /><path d="M 173.08426987136738 54.67131705675599 a86.0,86.0 0 0,1 12.851231095245387,41.99856678651699" fill="none" id="id51" stroke="none" /><text fill="#e1ed5e" style="font-size:6.75px; font-family:Arial;" text-anchor="middle"><textPath startOffset="22.20632615414155" xlink:href="#id51">March</textPath></text><line stroke="#e1ed5e" stroke-width="0.3" x1="184.98032266829074" x2="189.97916517819016" y1="98.17113171792111" y2="98.06355123074" /><path d="M 185.9800911702706 98.14961562048488 a86.0,86.0 0 0,1 -9.607161424134198,41.387399972396054" fill="none" id="id52" stroke="none" /><text fill="#e1ed5e" style="font-size:6.75px; font-family:Arial;" text-anchor="middle"><textPath startOffset="21.466115282336823" xlink:href="#id52">April</textPath></text><line stroke="#e1ed5e" stroke-width="0.3" x1="174.80103733775053" x2="179.2010983576182" y1="140.37084112569926" y2="142.7455964860345" /><path d="M 175.68104954172406 140.8457921977663 a86.0,86.0 0 0,1 -30.038265399797805,32.042727171017184" fill="none" id="id53" stroke="none" /><text fill="#e1ed5e" style="font-size:6.75px; font-family:Arial;" text-anchor="middle"><textPath startOffset="22.206326154141568" xlink:href="#id53">May</textPath></text><line stroke="#e1ed5e" stroke-width="0.3" x1="143.8653032363475" x2="146.44561519142675" y1="172.8068346515853" y2="177.08958963109032" /><path d="M 144.38136562736335 173.6633856474863 a86.0,86.0 0 0,1 -40.68145358897372,12.25698825130547" fill="none" id="id54" stroke="none" /><text fill="#e1ed5e" style="font-size:6.75px; font-family:Arial;" text-anchor="middle"><textPath startOffset="21.466115282336833" xlink:href="#id54">June</textPath></text><line stroke="#e1ed5e" stroke-width="0.3" x1="102.19456741930631" x2="102.32365962044197" y1="184.97166512339345" y2="189.96999836594603" /><path d="M 102.22038585953345 185.97133177190398 a86.0,86.0 0 0,1 -42.740103519485714,-10.115201625700543" fill="none" id="id55" stroke="none" /><text fill="#e1ed5e" style="font-size:6.75px; font-family:Arial;" text-anchor="middle"><textPath startOffset="22.20632615414155" xlink:href="#id55">July</textPath></text><line stroke="#e1ed5e" stroke-width="0.3" x1="58.666819895761336" x2="56.23545636021788" y1="174.27360380694188" y2="178.64263932499728" /><path d="M 58.180547188652646 175.14741091055294 a86.0,86.0 0 0,1 -31.652253787137756,-30.449443065178592" fill="none" id="id56" stroke="none" /><text fill="#e1ed5e" style="font-size:6.75px; font-family:Arial;" text-anchor="middle"><textPath startOffset="22.20632615414155" xlink:href="#id56">August</textPath></text><line stroke="#e1ed5e" stroke-width="0.3" x1="26.63291911575756" x2="22.317208475507996" y1="142.92168965132927" y2="145.44649492493687" /><path d="M 25.769776987707644 143.4266507060508 a86.0,86.0 0 0,1 -11.730757126820373,-40.83630448921669" fill="none" id="id57" stroke="none" /><text fill="#e1ed5e" style="font-size:6.75px; font-family:Arial;" text-anchor="middle"><textPath startOffset="21.46611528233685" xlink:href="#id57">September</textPath></text><line stroke="#e1ed5e" stroke-width="0.3" x1="15.007084014347285" x2="10.007500721073583" y1="101.09737516637583" y2="101.16192664675087" /><path d="M 14.007167355692545 101.11028546245083 a86.0,86.0 0 0,1 10.666146001902534,-42.60595125391555" fill="none" id="id58" stroke="none" /><text fill="#e1ed5e" style="font-size:6.75px; font-family:Arial;" text-anchor="middle"><textPath startOffset="22.20632615414155" xlink:href="#id58">October</textPath></text><line stroke="#e1ed5e" stroke-width="0.3" x1="26.266209847984243" x2="21.928928074336255" y1="57.711370442889674" y2="55.22380399835377" /><path d="M 25.398753493254645 57.213857153982495 a86.0,86.0 0 0,1 29.58750427330803,-30.492523968695096" fill="none" id="id59" stroke="none" /><text fill="#e1ed5e" style="font-size:6.75px; font-family:Arial;" text-anchor="middle"><textPath startOffset="21.46611528233685" xlink:href="#id59">November</textPath></text><line stroke="#e1ed5e" stroke-width="0.3" x1="56.762969772571076" x2="54.21961505331055" y1="26.818313649435495" y2="22.513508569990535" /><path d="M 56.25429882871897 25.957352633546506 a86.0,86.0 0 0,1 42.265352541879196,-11.944610805530505" fill="none" id="id60" stroke="none" /><text fill="#e1ed5e" style="font-size:6.75px; font-family:Arial;" text-anchor="middle"><textPath startOffset="22.20632615414155" xlink:href="#id60">December</textPath></text></svg>