<?xml version="1.0" encoding="utf-8" ?>
<svg baseProfile="full" height="200mm" version="1.1" viewBox="0,0,200,200" width="200mm" xmlns="http://www.w3.org/2000/svg" xmlns:ev="http://www.w3.org/2001/xml-events" xmlns:xlink="http://www.w3.org/1999/xlink"><defs /><rect fill="#1a1a1a" height="200" width="200" x="0" y="0" /><text alignment-baseline="middle" fill="#e1ed5e" style="dominant-baseline: central; font-size:9.0px; font-family:Arial;" text-anchor="middle" x="100.0" y="100.0">2026</text><line stroke="#e1ed5e" stroke-width="0.3" x1="100.0" x2="100.0" y1="15.0" y2="10.0" /><path d="M 100.0 14.0 a86.0,86.0 0 0,1 42.46469731375804,11.215312516191453" fill="none" id="id61" stroke="none" /><text fill="#e1ed5e" style="font-size:6.75px; font-family:Arial;" text-anchor="middle"><textPath startOffset="22.20632615414155" xlink:href="#id61">January</textPath></text><path d="M 100.0 79.0 l 0.0 -61.718886265796414 a82.71888626579641,82.71888626579641 0 0,0 1.4238696501071357,0.012255695610163831 l -1.0623891708346074 61.70974194679481" fill="#4be1ff" stroke="none" /><path d="M 100.72285384407766 79.0124445844662 l 1.4377574000771443 -41.74427978136474 a62.76903207887793,62.76903207887793 0 0,0 1.0795053036826143,0.04648576917630005 l -2.15610353614909 41.713346285664244" fill="#50ff2b" stroke="none" /><path d="M 101.08401301168833 79.027996857942 l 1.8442672698371372 -35.68036412918971 a56.72799611165116,56.72799611165116 0 0,0 0.9747435185886983,0.05879919095035563 l -2.4581728372654474 35.643331668859055" fill="#a2ff22" stroke="none" /><path d="M 101.44485096284872 79.0497635885617 l 2.970020470403494 -43.06508602041842 a64.16737953062074,64.16737953062074 0 0,0 1.101264433606943,0.0854793151629716 l -3.710875093372778 43.00758144306699" fill="#3eff2d" stroke="none" /><path d="M 101.80526077348638 79.07773832637324 l 2.653816066653531 -30.756683464057517 a51.870962366338006,51.870962366338006 0 0,0 0.8889074280615531,0.08441247115920401 l -3.1828486218053285 30.706445448383135" fill="#e9ff1a" stroke="none" /><path d="M 102.16513564639614 79.11191278185805 l 3.542181160481626 -34.17309633498242 a55.35618664074434,55.35618664074434 0 0,0 0.9469421622897856,0.1063999853931957 l -4.129890026281137 34.10706039611863" fill="#b6ff1f" stroke="none" /><path d="M 102.52436894288641 79.15227682838746 l 2.5154297111069868 -20.77389773891207 a41.92563532842661,41.92563532842661 0 0,0 0.7157010839615262,0.09291854145685165 l -2.872645523576359 20.72752087429108" fill="#ff720a" stroke="none" /><path d="M 103.2404852339499 79.25152402106235 l 9.545638790184078 -61.11969129398958 a82.8606165810304,82.8606165810304 0 0,0 1.4073315188465902,0.23222175909145426 l -10.596299515169543 60.946323271958505" fill="#4bdfff" stroke="none" /><path d="M 103.95276090670814 79.375362276772 l 8.803058177609907 -45.932422945588115 a67.76837939175115,67.76837939175115 0 0,0 1.143780477733925,0.22943160370535 l -9.592405064810958 45.77408738580556" fill="#33ff54" stroke="none" /><path d="M 104.307194497241 79.44645832069477 l 7.795537547915844 -37.199598487208014 a59.00763782807943,59.00763782807943 0 0,0 0.9923322204523698,0.21688538807501115 l -8.434712492521742 37.05989960103713" fill="#82ff25" stroke="none" /><path d="M 105.01212808612495 79.60689891045804 l 6.402382861743057 -26.04970157784235 a47.824940980419385,47.824940980419385 0 0,0 0.7977453202192474,0.20336304466438945 l -6.84983707064733 25.93563553700909" fill="#ffd513" stroke="none" /><path d="M 105.36241919743992 79.69619591428918 l 8.211627931133151 -31.091803643041505 a53.15790862380225,53.15790862380225 0 0,0 0.8826797591225214,0.24126972158925664 l -8.745605579479383 30.945847380625953" fill="#d6ff1c" stroke="none" /><path d="M 105.71112130821622 79.79150937346287 l 10.078253424805824 -35.66134894982056 a58.05810304124427,58.05810304124427 0 0,0 0.9593680807491909,0.2800658503756261 l -10.690611723278442 35.48258477052622" fill="#8fff24" stroke="none" /><path d="M 106.0581310904928 79.89281104454417 l 10.535814317272237 -34.968805744307105 a57.52151090126371,57.52151090126371 0 0,0 0.9455841403283861,0.2937975952677699 l -11.136183830311342 34.78226801415681" fill="#97ff23" stroke="none" /><path d="M 106.40334571778207 80.00007090966166 l 8.906617281471602 -27.81853767000943 a50.20956811553951,50.20956811553951 0 0,0 0.8208479629454346,0.2706206676928627 l -9.384148066659453 27.661103278057332" fill="#fffb17" stroke="none" /><path d="M 106.74666289553966 80.11325718540242 l 16.517659609549238 -48.688137178357906 a72.41369254270239,72.41369254270239 0 0,0 1.1769569722406403,0.4106171774588135 l -17.353298585853153 48.39659914772689" fill="#3bff98" stroke="none" /><path d="M 107.4271985657038 80.35727306442388 l 22.28159569711141 -58.92818080672834 a84.0,84.0 0 0,0 1.3480673400013319,0.5230291844378128 l -23.292646202112408 58.53590891839998" fill="#4dd2ff" stroke="none" /><path d="M 107.76421540070413 80.48803036053334 l 15.249604790767792 -38.323231689880956 a62.24585474239689,62.24585474239689 0 0,0 0.9921281730256384,0.4047139926320247 l -15.907016833381817 38.05505681106535" fill="#57ff2a" stroke="none" /><path d="M 109.08828744355905 81.06846463323043 l 26.65691509257657 -55.528209685064574 a82.59523677267046,82.59523677267046 0 0,0 1.276406073371816,0.6263269168328355 l -27.608792432958815 55.0611276080969" fill="#4be2ff" stroke="none" /><path d="M 109.41281617654863 81.2277094730956 l 19.81632439312033 -39.52035094553784 a65.21023468962645,65.21023468962645 0 0,0 0.9990813863458681,0.5117682906179291 l -20.49366626705495 39.17339012960741" fill="#31ff2f" stroke="none" /><path d="M 109.73455568895987 81.39251694778311 l 6.760926727842659 -12.923427994591359 a35.58509929176503,35.58509929176503 0 0,0 0.5403088180457699,0.2886142585207118 l -6.98238059241674 12.805135009568891" fill="#ff0000" stroke="none" /><line stroke="#e1ed5e" stroke-width="0.3" x1="143.23703022742887" x2="145.7803849466894" y1="26.81831364943548" y2="22.513508569990506" /><path d="M 143.74570117128098 25.957352633546492 a86.0,86.0 0 0,1 28.547481713284135,27.462654790039103" fill="none" id="id62" stroke="none" /><text fill="#e1ed5e" style="font-size:6.75px; font-family:Arial;" text-anchor="middle"><textPath startOffset="19.985693538727396" xlink:href="#id62">February</textPath></text><line stroke="#e1ed5e" stroke-width="0.3" x1="172.23445277983987" x2="176.4835382374775" y1="55.19839476539836" y2="52.563006222186495" /><path d="M 173.08426987136738 54.67131705675599 a86.0,86.0 0 0,1 12.851231095245387,41.99856678651699" fill="none" id="id63" stroke="none" /><text fill="#e1ed5e" style="font-size:6.75px; font-family:Arial;" text-anchor="middle"><textPath startOffset="22.20632615414155" xlink:href="#id63">March</textPath></text><line stroke="#e1ed5e" stroke-width="0.3" x1="184.98032266829074" x2="189.97916517819016" y1="98.17113171792111" y2="98.06355123074" /><path d="M 185.9800911702706 98.14961562048488 a86.0,86.0 0 0,1 -9.607161424134198,41.387399972396054" fill="none" id="id64" stroke="none" /><text fill="#e1ed5e" style="font-size:6.75px; font-family:Arial;" text-anchor="middle"><textPath startOffset="21.466115282336823" xlink:href="#id64">April</textPath></text><line stroke="#e1ed5e" stroke-width="0.3" x1="174.80103733775053" x2="179.2010983576182" y1="140.37084112569926" y2="142.7455964860345" /><path d="M 175.68104954172406 140.8457921977663 a86.0,86.0 0 0,1 -30.038265399797805,32.042727171017184" fill="none" id="id65" stroke="none" /><text fill="#e1ed5e" style="font-size:6.75px; font-family:Arial;" text-anchor="middle"><textPath startOffset="22.206326154141568" xlink:href="#id65">May</textPath></text><line stroke="#e1ed5e" stroke-width="0.3" x1="143.8653032363475" x2="146.44561519142675" y1="172.8068346515853" y2="177.08958963109032" /><path d="M 144.38136562736335 173.6633856474863 a86.0,86.0 0 0,1 -40.68145358897372,12.25698825130547" fill="none" id="id66" stroke="none" /><text fill="#e1ed5e" style="font-size:6.75px; font-family:Arial;" text-anchor="middle"><textPath startOffset="21.466115282336833" xlink:href="#id66">June</textPath></text><line stroke="#e1ed5e" stroke-width="0.3" x1="102.19456741930631" x2="102.32365962044197" y1="184.97166512339345" y2="189.96999836594603" /><path d="M 102.22038585953345 185.97133177190398 a86.0,86.0 0 0,1 -42.740103519485714,-10.115201625700543" fill="none" id="id67" stroke="none" /><text fill="#e1ed5e" style="font-size:6.75px; font-family:Arial;" text-anchor="middle"><textPath startOffset="22.20632615414155" xlink:href="#id67">July</textPath></text><line stroke="#e1ed5e" stroke-width="0.3" x1="58.666819895761336" x2="56.23545636021788" y1="174.27360380694188" y2="178.64263932499728" /><path d="M 58.180547188652646 175.14741091055294 a86.0,86.0 0 0,1 -31.652253787137756,-30.449443065178592" fill="none" id="id68" stroke="none" /><text fill="#e1ed5e" style="font-size:6.75px; font-family:Arial;" text-anchor="middle"><textPath startOffset="22.20632615414155" xlink:href="#id68">August</textPath></text><line stroke="#e1ed5e" stroke-width="0.3" x1="26.63291911575756" x2="22.317208475507996" y1="142.92168965132927" y2="145.44649492493687" /><path d="M 25.769776987707644 143.4266507060508 a86.0,86.0 0 0,1 -11.730757126820373,-40.83630448921669" fill="none" id="id69" stroke="none" /><text fill="#e1ed5e" style="font-size:6.75px; font-family:Arial;" text-anchor="middle"><textPath startOffset="21.46611528233685" xlink:href="#id69">September</textPath></text><line stroke="#e1ed5e" stroke-width="0.3" x1="15.007084014347285" x2="10.007500721073583" y1="101.09737516637583" y2="101.16192664675087" /><path d="M 14.007167355692545 101.11028546245083 a86.0,86.0 0 0,1 10.666146001902534,-42.60595125391555" fill="none" id="id70" stroke="none" /><text fill="#e1ed5e" style="font-size:6.75px; font-family:Arial;" text-anchor="middle"><textPath startOffset="22.20632615414155" xlink:href="#id70">October</textPath></text><line stroke="#e1ed5e" stroke-width="0.3" x1="26.266209847984243" x2="21.928928074336255" y1="57.711370442889674" y2="55.22380399835377" /><path d="M 25.398753493254645 57.213857153982495 a86.0,86.0 0 0,1 29.58750427330803,-30.492523968695096" fill="none" id="id71" stroke="none" /><text fill="#e1ed5e" style="font-size:6.75px; font-family:Arial;" text-anchor="middle"><textPath startOffset="21.46611528233685" xlink:href="#id71">November</textPath></text><line stroke="#e1ed5e" stroke-width="0.3" x1="56.762969772571076" x2="54.21961505331055" y1="26.818313649435495" y2="22.513508569990535" /><path d="M 56.25429882871897 25.957352633546506 a86.0,86.0 0 0,1 42.265352541879196,-11.944610805530505" fill="none" id="id72" stroke="none" /><text fill="#e1ed5e" style="font-size:6.75px; font-family:Arial;" text-anchor="middle"><textPath startOffset="22.20632615414155" xlink:href="#id72">December</textPath></text></svg>