<?xml version="1.0" encoding="utf-8" ?>
<svg baseProfile="full" height="200mm" version="1.1" viewBox="0,0,200,200" width="200mm" xmlns="http://www.w3.org/2000/svg" xmlns:ev="http://www.w3.org/2001/xml-events" xmlns:xlink="http://www.w3.org/1999/xlink"><defs /><rect fill="#1a1a1a" height="200" width="200" x="0" y="0" /><text alignment-baseline="middle" fill="#e1ed5e" style="dominant-baseline: central; font-size:9.0px; font-family:Arial;" text-anchor="middle" x="100.0" y="100.0">2026</text><line stroke="#e1ed5e" stroke-width="0.3" x1="100.0" x2="100.0" y1="15.0" y2="10.0" /><path d="M 100.0 14.0 a86.0,86.0 0 0,1 42.46469731375804,11.215312516191453" fill="none" id="id61" stroke="none" /><text fill="#e1ed5e" style="font-size:6.75px; font-family:Arial;" text-anchor="middle"><textPath startOffset="22.20632615414155" xlink:href="#id61">January</textPath></text><path d="M 100.0 79.0 l 0.0 -43.00066759549519 a64.00066759549519,64.00066759549519 0 0,0 1.1016662855324466,0.00948238952803692 l -0.7401858062599181 42.99429658257571" fill="#33ff4f" stroke="none" /><path d="M 100.72285384407766 79.0124445844662 l 1.0017116604701726 -29.083996933473383 a50.10124230813886,50.10124230813886 0 0,0 0.861643950869897,0.03710420104065519 l -1.502196443729401 29.062445005908533" fill="#afff20" stroke="none" /><path d="M 101.08401301168833 79.027996857942 l 1.2849344605148443 -24.859156903739997 a45.892342969929175,45.892342969929175 0 0,0 0.7885570957723373,0.04756791747300686 l -1.7126536051267935 24.833355716886686" fill="#e2ff1b" stroke="none" /><path d="M 101.44485096284872 79.0497635885617 l 2.069267135664651 -30.004226598652536 a51.07549634273772,51.07549634273772 0 0,0 0.8765766650052638,0.06803921994200604 l -2.585433990032256 29.964162116522065" fill="#a3ff22" stroke="none" /><path d="M 101.80526077348638 79.07773832637324 l 1.8489617918623087 -21.42873927248328 a42.50835945663532,42.50835945663532 0 0,0 0.7284614503361357,0.06917619228493271 l -2.217548369288689 21.39373753568317" fill="#fff016" stroke="none" /><path d="M 102.16513564639614 79.11191278185805 l 2.467901867006095 -23.809016090813156 a44.93657842795774,44.93657842795774 0 0,0 0.7687007238890012,0.08637248297800389 l -2.8773692944048213 23.76300765436455" fill="#eeff19" stroke="none" /><path d="M 102.52436894288641 79.15227682838746 l 1.7525455077287642 -14.473551377559682 a35.57926970858006,35.57926970858006 0 0,0 0.6073640076653757,0.07885327965870254 l -2.001424243901986 14.441239774736841" fill="#ff920d" stroke="none" /><path d="M 103.2404852339499 79.25152402106235 l 6.6506196958198425 -42.583197589691856 a64.09941367699989,64.09941367699989 0 0,0 1.088685179152771,0.1796423827747799 l -7.3826340811114886 42.46240894397745" fill="#33ff50" stroke="none" /><path d="M 103.95276090670814 79.375362276772 l 6.13325031318636 -32.00195224575061 a53.58437826541275,53.58437826541275 0 0,0 0.9043858850039034,0.18141130051110801 l -6.683202607657388 31.891636989162294" fill="#86ff25" stroke="none" /><path d="M 104.307194497241 79.44645832069477 l 5.431292414813073 -25.91763503873843 a47.480610704748635,47.480610704748635 0 0,0 0.7984820539055175,0.17451724993196713 l -5.876617192872118 25.82030429071059" fill="#ceff1d" stroke="none" /><path d="M 105.01212808612495 79.60689891045804 l 4.460656274179704 -18.1492996112507 a39.68942296528503,39.68942296528503 0 0,0 0.6620405751409421,0.16876888355173722 l -4.772405738005672 18.069827731530097" fill="#ffcb12" stroke="none" /><path d="M 105.36241919743992 79.69619591428918 l 5.721190132366755 -21.662223580009087 a43.40499825844654,43.40499825844654 0 0,0 0.7207340243314982,0.19700383473529717 l -6.093222045921964 21.560533204447495" fill="#fffc17" stroke="none" /><path d="M 105.71112130821622 79.79150937346287 l 7.021701972989159 -24.845908683352473 a46.819052594914666,46.819052594914666 0 0,0 0.7736509165407978,0.22584991744323654 l -7.448343107253383 24.721360436990533" fill="#d7ff1c" stroke="none" /><path d="M 106.0581310904928 79.89281104454417 l 7.340492946580497 -24.363401269859075 a46.44519911761291,46.44519911761291 0 0,0 0.763502957274439,0.23722408536712547 l -7.758781276565654 24.233437049609428" fill="#dbff1b" stroke="none" /><path d="M 106.40334571778207 80.00007090966166 l 6.2054018193309535 -19.381679802018066 a41.35083594566353,41.35083594566353 0 0,0 0.6760215378467619,0.2228736723550933 l -6.538106179420133 19.271992405403736" fill="#ffe115" stroke="none" /><path d="M 106.74666289553966 80.11325718540242 l 11.50815306787841 -33.92190833830212 a56.82085220016255,56.82085220016255 0 0,0 0.9235228285893529,0.3221989810487359 l -12.090357900531036 33.718788504081175" fill="#62ff29" stroke="none" /><path d="M 107.4271985657038 80.35727306442388 l 15.523991893542636 -41.056332480867184 a64.89324277255312,64.89324277255312 0 0,0 1.0414340615292421,0.4040602362244458 l -16.228409120071547 40.78302954075219" fill="#34ff5a" stroke="none" /><path d="M 107.76421540070413 80.48803036053334 l 10.624676274073966 -26.700490672900727 a49.73673516776965,49.73673516776965 0 0,0 0.7927470254601439,0.3233814163775845 l -11.082707169122497 26.513648370339567" fill="#b3ff20" stroke="none" /><path d="M 109.08828744355905 81.06846463323043 l 18.57235628136188 -38.68751092748849 a63.91451875072565,63.91451875072565 0 0,0 0.987718942371952,0.4846693954056469 l -19.235546490744266 38.36208637194801" fill="#32ff4d" stroke="none" /><path d="M 109.41281617654863 81.2277094730956 l 13.806392657887251 -27.534545373158593 a51.80207244862417,51.80207244862417 0 0,0 0.7936558824529667,0.4065413687541258 l -14.278309027928973 27.292811479091966" fill="#9aff22" stroke="none" /><path d="M 109.73455568895987 81.39251694778311 l 4.710460289407001 -9.003986705082664 a31.161703239289448,31.161703239289448 0 0,0 0.47314587792677204,0.2527381419090568 l -4.864751213862084 8.921569836671853" fill="#ff5207" stroke="none" /><path d="M 110.36928655335952 81.73862282372117 l 12.536226259482168 -22.077580257187986 a46.38851155230466,46.38851155230466 0 0,0 0.6909751423633697,0.4002574018162507 l -12.914398134310867 21.858518697981687" fill="#dcff1b" stroke="none" /><line stroke="#e1ed5e" stroke-width="0.3" x1="143.23703022742887" x2="145.7803849466894" y1="26.81831364943548" y2="22.513508569990506" /><path d="M 143.74570117128098 25.957352633546492 a86.0,86.0 0 0,1 28.547481713284135,27.462654790039103" fill="none" id="id62" stroke="none" /><text fill="#e1ed5e" style="font-size:6.75px; font-family:Arial;" text-anchor="middle"><textPath startOffset="19.985693538727396" xlink:href="#id62">February</textPath></text><path d="M 110.68208982089419 81.91981866633111 l 14.499203712251107 -24.540912565492796 a49.504092650644374,49.504092650644374 0 0,0 0.7299211886721981,0.4397693490310756 l -14.919486967140942 24.287696607003106" fill="#b6ff1f" stroke="none" /><path d="M 110.99172775467656 82.1063720568725 l 14.91470129674967 -24.279905929563572 a49.494949494949495,49.494949494949495 0 0,0 0.7221097418835547,0.4521850541210069 l -15.330430191005487 24.01957653411962" fill="#b6ff1f" stroke="none" /><path d="M 111.2981086023043 82.29822771554956 l 11.509737711926002 -18.033350820217077 a42.3933588761175,42.3933588761175 0 0,0 0.6117421727249653,0.3978941258559039 l -11.818446910435247 17.832557770201646" fill="#ffef16" stroke="none" /><path d="M 111.60114157652 82.49532879139004 l 18.47162684973869 -27.87137391265246 a54.43672355741321,54.43672355741321 0 0,0 0.7766184204614196,0.5243762242454788 l -18.948649964606652 27.54928577610831" fill="#7cff26" stroke="none" /><path d="M 112.19680574252982 82.90503203632743 l 16.03878303034614 -22.479859716384443 a48.61497155462673,48.61497155462673 0 0,0 0.6770321964989486,0.49189268358536536 l -16.423360543198875 22.200447797982402" fill="#c1ff1e" stroke="none" /><path d="M 112.48926042617603 83.11751280151076 l 14.203820937293061 -19.200162136174185 a44.88293858121445,44.88293858121445 0 0,0 0.6171486259977114,0.46482355026867156 l -14.532215717049157 18.952821996399663" fill="#efff19" stroke="none" /><path d="M 112.77801427241765 83.33499621200491 l 16.9409201180468 -22.094238738548235 a48.841518634622076,48.841518634622076 0 0,0 0.6627734651162535,0.5173052022617409 l -17.318726138322482 21.79935514706327" fill="#beff1f" stroke="none" /><path d="M 113.06298171725822 83.55741782278167 l 9.46521441237536 -11.914015434535777 a36.21624288865668,36.21624288865668 0 0,0 0.4847744187030623,0.39198719945680893 l -9.668892229642914 11.749322137814838" fill="#ff9b0e" stroke="none" /><path d="M 113.34407831869373 83.78471172551755 l 16.824956986117986 -20.4451383767341 a47.47796934865901,47.47796934865901 0 0,0 0.6265791126412804,0.5247419873864513 l -17.174393635718385 20.15249523195383" fill="#ceff1d" stroke="none" /><path d="M 113.89432698308785 84.25364557470407 l 24.79889205488004 -28.10443025603925 a58.48124927435273,58.48124927435273 0 0,0 0.7490863564981364,0.6725371270555233 l -25.278989398974165 27.673394120214432" fill="#50ff2b" stroke="none" /><path d="M 114.42810811169701 84.74124197986012 l 30.751514259623274 -32.52192950093458 a65.7585916637641,65.7585916637641 0 0,0 0.8157721430885378,0.7847721553157515 l -31.30676964632423 31.98777425885653" fill="#35ff64" stroke="none" /><path d="M 114.68862486808459 84.99185889309783 l 3.8927215039446663 -3.9773984389794257 a26.56533728085452,26.56533728085452 0 0,0 0.3240518270397759,0.3226602455111356 l -3.960609131151765 3.9098023428181716" fill="#ff0d01" stroke="none" /><path d="M 115.19652480421416 85.50635884689758 l 23.500829546483747 -22.413847549704684 a53.47567630326251,53.47567630326251 0 0,0 0.6295683172331545,0.671579585442848 l -23.883165185687364 22.00599854738378" fill="#87ff25" stroke="none" /><path d="M 115.9244219780498 86.31012108654704 l 19.63281735509305 -16.877905690494448 a46.89036920933473,46.89036920933473 0 0,0 0.520905974581346,0.6165883717021282 l -19.920433943161513 16.53745836916321" fill="#d6ff1c" stroke="none" /><path d="M 116.15771136456269 86.58626213691792 l 33.37127998517493 -27.7040226661314 a64.37228607918263,64.37228607918263 0 0,0 0.7004364017896203,0.8586522080616729 l -33.84321487904096 27.12548628846163" fill="#33ff53" stroke="none" /><path d="M 116.38621287248628 86.86637796730983 l 11.40721779469272 -9.142935474225885 a35.619093231162196,35.619093231162196 0 0,0 0.37933642162345627,0.48171873324504333 l -11.56290829691014 8.945224347027803" fill="#ff930d" stroke="none" /><path d="M 116.60985879189232 87.15038557335679 l 21.755482351797898 -16.830339341758823 a48.5056600487635,48.5056600487635 0 0,0 0.505207375617837,0.6647936865701554 l -22.041965667639847 16.453360879307635" fill="#c2ff1e" stroke="none" /><path d="M 116.82858285166822 87.43820079747576 l 23.913273600553488 -17.850210198501593 a50.84082201323581,50.84082201323581 0 0,0 0.517456403560416,0.7058099529272046 l -24.216992616627532 17.435937801902895" fill="#a6ff21" stroke="none" /><path d="M 117.04232023915458 87.72973835380427 l 23.152960605875712 -16.669847798391714 a49.529693486590034,49.529693486590034 0 0,0 0.49220104645872187,0.6961834744728748 l -23.436474272138316 16.26883782358705" fill="#b5ff1f" stroke="none" /><path d="M 117.2510076193507 88.02491185347247 l 11.820468667541473 -8.205384714356978 a35.38929525136422,35.38929525136422 0 0,0 0.34306641382873465,0.5034076301216541 l -11.959959547038942 8.000699060964916" fill="#ff900d" stroke="none" /><path d="M 117.45458315368197 88.32363383020206 l 21.993524593187264 -14.712722971005984 a47.460902124695224,47.460902124695224 0 0,0 0.44840012716608296,0.6829441566384061 l -22.243521355711273 14.331960750389904" fill="#cfff1d" stroke="none" /><path d="M 117.65298651832404 88.62581576622439 l 4.3027403960062225 -2.7723446071565765 a26.118541739231393,26.118541739231393 0 0,0 0.24025626144369835,0.38002770793794477 l -4.349824253695876 2.6978692515044256" fill="#ff0601" stroke="none" /><line stroke="#e1ed5e" stroke-width="0.3" x1="172.23445277983987" x2="176.4835382374775" y1="55.19839476539836" y2="52.563006222186495" /><path d="M 173.08426987136738 54.67131705675599 a86.0,86.0 0 0,1 12.851231095245387,41.99856678651699" fill="none" id="id63" stroke="none" /><text fill="#e1ed5e" style="font-size:6.75px; font-family:Arial;" text-anchor="middle"><textPath startOffset="22.20632615414155" xlink:href="#id63">March</textPath></text><path d="M 117.84615892207809 88.93136811851018 l 22.98645219107325 -14.256769687828607 a48.04870544525717,48.04870544525717 0 0,0 0.42988536504583374,0.7066185093893239 l -23.22845335440531 13.8589834052322" fill="#c7ff1e" stroke="none" /><path d="M 118.03404312379186 89.2402003453031 l 19.581722624817772 -11.683204420140235 a43.80221757807965,43.80221757807965 0 0,0 0.38074624074401003,0.6508187461388071 l -19.779928540032106 11.344406261647533" fill="#fdff18" stroke="none" /><path d="M 118.21658344932153 89.55222093294921 l 19.58975386665255 -11.23533515195533 a43.5829850226402,43.5829850226402 0 0,0 0.36763775078224054,0.6539865365189917 l -19.780249258727224 10.896465105501543" fill="#fffe18" stroke="none" /><path d="M 118.3937258080291 89.86733742301442 l 18.337488943644473 -10.101683036617079 a41.93579472889817,41.93579472889817 0 0,0 0.34285887179946717,0.6352654182061404 l -18.508655914662405 9.78453663507848" fill="#ffe915" stroke="none" /><path d="M 118.89224826269711 90.83032412892265 l 26.055897220313145 -12.646675436302313 a49.962875885289684,49.962875885289684 0 0,0 0.3688730722912132,0.7769407646072237 l -26.269728486446116 12.19629225605455" fill="#b0ff20" stroke="none" /><path d="M 119.34039704204932 91.81776055985345 l 24.393121614685803 -10.319868889456089 a47.486299779403225,47.486299779403225 0 0,0 0.3120037875989711,0.7555419195893486 l -24.567147089170973 9.898452399413436" fill="#ceff1d" stroke="none" /><path d="M 119.47837535516314 92.15188598940014 l 21.582897759194886 -8.696055970005869 a44.26892488099384,44.26892488099384 0 0,0 0.2786970194795173,0.7092535156382928 l -21.729388328556105 8.32325344947179" fill="#f7ff19" stroke="none" /><path d="M 119.61058180528143 92.48833698450437 l 25.930761378155037 -9.932552901386726 a48.76796702658772,48.76796702658772 0 0,0 0.293526060012606,0.7865039088581735 l -26.097892026669268 9.484725855499219" fill="#bfff1e" stroke="none" /><path d="M 119.97218684219823 93.5106431181261 l 40.87596849037034 -13.281407265116982 a63.97953674677812,63.97953674677812 0 0,0 0.33130589391726967,1.0503302212174552 l -41.09852986805581 12.575826877473109" fill="#33ff4e" stroke="none" /><path d="M 120.08093135843002 93.85539295169968 l 19.83437864843885 -6.069163858313349 a41.74216300940439,41.74216300940439 0 0,0 0.2043261047223243,0.6888860491759807 l -19.935910650272877 5.726848422390838" fill="#ffe615" stroke="none" /><path d="M 120.18372546131832 94.20196356495316 l 19.588501234315544 -5.627050570133122 a41.38070358760014,41.38070358760014 0 0,0 0.19077140716912638,0.6863062531491406 l -19.682459412051035 5.289033013565029" fill="#ffe215" stroke="none" /><path d="M 120.28053869075195 94.5502522615342 l 24.61739834227677 -6.615140405708829 a46.49071171484964,46.49071171484964 0 0,0 0.2010251027461256,0.7746317241811345 l -24.727619776893196 6.190412255978845" fill="#dbff1b" stroke="none" /><path d="M 120.37134235888165 94.90015583598534 l 10.058148263439856 -2.5179974799124536 a31.368541739231397,31.368541739231397 0 0,0 0.12662016395886908,0.5249223251654406 l -10.100001227659543 2.344489923087607" fill="#ff5607" stroke="none" /><path d="M 120.45610955862082 95.25157060432595 l 22.194827412180214 -5.1520339492654905 a43.784947172878205,43.784947172878205 0 0,0 0.16410100511070383,0.7356326289377629 l -22.280222804292958 4.769223150777764" fill="#fdff18" stroke="none" /><path d="M 120.53481517161879 95.60439243477599 l 19.923276788764937 -4.264703891651515 a41.374608150470216,41.374608150470216 0 0,0 0.143078722625155,0.6977026648943437 l -19.993734807305092 3.9211255705937593" fill="#ffe115" stroke="none" /><path d="M 120.6074358757038 95.95851677861258 l 20.59308029515646 -4.038667837743134 a41.985370950888196,41.985370950888196 0 0,0 0.13298221691306433,0.7103963202246221 l -20.659548235979386 3.683593440055949" fill="#ffea15" stroke="none" /><path d="M 120.67395015179393 96.31383870115 l 24.085603986975233 -4.294458515394611 a45.46545918959713,45.46545918959713 0 0,0 0.13074164026609714,0.7716445617104145 l -24.15595748876155 3.8792281653683585" fill="#e8ff1a" stroke="none" /><path d="M 120.73433829027371 96.67025291283417 l 22.124972922304533 -3.553070424061932 a43.40845233948682,43.40845233948682 0 0,0 0.11212631973039025,0.7387723521818376 l -22.182855135474224 3.1716989594880127" fill="#fffc17" stroke="none" /><path d="M 120.78858239683441 97.02765380044208 l 12.09911747261095 -1.729928724875253 a33.22216417044003,33.22216417044003 0 0,0 0.07606926539391234,0.5668043837707218 l -12.127102737062698 1.5214059990398667" fill="#ff710a" stroke="none" /><path d="M 120.83666639777658 97.38593545837742 l 26.730469777735152 -3.353471802684693 a47.940003483106935,47.940003483106935 0 0,0 0.09567374395160617,0.8196742112065674 l -26.784233874690347 2.8928538531532726" fill="#c9ff1d" stroke="none" /><path d="M 120.87857604477298 97.74499172005257 l 4.690185171712716 -0.5065674198287418 a25.717461976082667,25.717461976082667 0 0,0 0.043747698187793525,0.4405333505226291 l -4.698209995582737 0.4257585386016777" fill="#ff0000" stroke="none" /><path d="M 120.94382443527127 98.46500227214037 l 26.418893056508487 -1.936271999397226 a47.489753860443514,47.489753860443514 0 0,0 0.05273490444625332,0.8157856307623536 l -26.448308551959155 1.481227304381837" fill="#ceff1d" stroke="none" /><path d="M 120.96714384426684 98.82574320788733 l 23.712899213400252 -1.3280317609702574 a44.75005805178219,44.75005805178219 0 0,0 0.03645295355274103,0.7694642352606929 l -23.732245775186488 0.9196564190865649" fill="#f1ff19" stroke="none" /><path d="M 120.98425023603335 99.18683210126433 l 22.395909858030528 -0.8678716063086113 a43.412719145477766,43.412719145477766 0 0,0 0.022509092884153776,0.7469672099388286 l -22.407530645370326 0.4822342489447836" fill="#fffc17" stroke="none" /><line stroke="#e1ed5e" stroke-width="0.3" x1="184.98032266829074" x2="189.97916517819016" y1="98.17113171792111" y2="98.06355123074" /><path d="M 185.9800911702706 98.14961562048488 a86.0,86.0 0 0,1 -9.607161424134198,41.387399972396054" fill="none" id="id64" stroke="none" /><text fill="#e1ed5e" style="font-size:6.75px; font-family:Arial;" text-anchor="middle"><textPath startOffset="21.466115282336823" xlink:href="#id64">April</textPath></text><path d="M 120.99513854157772 99.54816195383933 l 20.38492339994201 -0.43870555757106794 a41.38964356205736,41.38964356205736 0 0,0 0.009198341519257717,0.7124216875945205 l -20.389454748578984 0.08774761191608466" fill="#ffe215" stroke="none" /><path d="M 120.99980553446 99.90962569577887 l 24.415860049445826 -0.10507556178595319 a45.41608614884477,45.41608614884477 0 0,0 -0.003364472777234403,0.7817849847567764 l -24.414051279379088 -0.31521890117450785" fill="#e8ff1a" stroke="none" /><path d="M 120.99824983174949 100.27111621757518 l 14.968536445429462 0.19326434423049385 a35.969784047370254,35.969784047370254 0 0,0 -0.01332241550258403,0.6190402989785654 l -14.962991967241871 -0.450894458999174" fill="#ff980e" stroke="none" /><path d="M 120.9904718944345 100.63252640178507 l 26.62720848863348 0.8023836938778819 a47.63929525136422,47.63929525136422 0 0,0 -0.03175469171385251,0.8194474943338269 l -26.609451664068427 -1.260608435225715" fill="#ccff1d" stroke="none" /><path d="M 120.9764740272857 100.99374915477107 l 24.39847496166847 1.1558646052392996 a45.425838848252646,45.425838848252646 0 0,0 -0.043724855577058054,0.7807366690249276 l -24.37496375520388 -1.5756729905996505" fill="#e8ff1a" stroke="none" /><path d="M 120.95626037817324 101.35467743843564 l 17.10020790059962 1.1054102887378099 a38.13589922210612,38.13589922210612 0 0,0 -0.047984842660859596,0.654715053972437 l -17.078646499274424 -1.3995984792070173" fill="#ffb610" stroke="none" /><path d="M 120.92983693683757 101.71520430193887 l 21.11735414922497 1.7305713748092932 a42.18814582607686,42.18814582607686 0 0,0 -0.06554310904273222,0.7232627466673625 l -21.08443644390516 -2.0938155100252263" fill="#ffec16" stroke="none" /><path d="M 120.89721153311464 102.0752229133903 l 20.679658613016812 2.053618557041293 a41.781376988273536,41.781376988273536 0 0,0 -0.07723128070484243,0.7150657412525545 l -20.641245030810918 -2.4092806201786385" fill="#ffe715" stroke="none" /><path d="M 120.81339534386255 102.79330883721812 l 30.026740130545463 4.029806630480267 a51.295947985603156,51.295947985603156 0 0,0 -0.12498123131840201,0.8741184407478805 l -29.952924848210458 -4.546070543208557" fill="#a0ff22" stroke="none" /><path d="M 120.76222939487914 103.15116336523771 l 7.813457124339363 1.1858784226777905 a28.902937420178798,28.902937420178798 0 0,0 -0.0788888412728627,0.49124088991139564 l -7.791886528705213 -1.3201985422823912" fill="#ff3104" stroke="none" /><path d="M 120.70491114924044 103.5080841355445 l 18.062408701684124 3.060358431841111 a39.31983629397423,39.31983629397423 0 0,0 -0.1188087380711121,0.666342498155471 l -18.00705352127382 -3.3708196807298" fill="#ffc612" stroke="none" /><path d="M 120.64145759157962 103.86396538481128 l 22.04862998786306 4.127380185126506 a43.43161500058052,43.43161500058052 0 0,0 -0.14388287459835897,0.7336556777488509 l -21.974317180289034 -4.506299589943302" fill="#fffc17" stroke="none" /><path d="M 120.49622156327973 104.57218783832717 l 20.494040185931574 4.571701228297544 a41.99776500638569,41.99776500638569 0 0,0 -0.16347016875255233,0.7042252085741928 l -20.41230945124847 -4.923795094220302" fill="#ffea16" stroke="none" /><path d="M 120.41448212921028 104.9243191809786 l 19.453763437731524 4.692577545308879 a41.01172646000232,41.01172646000232 0 0,0 -0.17144597925781335,0.6848414632272382 l -19.370106144178653 -5.026746847933513" fill="#ffdd14" stroke="none" /><path d="M 120.13307415673323 105.97154293290107 l 27.53561570346661 8.167163647093833 a49.721293393707185,49.721293393707185 0 0,0 -0.25043722273437674,0.8184433340966745 l -27.3909517082261 -8.639933953742565" fill="#b3ff20" stroke="none" /><path d="M 120.02730092923936 106.31721596034902 l 20.489248812432457 6.462928283285974 a42.48438407059096,42.48438407059096 0 0,0 -0.2259921386422348,0.6955322846302384 l -20.374964422773978 -6.814659467894008" fill="#fff016" stroke="none" /><path d="M 119.79798401119884 107.00284435728193 l 24.99822076509823 8.84224621698518 a47.51596424010217,47.51596424010217 0 0,0 -0.2793842285045636,0.7687454060929814 l -24.84231227558844 -9.27123942008429" fill="#ceff1d" stroke="none" /><path d="M 119.67450827220406 107.3425965602758 l 27.601723165269448 10.301061392081639 a50.46127946127946,50.46127946127946 0 0,0 -0.31071105206543437,0.8111685111226027 l -27.420317833610504 -10.774653470037386" fill="#aaff21" stroke="none" /><path d="M 119.54520255179757 107.68017299344265 l 19.18060687743066 7.5369072562686314 a41.60826657378381,41.60826657378381 0 0,0 -0.26767466854284355,0.6643465754835449 l -19.04802959463042 -7.86595319959499" fill="#ffe515" stroke="none" /><path d="M 119.26925614724726 108.34839909993367 l 11.22567099286014 4.86351838891991 a33.23394868222454,33.23394868222454 0 0,0 -0.23193959376016057,0.5229625536646547 l -11.140290314368706 -5.0560292790772525" fill="#ff710a" stroke="none" /><path d="M 118.97047184881838 109.00673069616215 l 20.2128876151469 9.596600273954651 a43.37533379774759,43.37533379774759 0 0,0 -0.3260311992011511,0.6717208376057222 l -20.044703159331036 -9.943110067525648" fill="#fffc17" stroke="none" /><path d="M 118.64920377521936 109.65438752849418 l 14.476427289038364 7.494209445132245 a37.30123069778242,37.30123069778242 0 0,0 -0.3000928269769029,0.5676625357056866 l -14.345281953836567 -7.742286995924066" fill="#ffaa0f" stroke="none" /><line stroke="#e1ed5e" stroke-width="0.3" x1="174.80103733775053" x2="179.2010983576182" y1="140.37084112569926" y2="142.7455964860345" /><path d="M 175.68104954172406 140.8457921977663 a86.0,86.0 0 0,1 -30.038265399797805,32.042727171017184" fill="none" id="id65" stroke="none" /><text fill="#e1ed5e" style="font-size:6.75px; font-family:Arial;" text-anchor="middle"><textPath startOffset="22.206326154141568" xlink:href="#id65">May</textPath></text><path d="M 118.48025628344425 109.97397251340804 l 22.278367703902884 12.023849870598863 a46.31597585045861,46.31597585045861 0 0,0 -0.38469518131400776,0.6983334963538328 l -22.06809611313737 -12.4055538853505" fill="#ddff1b" stroke="none" /><path d="M 118.30583269289576 110.29060199501025 l 16.605180524495427 9.334582408763794 a40.04905375595031,40.04905375595031 0 0,0 -0.34298773209493855,0.5980280214295011 l -16.442040796248108 -9.619030276051609" fill="#ffd013" stroke="none" /><path d="M 117.75023020441432 111.22182372390056 l 19.325246277063084 12.217560259485253 a43.86337513061652,43.86337513061652 0 0,0 -0.408963596497274,0.634720583654137 l -19.11207781718876 -12.548402443060843" fill="#fcff18" stroke="none" /><path d="M 117.35343817320211 111.8261652097733 l 21.1761778334779 14.431317590826335 a46.62603041913387,46.62603041913387 0 0,0 -0.45768798158242374,0.6593336734521726 l -20.924628944733342 -14.793692526465527" fill="#d9ff1c" stroke="none" /><path d="M 117.14729908036423 112.12312394758627 l 5.73716813245555 4.0561723483056715 a28.026210379658657,28.026210379658657 0 0,0 -0.28189057025316844,0.39152134723564497 l -5.666497769826779 -4.154327300992447" fill="#ff2403" stroke="none" /><path d="M 116.71984013943494 112.70617746262583 l 28.523345845672303 21.6762057005655 a56.825119006153486,56.825119006153486 0 0,0 -0.5985394730920534,0.7736929529044064 l -28.14599955536218 -22.163976647583162" fill="#62ff29" stroke="none" /><path d="M 116.498646956653 112.99209946851258 l 16.51732358591428 13.006806651818971 a42.02377220480669,42.02377220480669 0 0,0 -0.4524201030187567,0.5644636412868539 l -16.290985570840668 -13.289198126684076" fill="#ffea16" stroke="none" /><path d="M 116.27256486870786 113.27417163493432 l 17.344901639875175 14.148918945255328 a43.38386740972948,43.38386740972948 0 0,0 -0.477024215475937,0.5746063972802391 l -17.098781424505695 -14.44538659964934" fill="#fffc17" stroke="none" /><path d="M 116.0416608686014 113.55231037782055 l 15.90228423386317 13.434562257544195 a41.81754324857773,41.81754324857773 0 0,0 -0.469267490375012,0.5458641076780184 l -15.668674233917379 -13.706303464383742" fill="#ffe715" stroke="none" /><path d="M 115.56566222782051 114.09645910891815 l 31.897890699880424 28.887130231308138 a64.03419249970975,64.03419249970975 0 0,0 -0.7469240697093953,0.8106385583741721 l -31.395920222175306 -29.431920044483647" fill="#33ff4f" stroke="none" /><path d="M 115.32070863581623 114.36230785411682 l 13.39205679111825 12.554304569451064 a39.35640891675374,39.35640891675374 0 0,0 -0.46757934218955066,0.4902550709281685 l -13.173970897549735 -12.782966756961741" fill="#ffc612" stroke="none" /><path d="M 114.81725581225074 114.88116024355365 l 15.894759727697123 15.963311259368401 a43.5271101822826,43.5271101822826 0 0,0 -0.535487189930322,0.5240869204603821 l -15.617622585391008 -16.234548282751355" fill="#fffe18" stroke="none" /><path d="M 114.55890576462653 115.13401014063108 l 14.274365054415753 14.838229532983005 a41.58957389991873,41.58957389991873 0 0,0 -0.5201947964982856,0.4918766490112219 l -14.01683442352666 -15.081740818740148" fill="#ffe415" stroke="none" /><path d="M 114.29624159901734 115.38237550388516 l 14.436636788682211 15.533436991717924 a42.206228956228955,42.206228956228955 0 0,0 -0.5364219773201048,0.4900087578395921 l -14.167115261895242 -15.779638516144098" fill="#ffec16" stroke="none" /><path d="M 114.0293411484842 115.62618273729858 l 8.330786636935153 9.279009823512547 a33.47004528039011,33.47004528039011 0 0,0 -0.4320148438958339,0.38120287023347327 l -8.16982944013273 -9.42103583551831" fill="#ff740a" stroke="none" /><path d="M 113.75828350139079 115.86535959552629 l 16.707723181141514 19.266504885186063 a46.50188668292117,46.50188668292117 0 0,0 -0.6092511633701747,0.5192170588457795 l -16.37360654119429 -19.55124633425479" fill="#dbff1b" stroke="none" /><path d="M 113.48314897796784 116.09983520530334 l 40.449446933903516 48.299505615910014 a84.0,84.0 0 0,0 -1.1165194858212355,0.9188195245712865 l -39.612057319537584 -48.98862025933848" fill="#4dd2ff" stroke="none" /><path d="M 113.20401910651253 116.32954008644616 l 14.136103585411822 17.482258114143743 a43.48241030999652,43.48241030999652 0 0,0 -0.5860652588968722,0.4656056864777178 l -13.8330808337976 -17.722997714626587" fill="#fffd17" stroke="none" /><line stroke="#e1ed5e" stroke-width="0.3" x1="143.8653032363475" x2="146.44561519142675" y1="172.8068346515853" y2="177.08958963109032" /><path d="M 144.38136562736335 173.6633856474863 a86.0,86.0 0 0,1 -40.68145358897372,12.25698825130547" fill="none" id="id66" stroke="none" /><text fill="#e1ed5e" style="font-size:6.75px; font-family:Arial;" text-anchor="middle"><textPath startOffset="21.466115282336833" xlink:href="#id66">June</textPath></text><line stroke="#e1ed5e" stroke-width="0.3" x1="102.19456741930631" x2="102.32365962044197" y1="184.97166512339345" y2="189.96999836594603" /><path d="M 102.22038585953345 185.97133177190398 a86.0,86.0 0 0,1 -42.740103519485714,-10.115201625700543" fill="none" id="id67" stroke="none" /><text fill="#e1ed5e" style="font-size:6.75px; font-family:Arial;" text-anchor="middle"><textPath startOffset="22.20632615414155" xlink:href="#id67">July</textPath></text><line stroke="#e1ed5e" stroke-width="0.3" x1="58.666819895761336" x2="56.23545636021788" y1="174.27360380694188" y2="178.64263932499728" /><path d="M 58.180547188652646 175.14741091055294 a86.0,86.0 0 0,1 -31.652253787137756,-30.449443065178592" fill="none" id="id68" stroke="none" /><text fill="#e1ed5e" style="font-size:6.75px; font-family:Arial;" text-anchor="middle"><textPath startOffset="22.20632615414155" xlink:href="#id68">August</textPath></text><line stroke="#e1ed5e" stroke-width="0.3" x1="26.63291911575756" x2="22.317208475507996" y1="142.92168965132927" y2="145.44649492493687" /><path d="M 25.769776987707644 143.4266507060508 a86.0,86.0 0 0,1 -11.730757126820373,-40.83630448921669" fill="none" id="id69" stroke="none" /><text fill="#e1ed5e" style="font-size:6.75px; font-family:Arial;" text-anchor="middle"><textPath startOffset="21.46611528233685" xlink:href="#id69">September</textPath></text><line stroke="#e1ed5e" stroke-width="0.3" x1="15.007084014347285" x2="10.007500721073583" y1="101.09737516637583" y2="101.16192664675087" /><path d="M 14.007167355692545 101.11028546245083 a86.0,86.0 0 0,1 10.666146001902534,-42.60595125391555" fill="none" id="id70" stroke="none" /><text fill="#e1ed5e" style="font-size:6.75px; font-family:Arial;" text-anchor="middle"><textPath startOffset="22.20632615414155" xlink:href="#id70">October</textPath></text><line stroke="#e1ed5e" stroke-width="0.3" x1="26.266209847984243" x2="21.928928074336255" y1="57.711370442889674" y2="55.22380399835377" /><path d="M 25.398753493254645 57.213857153982495 a86.0,86.0 0 0,1 29.58750427330803,-30.492523968695096" fill="none" id="id71" stroke="none" /><text fill="#e1ed5e" style="font-size:6.75px; font-family:Arial;" text-anchor="middle"><textPath startOffset="21.46611528233685" xlink:href="#id71">November</textPath></text><line stroke="#e1ed5e" stroke-width="0.3" x1="56.762969772571076" x2="54.21961505331055" y1="26.818313649435495" y2="22.513508569990535" /><path d="M 56.25429882871897 25.957352633546506 a86.0,86.0 0 0,1 42.265352541879196,-11.944610805530505" fill="none" id="id72" stroke="none" /><text fill="#e1ed5e" style="font-size:6.75px; font-family:Arial;" text-anchor="middle"><textPath startOffset="22.20632615414155" xlink:href="#id72">December</textPath></text></svg>