<?xml version="1.0" encoding="utf-8" ?>
<svg baseProfile="full" height="200mm" version="1.1" viewBox="0,0,200,200" width="200mm" xmlns="http://www.w3.org/2000/svg" xmlns:ev="http://www.w3.org/2001/xml-events" xmlns:xlink="http://www.w3.org/1999/xlink"><defs /><rect fill="#1a1a1a" height="200" width="200" x="0" y="0" /><text alignment-baseline="middle" fill="#e1ed5e" style="dominant-baseline: central; font-size:9.0px; font-family:Arial;" text-anchor="middle" x="100.0" y="100.0">2025</text><line stroke="#e1ed5e" stroke-width="0.3" x1="100.0" x2="100.0" y1="15.0" y2="10.0" /><path d="M 100.0 14.0 a86.0,86.0 0 0,1 42.46469731375804,11.215312516191453" fill="none" id="id49" stroke="none" /><text fill="#e1ed5e" style="font-size:6.75px; font-family:Arial;" text-anchor="middle"><textPath startOffset="22.20632615414155" xlink:href="#id49">January</textPath></text><path d="M 100.0 79.0 l 0.0 -27.2922605866317 a48.2922605866317,48.2922605866317 0 0,0 0.8312718810480695,0.007155019522079775 l -0.4697914017755411 27.288216943718176" fill="#fff216" stroke="none" /><path d="M 100.36148047927253 79.00311137660856 l 0.46477609745312976 -26.996898899429837 a48.00089937403567,48.00089937403567 0 0,0 0.8260117390698969,0.02133344624816923 l -0.9294144717178944 26.98489866103931" fill="#ffee16" stroke="none" /><path d="M 100.72285384407766 79.0124445844662 l 0.4510417979814486 -13.095682906599631 a34.10344800019186,34.10344800019186 0 0,0 0.5865129948763338,0.025256483322232712 l -0.6763956252471138 13.085978696753203" fill="#ff0801" stroke="none" /><path d="M 101.08401301168833 79.027996857942 l 1.4229474404749847 -27.529243533844983 a48.56599406812858,48.56599406812858 0 0,0 0.8344977997910038,0.050339186198033556 l -1.8966072891056003 27.50067107826665" fill="#fff617" stroke="none" /><path d="M 101.44485096284872 79.0497635885617 l 1.9605581181750635 -28.427953560794236 a49.49547914651403,49.49547914651403 0 0,0 0.8494598222197768,0.06593443104666913 l -2.4496081297571815 28.389993867559102" fill="#faff18" stroke="none" /><path d="M 102.16513564639614 79.11191278185805 l 1.3220643286011855 -12.754579626353507 a33.82291525098531,33.82291525098531 0 0,0 0.5785865401201258,0.06501093928336649 l -1.5414175722310366 12.72993273359954" fill="#ff0300" stroke="none" /><path d="M 102.52436894288641 79.15227682838746 l 1.754951734731385 -14.493423415115863 a35.59928689632016,35.59928689632016 0 0,0 0.6077057156168766,0.07889764315789123 l -2.0041721788561078 14.461067448793836" fill="#ff2203" stroke="none" /><path d="M 102.88285421437855 79.19881850522331 l 3.530964607861869 -25.477610103707757 a46.721126096237015,46.721126096237015 0 0,0 0.7956630457770753,0.11726005007059936 l -3.9689966340676 25.41305556947619" fill="#ffda14" stroke="none" /><path d="M 103.95276090670814 79.375362276772 l 6.443101082232797 -33.618685463537986 a55.23053554725911,55.23053554725911 0 0,0 0.9321693819556482,0.18698440862605908 l -7.020836873655571 33.50279709883471" fill="#a8ff21" stroke="none" /><path d="M 104.66035177308747 79.52364482259891 l 3.5858259991252246 -15.755172643073578 a37.15808197494543,37.15808197494543 0 0,0 0.6224444322233627,0.14731248673423392 l -3.8564941183111108 15.691114244198475" fill="#ff3e05" stroke="none" /><path d="M 105.01212808612495 79.60689891045804 l 9.734396038302906 -39.606833473449065 a61.78553326884488,61.78553326884488 0 0,0 1.0306153862824776,0.2627268095722183 l -10.41472031327041 39.43340366770798" fill="#52ff2b" stroke="none" /><path d="M 105.71112130821622 79.79150937346287 l 11.841329991524299 -41.899899025992156 a64.54099946437279,64.54099946437279 0 0,0 1.066493246287829,0.31133862376181076 l -12.560813455535556 41.689862073311645" fill="#30ff2f" stroke="none" /><path d="M 108.76106565485865 80.91482961587045 l 12.484765448389457 -27.196905624861532 a50.92559178811547,50.92559178811547 0 0,0 0.7935220588349357,0.3725692465921545 l -12.95106571852399 26.977971395629375" fill="#e5ff1a" stroke="none" /><path d="M 109.73455568895987 81.39251694778311 l 17.256935212415943 -32.98641866751135 a58.227753483575434,58.227753483575434 0 0,0 0.884105125131734,0.47225833934592815 l -17.822185384075986 32.68448160166367" fill="#7fff26" stroke="none" /><path d="M 110.36928655335952 81.73862282372117 l 13.913198945875715 -24.502570391106087 a49.17717268780929,49.17717268780929 0 0,0 0.7325133478506457,0.4243190115401261 l -14.33290902619169 24.25944722217591" fill="#feff18" stroke="none" /><line stroke="#e1ed5e" stroke-width="0.3" x1="143.23703022742887" x2="145.7803849466894" y1="26.81831364943548" y2="22.513508569990506" /><path d="M 143.74570117128098 25.957352633546492 a86.0,86.0 0 0,1 28.547481713284135,27.462654790039103" fill="none" id="id50" stroke="none" /><text fill="#e1ed5e" style="font-size:6.75px; font-family:Arial;" text-anchor="middle"><textPath startOffset="19.985693538727396" xlink:href="#id50">February</textPath></text><path d="M 110.68208982089419 81.91981866633111 l 7.894807931775694 -13.36251252276432 a36.520461758616,36.520461758616 0 0,0 0.5384819199864592,0.32442933167651533 l -8.12365191797979 13.22463658162919" fill="#ff3304" stroke="none" /><path d="M 111.2981086023043 82.29822771554956 l 15.448856328438053 -24.205125513258547 a49.7150703110635,49.7150703110635 0 0,0 0.7173955057002478,0.46661399256168207 l -15.863218859922581 23.93561259653734" fill="#f6ff19" stroke="none" /><path d="M 111.60114157652 82.49532879139004 l 15.344730272111416 -23.15327818615309 a48.77651954239849,48.77651954239849 0 0,0 0.6958674418138171,0.469852802998016 l -15.741002408331775 22.885713470856405" fill="#fffa17" stroke="none" /><path d="M 112.19680574252982 82.90503203632743 l 16.20486252260736 -22.712635711965703 a48.900920959012524,48.900920959012524 0 0,0 0.6810144461464949,0.49478595731144204 l -16.593422285107643 22.430330519837586" fill="#fffb17" stroke="none" /><path d="M 112.77801427241765 83.33499621200491 l 13.686461040863692 -17.849794203359128 a43.49298488252177,43.49298488252177 0 0,0 0.590194512879131,0.4606561788124026 l -13.991688108902254 17.611559635323502" fill="#ffa70f" stroke="none" /><path d="M 113.34407831869373 83.78471172551755 l 8.110970466370777 -9.856186478894285 a33.76449191362811,33.76449191362811 0 0,0 0.44559878344127907,0.3731761663970872 l -8.279426786771172 9.715109155103379" fill="#ff0200" stroke="none" /><path d="M 113.6212207817346 84.01681056812373 l 8.910739612901038 -10.45589389477499 a34.73779449503146,34.73779449503146 0 0,0 0.45176700466320896,0.3917678946579468 l -9.089400416211012 10.300961006697372" fill="#ff1302" stroke="none" /><path d="M 113.89432698308785 84.25364557470407 l 17.33039236873815 -19.640425973834997 a47.19329746496439,47.19329746496439 0 0,0 0.604498975104259,0.5427251484397286 l -17.6659023314384 19.33920181662597" fill="#ffe215" stroke="none" /><path d="M 114.42810811169701 84.74124197986012 l 39.47708794364476 -41.749848809596074 a78.45859681661564,78.45859681661564 0 0,0 0.973322816827893,0.936335778625776 l -40.18989400408507 41.064129944208" fill="#45ffeb" stroke="none" /><path d="M 115.19652480421416 85.50635884689758 l 20.107966492977717 -19.17791432071413 a48.787096181057976,48.787096181057976 0 0,0 0.5743697353394078,0.6126975868884212 l -20.435103550287586 18.828947316947655" fill="#fffa17" stroke="none" /><path d="M 115.4437574822437 85.77008943001954 l 18.583512010309743 -17.122886984395137 a46.26935253063867,46.26935253063867 0 0,0 0.5346453636256189,0.5903687640679652 l -18.8755010145514 16.800465433057624" fill="#ffd313" stroke="none" /><path d="M 116.60985879189232 87.15038557335679 l 43.14550479343833 -33.37795388779504 a75.54926571106509,75.54926571106509 0 0,0 0.786878195686254,1.035439468697788 l -43.71365892934869 32.630329643216214" fill="#40ffc7" stroke="none" /><path d="M 117.04232023915458 87.72973835380427 l 10.511953593995312 -7.568477719051983 a33.953108636389075,33.953108636389075 0 0,0 0.3374088233734378,0.47724085241989433 l -10.640675037172631 7.386410366300295" fill="#ff0500" stroke="none" /><path d="M 117.2510076193507 88.02491185347247 l 10.40463852226286 -7.222561498210232 a33.66577661947285,33.66577661947285 0 0,0 0.3263584982850595,0.478890825709803 l -10.527421486216653 7.042392649230022" fill="#ff0000" stroke="none" /><path d="M 117.45458315368197 88.32363383020206 l 11.537129638942694 -7.717844019913287 a34.88057911693461,34.88057911693461 0 0,0 0.32954401226018704,0.5019181393873913 l -11.668270286560805 7.518107816548222" fill="#ff1602" stroke="none" /><path d="M 117.65298651832404 88.62581576622439 l 17.82755897048267 -11.486664874427161 a42.20767146066338,42.20767146066338 0 0,0 0.3882551120436819,0.6141263475862696 l -18.02264167877231 11.178090879126685" fill="#ff930d" stroke="none" /><line stroke="#e1ed5e" stroke-width="0.3" x1="172.23445277983987" x2="176.4835382374775" y1="55.19839476539836" y2="52.563006222186495" /><path d="M 173.08426987136738 54.67131705675599 a86.0,86.0 0 0,1 12.851231095245387,41.99856678651699" fill="none" id="id51" stroke="none" /><text fill="#e1ed5e" style="font-size:6.75px; font-family:Arial;" text-anchor="middle"><textPath startOffset="22.20632615414155" xlink:href="#id51">March</textPath></text><path d="M 117.84615892207809 88.93136811851018 l 21.830859935086472 -13.54004261269346 a46.68889253079857,46.68889253079857 0 0,0 0.4177193000975891,0.6866206974657992 l -22.060695033470285 13.16225414202058" fill="#ffda14" stroke="none" /><path d="M 118.03404312379186 89.2402003453031 l 54.10212937137558 -32.279398964090696 a84.0,84.0 0 0,0 0.7301613021186908,1.2480823505844187 l -54.6497503479646 31.34333720115238" fill="#4dd2ff" stroke="none" /><path d="M 118.21658344932153 89.55222093294921 l 11.749388314595539 -6.738640844776764 a34.54464492713072,34.54464492713072 0 0,0 0.2913961849098726,0.5183612980945838 l -11.863642140797845 6.535396036747387" fill="#ff1001" stroke="none" /><path d="M 118.3937258080291 89.86733742301442 l 22.12351114349765 -12.187311900528012 a46.25827224251921,46.25827224251921 0 0,0 0.3781986041994215,0.7007445751680776 l -22.33001784691554 11.804686342027475" fill="#ffd313" stroke="none" /><path d="M 118.56541770881063 90.18545643968196 l 25.67859660919564 -13.574900869005624 a50.04596800626764,50.04596800626764 0 0,0 0.3960556090958239,0.7650533748046657 l -25.90846165145158 13.130874771940613" fill="#f2ff19" stroke="none" /><path d="M 119.04729006885535 91.15688171328212 l 23.193741996073733 -10.768198690808404 a46.57154220662419,46.57154220662419 0 0,0 0.33131811910063563,0.7300155575573161 l -23.375662432137716 10.367361124409024" fill="#ffd814" stroke="none" /><path d="M 119.196687751892 91.48605970444005 l 24.05912633248748 -10.670484815170465 a47.319209829958346,47.319209829958346 0 0,0 0.3238195264508837,0.747420113242058 l -24.239236568781045 10.254765557341804" fill="#ffe315" stroke="none" /><path d="M 119.47837535516314 92.15188598940014 l 13.455957623017229 -5.421596391982813 a35.50711904514458,35.50711904514458 0 0,0 0.22353667442316338,0.5688764540963209 l -13.547287847322092 5.189170932990708" fill="#ff2103" stroke="none" /><path d="M 119.85752413597 93.16781622104841 l 24.227982842512812 -8.335884687330763 a46.62190715262177,46.62190715262177 0 0,0 0.2545616211257563,0.7611068459512998 l -24.36788175741034 7.917604738457149" fill="#ffd914" stroke="none" /><path d="M 119.97218684219823 93.5106431181261 l 14.644200010387296 -4.758189018948965 a36.39782311511188,36.39782311511188 0 0,0 0.18847922221634497,0.5975306410178789 l -14.723934716371847 4.505408211504666" fill="#ff3004" stroke="none" /><path d="M 120.18372546131832 94.20196356495316 l 52.10749982551701 -14.968553902824016 a75.21484246964113,75.21484246964113 0 0,0 0.3467519905156297,1.247451402252389 l -52.357438586599 14.069391197152676" fill="#40ffc3" stroke="none" /><path d="M 120.28053869075195 94.5502522615342 l 16.76309653532522 -4.504547380426868 a38.35777498860793,38.35777498860793 0 0,0 0.16585841286948375,0.6391201226908009 l -16.838151280065006 4.215330832187218" fill="#ff5207" stroke="none" /><path d="M 120.53481517161879 95.60439243477599 l 27.633524152116795 -5.915131292962586 a49.259519374515335,49.259519374515335 0 0,0 0.17034576094600737,0.8306664274383784 l -27.7312492089778 5.438589209360796" fill="#fdff18" stroke="none" /><path d="M 120.78858239683441 97.02765380044208 l 17.625763625945705 -2.520127179805367 a38.80501570906649,38.80501570906649 0 0,0 0.08885240056740164,0.662053588783385 l -17.666532025570945 2.2163552489573175" fill="#ff5a08" stroke="none" /><path d="M 120.87857604477298 97.74499172005257 l 26.025070680318713 -2.810859789694718 a47.17642520805519,47.17642520805519 0 0,0 0.08025130992709974,0.8081197391061701 l -26.06959911592804 2.3624645198841128" fill="#ffe115" stroke="none" /><path d="M 120.91429891909075 98.10471618934814 l 18.250500040078922 -1.6538865297889012 a39.32528560122155,39.32528560122155 0 0,0 0.055290445539136056,0.6746834811404689 l -18.276264969437552 1.3394891314406636" fill="#ff6309" stroke="none" /><path d="M 120.94382443527127 98.46500227214037 l 25.754791037802843 -1.8875991749600898 a46.8238705860721,46.8238705860721 0 0,0 0.05199547566442541,0.8043469947864013 l -25.783467104471683 1.4439931159206532" fill="#ffdc14" stroke="none" /><path d="M 120.98425023603335 99.18683210126433 l 36.35609803399069 -1.4088476601257196 a57.3833851639259,57.3833851639259 0 0,0 0.02975275384924901,0.9873490524540877 l -36.37496248229559 0.7828284602466329" fill="#8aff24" stroke="none" /><line stroke="#e1ed5e" stroke-width="0.3" x1="184.98032266829074" x2="189.97916517819016" y1="98.17113171792111" y2="98.06355123074" /><path d="M 185.9800911702706 98.14961562048488 a86.0,86.0 0 0,1 -9.607161424134198,41.387399972396054" fill="none" id="id52" stroke="none" /><text fill="#e1ed5e" style="font-size:6.75px; font-family:Arial;" text-anchor="middle"><textPath startOffset="21.466115282336823" xlink:href="#id52">April</textPath></text><path d="M 120.99980553446 99.90962569577887 l 53.962266205474926 -0.232230829686138 a74.96276591492321,74.96276591492321 0 0,0 -0.005553322767628437,1.2903966364705062 l -53.9582685854178 -0.6966752849880529" fill="#3fffbf" stroke="none" /><path d="M 120.95626037817324 101.35467743843564 l 37.1434289557975 2.40106604348949 a58.22095421586575,58.22095421586575 0 0,0 -0.0732570461061529,0.9995341911243438 l -37.09659535102701 -3.040073371110604" fill="#7fff26" stroke="none" /><path d="M 120.92983693683757 101.71520430193887 l 28.115406838857936 2.304063185312953 a49.20965807797773,49.20965807797773 0 0,0 -0.07645166485052877,0.8436377510111028 l -28.071580577730334 -2.7876823248726263" fill="#feff18" stroke="none" /><path d="M 120.8583938346157 102.4346265915055 l 48.939277713430315 5.7122742927816414 a70.27152301997809,70.27152301997809 0 0,0 -0.150576784705923,1.200245127926227 l -48.83369941947754 -6.553837174995263" fill="#38ff81" stroke="none" /><path d="M 120.76222939487914 103.15116336523771 l 44.860288294531635 6.808618397338189 a66.37403167395492,66.37403167395492 0 0,0 -0.18116395483425574,1.1281081196874096 l -44.73644258533609 -7.579805746718804" fill="#32ff49" stroke="none" /><path d="M 120.64145759157962 103.86396538481128 l 26.924555103936548 5.040126089036196 a48.39223500443691,48.39223500443691 0 0,0 -0.16031671584362328,0.8174514802060039 l -26.83380845511726 -5.502841296310145" fill="#fff417" stroke="none" /><path d="M 120.5718875245553 104.21870165774334 l 14.280939291810972 2.9286093554897206 a35.57813361900118,35.57813361900118 0 0,0 -0.1281930324129492,0.5988751697753294 l -14.22841222067358 -3.173998344681219" fill="#ff2203" stroke="none" /><path d="M 120.32669344350535 105.2749913415812 l 26.19612834747372 6.798171606214962 a48.06385555653266,48.06385555653266 0 0,0 -0.21471251181853754,0.7990251314917313 l -26.075227759313407 -7.248087670882241" fill="#ffef16" stroke="none" /><path d="M 120.23288151984713 105.62410040840565 l 34.18377901236077 9.502008170001858 a56.47983803272922,56.47983803272922 0 0,0 -0.2684335096736618,0.934452262342084 l -34.015152865801014 -10.089017907848524" fill="#97ff23" stroke="none" /><path d="M 120.02730092923936 106.31721596034902 l 24.053270818326055 7.587128532646349 a46.221505831940966,46.221505831940966 0 0,0 -0.24587144624407323,0.7567145023668599 l -23.919107121065736 -8.000041934991005" fill="#ffd313" stroke="none" /><path d="M 119.79798401119884 107.00284435728193 l 25.726284227236185 9.099773200777665 a48.2882313909519,48.2882313909519 0 0,0 -0.28392500265468545,0.7812396663692192 l -25.565834963576272 -9.541260664153015" fill="#fff216" stroke="none" /><path d="M 119.67450827220406 107.3425965602758 l 26.01716884709006 9.709700076959392 a48.7699720994188,48.7699720994188 0 0,0 -0.30029697031047253,0.7839806298556614 l -25.846177597186077 -10.156104273648197" fill="#fff917" stroke="none" /><path d="M 119.54520255179757 107.68017299344265 l 12.96328484899356 5.0938469396618276 a34.92817399090233,34.92817399090233 0 0,0 -0.22470023785399257,0.5576875628212262 l -12.873681996882175 -5.316233870325868" fill="#ff1702" stroke="none" /><path d="M 119.26925614724726 108.34839909993367 l 56.51007792406681 24.482973295565227 a82.58575231638778,82.58575231638778 0 0,0 -0.5763656321972171,1.2995523445215815 l -56.080271207138324 -25.4520739765795" fill="#4be2ff" stroke="none" /><path d="M 119.12269723197855 108.67885076344098 l 23.045703579707858 10.459310194605218 a46.30813353905681,46.30813353905681 0 0,0 -0.3356796843531038,0.7230241766299464 l -22.862249278514923 -10.854454438513995" fill="#ffd413" stroke="none" /><path d="M 118.97047184881838 109.00673069616215 l 22.838135621428556 10.84300584528936 a46.28144011767809,46.28144011767809 0 0,0 -0.3478749810360286,0.7167254981000322 l -22.648107383777813 -11.234520299354667" fill="#ffd313" stroke="none" /><path d="M 118.81262510543309 109.33194174019688 l 26.112336333856923 12.952939847698579 a50.14846067137272,50.14846067137272 0 0,0 -0.39025372148031906,0.7700076158608194 l -25.885503942590336 -13.400501675262094" fill="#f0ff19" stroke="none" /><path d="M 118.64920377521936 109.65438752849418 l 12.009412152338632 6.217076091052622 a34.523239825081745,34.523239825081745 0 0,0 -0.27774356078085916,0.5253861466036436 l -11.90061608333288 -6.4228772527424" fill="#ff0f01" stroke="none" /><line stroke="#e1ed5e" stroke-width="0.3" x1="174.80103733775053" x2="179.2010983576182" y1="140.37084112569926" y2="142.7455964860345" /><path d="M 175.68104954172406 140.8457921977663 a86.0,86.0 0 0,1 -30.038265399797805,32.042727171017184" fill="none" id="id53" stroke="none" /><text fill="#e1ed5e" style="font-size:6.75px; font-family:Arial;" text-anchor="middle"><textPath startOffset="22.206326154141568" xlink:href="#id53">May</textPath></text><path d="M 118.48025628344425 109.97397251340804 l 45.814302638457804 24.72642090176533 a73.06098555405438,73.06098555405438 0 0,0 -0.6068361633023598,1.101583903872652 l -45.381890065703935 -25.511375324035786" fill="#3cffa7" stroke="none" /><path d="M 118.12598468904814 110.60418214915192 l 23.999645927912905 14.040429874604806 a48.80497573688712,48.80497573688712 0 0,0 -0.4304578508359762,0.7214721178904158 l -23.7544072013787 -14.451464086381327" fill="#fffa17" stroke="none" /><path d="M 117.75023020441432 111.22182372390056 l 24.96699499616647 15.784314543301532 a50.53803352866405,50.53803352866405 0 0,0 -0.47119529425714235,0.7313055605622095 l -24.691594838532275 -16.211741703785194" fill="#eaff1a" stroke="none" /><path d="M 117.35343817320211 111.8261652097733 l 39.76514546496266 27.09948167997767 a69.12118765339324,69.12118765339324 0 0,0 -0.678503758035535,0.9774352686517058 l -39.292780799764984 -27.7799582108164" fill="#36ff71" stroke="none" /><path d="M 117.14729908036423 112.12312394758627 l 21.627170961105662 15.290389055927818 a47.48642145067033,47.48642145067033 0 0,0 -0.4776234189595341,0.663377154810058 l -21.360767749770528 -15.660399816189006" fill="#ffe615" stroke="none" /><path d="M 116.93607887273984 112.41649034213515 l 21.585590145128837 15.825225755040492 a47.76519142676697,47.76519142676697 0 0,0 -0.4918421185805018,0.6589028935288799 l -21.309986759853242 -16.194441528078688" fill="#ffea16" stroke="none" /><path d="M 116.498646956653 112.99209946851258 l 21.801844716501325 17.168179663340855 a48.75007794574976,48.75007794574976 0 0,0 -0.5248342575935105,0.6548114333041332 l -21.503092546852958 -17.540918930223235" fill="#fff917" stroke="none" /><path d="M 116.27256486870786 113.27417163493432 l 19.87215451365214 16.210498584486494 a46.64532685251065,46.64532685251065 0 0,0 -0.512885359834182,0.6178034558225999 l -19.590173153924415 -16.550163297422863" fill="#ffd914" stroke="none" /><path d="M 115.56566222782051 114.09645910891815 l 24.56345047685533 22.244969096275316 a54.139127167491424,54.139127167491424 0 0,0 -0.6315035079834961,0.6853723344585029 l -24.17690056087611 -22.664492685535155" fill="#b7ff1f" stroke="none" /><path d="M 115.32070863581623 114.36230785411682 l 12.886716435465619 12.080576236675071 a38.663742035543265,38.663742035543265 0 0,0 -0.4593500160496088,0.4816266553708518 l -12.676859868037045 -12.30061000862843" fill="#ff5808" stroke="none" /><path d="M 115.07121518719521 114.62390073753431 l 25.840964567407614 25.074003396685484 a57.00640354313398,57.00640354313398 0 0,0 -0.6893957434117242,0.6983542483545493 l -25.405528198940356 -25.515098139020697" fill="#90ff24" stroke="none" /><path d="M 114.55890576462653 115.13401014063108 l 19.709115623619407 20.487663051947642 a49.42874559306723,49.42874559306723 0 0,0 -0.618245724681526,0.5845899216388369 l -19.353534064547073 -20.823887610332402" fill="#fbff18" stroke="none" /><path d="M 114.29624159901734 115.38237550388516 l 19.425022701417287 20.900807481123767 a49.533756505472184,49.533756505472184 0 0,0 -0.6295515203766279,0.5750803873415724 l -19.062371631573797 -21.232080635051922" fill="#f9ff18" stroke="none" /><path d="M 114.0293411484842 115.62618273729858 l 17.746100974202445 19.76598998930188 a47.56347981804664,47.56347981804664 0 0,0 -0.6139259489073677,0.5417182699646449 l -17.40323267238849 -20.06853140103881" fill="#ffe715" stroke="none" /><path d="M 113.75828350139079 115.86535959552629 l 15.740353163600396 18.15098250271234 a45.02533836449831,45.02533836449831 0 0,0 -0.589905952993973,0.5027306508778041 l -15.425581734029375 -18.419237543813086" fill="#ffc011" stroke="none" /><path d="M 113.48314897796784 116.09983520530334 l 17.82288900692339 21.281792284781762 a48.75914363602932,48.75914363602932 0 0,0 -0.6481015950188479,0.5333434901685659 l -17.45391728335985 -21.585430893807505" fill="#fff917" stroke="none" /><path d="M 113.20401910651253 116.32954008644616 l 17.95980727646834 22.211070015892883 a49.563723648340755,49.563723648340755 0 0,0 -0.6680305053186041,0.5307238354349506 l -17.574819278432383 -22.51692776533296" fill="#f9ff18" stroke="none" /><path d="M 112.63410532772338 116.77436683061366 l 15.580652568649079 20.68651280541114 a46.89765523195855,46.89765523195855 0 0,0 -0.649007783930267,0.48012044296682893 l -15.222259814300248 -20.951643197117736" fill="#ffdd14" stroke="none" /><path d="M 112.34349029814194 116.9893568818739 l 17.671675950113553 24.322975282161536 a51.06485086379879,51.06485086379879 0 0,0 -0.7155709579375363,0.5105408789011301 l -17.250377664327132 -24.623560422906884" fill="#e3ff1b" stroke="none" /><path d="M 112.04921762599082 117.19931262002967 l 16.509866176324348 23.566538384114057 a49.774249122610655,49.774249122610655 0 0,0 -0.7059484487730988,0.48555778024777024 l -16.101760842928364 -23.847236953726924" fill="#f6ff19" stroke="none" /><path d="M 111.7513745106137 117.40417183066458 l 16.439119528224314 24.34687625312588 a50.377117526201765,50.377117526201765 0 0,0 -0.7228523864378562,0.47906714579512943 l -16.017592443046492 -24.62624142001233" fill="#edff1a" stroke="none" /><line stroke="#e1ed5e" stroke-width="0.3" x1="143.8653032363475" x2="146.44561519142675" y1="172.8068346515853" y2="177.08958963109032" /><path d="M 144.38136562736335 173.6633856474863 a86.0,86.0 0 0,1 -40.68145358897372,12.25698825130547" fill="none" id="id54" stroke="none" /><text fill="#e1ed5e" style="font-size:6.75px; font-family:Arial;" text-anchor="middle"><textPath startOffset="21.466115282336833" xlink:href="#id54">June</textPath></text><line stroke="#e1ed5e" stroke-width="0.3" x1="102.19456741930631" x2="102.32365962044197" y1="184.97166512339345" y2="189.96999836594603" /><path d="M 102.22038585953345 185.97133177190398 a86.0,86.0 0 0,1 -42.740103519485714,-10.115201625700543" fill="none" id="id55" stroke="none" /><text fill="#e1ed5e" style="font-size:6.75px; font-family:Arial;" text-anchor="middle"><textPath startOffset="22.20632615414155" xlink:href="#id55">July</textPath></text><line stroke="#e1ed5e" stroke-width="0.3" x1="58.666819895761336" x2="56.23545636021788" y1="174.27360380694188" y2="178.64263932499728" /><path d="M 58.180547188652646 175.14741091055294 a86.0,86.0 0 0,1 -31.652253787137756,-30.449443065178592" fill="none" id="id56" stroke="none" /><text fill="#e1ed5e" style="font-size:6.75px; font-family:Arial;" text-anchor="middle"><textPath startOffset="22.20632615414155" xlink:href="#id56">August</textPath></text><line stroke="#e1ed5e" stroke-width="0.3" x1="26.63291911575756" x2="22.317208475507996" y1="142.92168965132927" y2="145.44649492493687" /><path d="M 25.769776987707644 143.4266507060508 a86.0,86.0 0 0,1 -11.730757126820373,-40.83630448921669" fill="none" id="id57" stroke="none" /><text fill="#e1ed5e" style="font-size:6.75px; font-family:Arial;" text-anchor="middle"><textPath startOffset="21.46611528233685" xlink:href="#id57">September</textPath></text><line stroke="#e1ed5e" stroke-width="0.3" x1="15.007084014347285" x2="10.007500721073583" y1="101.09737516637583" y2="101.16192664675087" /><path d="M 14.007167355692545 101.11028546245083 a86.0,86.0 0 0,1 10.666146001902534,-42.60595125391555" fill="none" id="id58" stroke="none" /><text fill="#e1ed5e" style="font-size:6.75px; font-family:Arial;" text-anchor="middle"><textPath startOffset="22.20632615414155" xlink:href="#id58">October</textPath></text><line stroke="#e1ed5e" stroke-width="0.3" x1="26.266209847984243" x2="21.928928074336255" y1="57.711370442889674" y2="55.22380399835377" /><path d="M 25.398753493254645 57.213857153982495 a86.0,86.0 0 0,1 29.58750427330803,-30.492523968695096" fill="none" id="id59" stroke="none" /><text fill="#e1ed5e" style="font-size:6.75px; font-family:Arial;" text-anchor="middle"><textPath startOffset="21.46611528233685" xlink:href="#id59">November</textPath></text><line stroke="#e1ed5e" stroke-width="0.3" x1="56.762969772571076" x2="54.21961505331055" y1="26.818313649435495" y2="22.513508569990535" /><path d="M 56.25429882871897 25.957352633546506 a86.0,86.0 0 0,1 42.265352541879196,-11.944610805530505" fill="none" id="id60" stroke="none" /><text fill="#e1ed5e" style="font-size:6.75px; font-family:Arial;" text-anchor="middle"><textPath startOffset="22.20632615414155" xlink:href="#id60">December</textPath></text></svg>