<?xml version="1.0" encoding="utf-8" ?>
<svg baseProfile="full" height="200mm" version="1.1" viewBox="0,0,200,200" width="200mm" xmlns="http://www.w3.org/2000/svg" xmlns:ev="http://www.w3.org/2001/xml-events" xmlns:xlink="http://www.w3.org/1999/xlink"><defs /><rect fill="#1a1a1a" height="200" width="200" x="0" y="0" /><text alignment-baseline="middle" fill="#e1ed5e" style="dominant-baseline: central; font-size:9.0px; font-family:Arial;" text-anchor="middle" x="100.0" y="100.0">2021</text><line stroke="#e1ed5e" stroke-width="0.3" x1="100.0" x2="100.0" y1="15.0" y2="10.0" /><path d="M 100.0 14.0 a86.0,86.0 0 0,1 42.46469731375804,11.215312516191453" fill="none" id="id1" stroke="none" /><text fill="#e1ed5e" style="font-size:6.75px; font-family:Arial;" text-anchor="middle"><textPath startOffset="22.20632615414155" xlink:href="#id1">January</textPath></text><line stroke="#e1ed5e" stroke-width="0.3" x1="143.23703022742887" x2="145.7803849466894" y1="26.81831364943548" y2="22.513508569990506" /><path d="M 143.74570117128098 25.957352633546492 a86.0,86.0 0 0,1 28.547481713284135,27.462654790039103" fill="none" id="id2" stroke="none" /><text fill="#e1ed5e" style="font-size:6.75px; font-family:Arial;" text-anchor="middle"><textPath startOffset="19.985693538727396" xlink:href="#id2">February</textPath></text><line stroke="#e1ed5e" stroke-width="0.3" x1="172.23445277983987" x2="176.4835382374775" y1="55.19839476539836" y2="52.563006222186495" /><path d="M 173.08426987136738 54.67131705675599 a86.0,86.0 0 0,1 12.851231095245387,41.99856678651699" fill="none" id="id3" stroke="none" /><text fill="#e1ed5e" style="font-size:6.75px; font-family:Arial;" text-anchor="middle"><textPath startOffset="22.20632615414155" xlink:href="#id3">March</textPath></text><path d="M 120.83666639777658 97.38593545837742 l 45.25129170343042 -5.677002013968018 a66.60600566477564,66.60600566477564 0 0,0 0.1329254373929383,1.1388239713860964 l -45.342307493826944 4.8972343042570685" fill="red" stroke="none" /><path d="M 120.87857604477298 97.74499172005257 l 44.05073048850889 -4.757736436445769 a65.30691720905361,65.30691720905361 0 0,0 0.11109289502571996,1.1186902921122006 l -44.12610050921684 3.998770613629133" fill="red" stroke="none" /><path d="M 120.91429891909075 98.10471618934814 l 40.71182421705384 -3.6893639915538308 a61.87865014579695,61.87865014579695 0 0,0 0.08699995648131198,1.0616198318809578 l -40.769298657354646 2.988030242465104" fill="red" stroke="none" /><line stroke="#e1ed5e" stroke-width="0.3" x1="184.98032266829074" x2="189.97916517819016" y1="98.17113171792111" y2="98.06355123074" /><path d="M 185.9800911702706 98.14961562048488 a86.0,86.0 0 0,1 -9.607161424134198,41.387399972396054" fill="none" id="id4" stroke="none" /><text fill="#e1ed5e" style="font-size:6.75px; font-family:Arial;" text-anchor="middle"><textPath startOffset="21.466115282336823" xlink:href="#id4">April</textPath></text><path d="M 120.99980553446 99.90962569577887 l 52.26098136709236 -0.22490921743127787 a73.26146532204834,73.26146532204834 0 0,0 -0.005427288579832933,1.2611107298490434 l -52.25710978122303 -0.6747109906214502" fill="red" stroke="none" /><path d="M 120.9764740272857 100.99374915477107 l 35.84580012743816 1.6981754670684053 a56.88600265693016,56.88600265693016 0 0,0 -0.054755890338964865,0.9777032049287786 l -35.81125788621166 -2.314950388332607" fill="red" stroke="none" /><path d="M 120.95626037817324 101.35467743843564 l 48.37587430017234 3.127166025637758 a69.47684376749355,69.47684376749355 0 0,0 -0.08741987168939726,1.1927746937903982 l -48.31487786981861 -3.959413855924927" fill="red" stroke="none" /><path d="M 120.81339534386255 102.79330883721812 l 39.158996413286324 5.255421757511564 a60.51008045986615,60.51008045986615 0 0,0 -0.14743122332337427,1.031133632542517 l -39.06273113894635 -5.92870086203449" fill="red" stroke="none" /><path d="M 120.49622156327973 104.57218783832717 l 43.33238289813578 9.66635696637588 a65.3974533575075,65.3974533575075 0 0,0 -0.2545500393821777,1.096594907464939 l -43.15957229282306 -10.410820531189383" fill="red" stroke="none" /><path d="M 120.32669344350535 105.2749913415812 l 50.40293771969355 13.080093956284411 a73.07249743079868,73.07249743079868 0 0,0 -0.3264319785949412,1.2147748280284894 l -50.17031766475683 -13.945759717488448" fill="red" stroke="none" /><path d="M 120.13307415673323 105.97154293290107 l 24.66090054620567 7.314512688387456 a46.72279362002557,46.72279362002557 0 0,0 -0.2353343180342846,0.7690861676885556 l -24.531339455665254 -7.737925828628069" fill="red" stroke="none" /><path d="M 120.02730092923936 106.31721596034902 l 24.868176010767794 7.844174257682037 a47.075989873586934,47.075989873586934 0 0,0 -0.2504168028552547,0.7707036715796838 l -24.729466956896292 -8.271076829239517" fill="red" stroke="none" /><path d="M 119.9155931802556 106.66101706037122 l 24.824313415682507 8.302799403323682 a47.17600073525111,47.17600073525111 0 0,0 -0.2642062021854484,0.7679068957327649 l -24.67771638255383 -8.728879002145748" fill="red" stroke="none" /><path d="M 119.54520255179757 107.68017299344265 l 25.132765532842342 9.87577317678448 a48.003459022283124,48.003459022283124 0 0,0 -0.308816277167278,0.7664566740906251 l -24.95904664141767 -10.306929218717919" fill="red" stroke="none" /><path d="M 119.41010516605496 108.01547362559984 l 23.713551243627588 9.792597357742151 a46.655944254597415,46.655944254597415 0 0,0 -0.31292590332411324,0.7396643986407085 l -23.541474359111167 -10.199336282049025" fill="red" stroke="none" /><path d="M 119.26925614724726 108.34839909993367 l 23.52698462293888 10.193058608458792 a46.640153065913594,46.640153065913594 0 0,0 -0.3255014400622711,0.7339198174698486 l -23.348042098145335 -10.596526762421327" fill="red" stroke="none" /><path d="M 118.97047184881838 109.00673069616215 l 23.609628486908267 11.209292384114645 a47.135470017629316,47.135470017629316 0 0,0 -0.3542943066770268,0.7299512102619374 l -23.413180923616526 -11.614032550341859" fill="red" stroke="none" /><path d="M 118.81262510543309 109.33194174019688 l 27.47177369348616 13.627284346055873 a51.66596205101639,51.66596205101639 0 0,0 -0.40206286881663056,0.7933081838894601 l -27.23313215488326 -14.098146741648028" fill="red" stroke="none" /><path d="M 118.64920377521936 109.65438752849418 l 22.845652479541528 11.826820331700924 a46.7254254848062,46.7254254848062 0 0,0 -0.37591159227536514,0.7110830666026545 l -22.63868837904127 -12.218318413389714" fill="red" stroke="none" /><line stroke="#e1ed5e" stroke-width="0.3" x1="174.80103733775053" x2="179.2010983576182" y1="140.37084112569926" y2="142.7455964860345" /><path d="M 175.68104954172406 140.8457921977663 a86.0,86.0 0 0,1 -30.038265399797805,32.042727171017184" fill="none" id="id5" stroke="none" /><text fill="#e1ed5e" style="font-size:6.75px; font-family:Arial;" text-anchor="middle"><textPath startOffset="22.206326154141568" xlink:href="#id5">May</textPath></text><path d="M 118.12598468904814 110.60418214915192 l 36.7997455494456 21.528827897804906 a63.63463032743739,63.63463032743739 0 0,0 -0.5612547859292851,0.9406953045324514 l -36.42370988781809 -22.159085296223463" fill="red" stroke="none" /><path d="M 117.35343817320211 111.8261652097733 l 36.487500593023256 24.865805023649163 a65.15479542473284,65.15479542473284 0 0,0 -0.6395690677567155,0.9213469434186484 l -36.054070618104404 -25.49019322925483" fill="red" stroke="none" /><path d="M 116.93607887273984 112.41649034213515 l 20.540728276636457 15.059197361072455 a46.469608228128365,46.469608228128365 0 0,0 -0.4785013914488479,0.6410308094255595 l -20.27846561849252 -15.41054105000733" fill="red" stroke="none" /><path d="M 116.27256486870786 113.27417163493432 l 20.472212752183225 16.699989707335554 a47.41971141393802,47.41971141393802 0 0,0 -0.5214000499700994,0.6280599486047862 l -20.18171670231958 -17.04991091305411" fill="red" stroke="none" /><path d="M 115.56566222782051 114.09645910891815 l 19.038599506988003 17.241594704634906 a46.685421140140534,46.685421140140534 0 0,0 -0.5445600763099943,0.591012410913219 l -18.738993022682287 -17.56675837034946" fill="red" stroke="none" /><path d="M 115.07121518719521 114.62390073753431 l 18.61818344099816 18.06559478930992 a46.942291142730625,46.942291142730625 0 0,0 -0.5676873770032828,0.5750643157521286 l -18.304455438939343 -18.383399599042715" fill="red" stroke="none" /><path d="M 114.81725581225074 114.88116024355365 l 18.036304544612182 18.114092213215205 a46.56224986840677,46.56224986840677 0 0,0 -0.5728266414758598,0.5606314327104827 l -17.721827950760527 -18.42187374884826" fill="red" stroke="none" /><path d="M 113.75828350139079 115.86535959552629 l 33.41315485682873 38.53036732169429 a72.00027571916749,72.00027571916749 0 0,0 -0.9433219783959211,0.8039194549222739 l -32.74496740185577 -39.099811166839515" fill="red" stroke="none" /><path d="M 113.20401910651253 116.32954008644616 l 16.11495553356342 19.92952374984293 a46.62962560679105,46.62962560679105 0 0,0 -0.6284841021617785,0.4993057810288312 l -15.769513938684291 -20.203963444876884" fill="red" stroke="none" /><path d="M 112.92097659922987 116.55440617244103 l 16.16074790056493 20.705213939658485 a47.26548413779274,47.26548413779274 0 0,0 -0.6456718825228194,0.4950736666569917 l -15.80194728954862 -20.98032694814285" fill="red" stroke="none" /><path d="M 112.34349029814194 116.9893568818739 l 15.018925602848366 20.671777664662105 a46.55172240928422,46.55172240928422 0 0,0 -0.6523285593627156,0.4654191067078222 l -14.660869715636766 -20.92724103321415" fill="red" stroke="none" /><path d="M 112.04921762599082 117.19931262002967 l 15.117521241295307 21.579075251169762 a47.347598318948585,47.347598318948585 0 0,0 -0.67153124709238,0.46188531509897157 l -14.743833109580045 -21.83610135563383" fill="red" stroke="none" /><path d="M 111.45004920935366 117.60387380957326 l 14.072462244410135 21.635701734644677 a46.80964515778656,46.80964515778656 0 0,0 -0.6792262247287308,0.43351431309842614 l -13.697954217634473 -21.874730476566913" fill="red" stroke="none" /><path d="M 111.1453310114006 117.79835938074945 l 13.967538493938536 22.305238805853044 a47.317595060449335,47.317595060449335 0 0,0 -0.6940382613237448,0.42633498606578957 l -13.581521032682481 -22.54236225874721" fill="red" stroke="none" /><line stroke="#e1ed5e" stroke-width="0.3" x1="143.8653032363475" x2="146.44561519142675" y1="172.8068346515853" y2="177.08958963109032" /><path d="M 144.38136562736335 173.6633856474863 a86.0,86.0 0 0,1 -40.68145358897372,12.25698825130547" fill="none" id="id6" stroke="none" /><text fill="#e1ed5e" style="font-size:6.75px; font-family:Arial;" text-anchor="middle"><textPath startOffset="21.466115282336833" xlink:href="#id6">June</textPath></text><path d="M 110.8373102113329 117.98757091392108 l 13.326721506128296 22.119450626307813 a46.82385722760199,46.82385722760199 0 0,0 -0.6939566081718879,0.41000179608214715 l -12.943997026928026 -22.34557099468371" fill="red" stroke="none" /><path d="M 109.57404056367764 118.69057910512821 l 25.795362760289905 50.35807661456975 a77.58035542707228,77.58035542707228 0 0,0 -1.193799461754331,0.5985958329939173 l -24.92470939085281 -50.79464028847296" fill="red" stroke="none" /><path d="M 108.59647513512805 119.15986991738527 l 10.708622187846476 23.8674346041144 a47.15968317361117,47.15968317361117 0 0,0 -0.7435045756415841,0.3259305563759073 l -10.296196937547139 -24.04822971378476" fill="red" stroke="none" /><path d="M 106.91757812671514 119.82793768551818 l 10.79415453112863 30.939415426986145 a53.76829563778856,53.76829563778856 0 0,0 -0.8765007145330616,0.297356631188164 l -10.259984083658342 -31.12063504507243" fill="red" stroke="none" /><path d="M 105.53697534728816 120.25689768951611 l 6.932796281711931 25.36347665872814 a47.29390827742361,47.29390827742361 0 0,0 -0.787127282845523,0.2078874694880493 l -6.495178556054911 -25.479055477519772" fill="red" stroke="none" /><path d="M 104.13013068566511 120.58985236759428 l 5.207428553234507 25.96048243655686 a47.477612439112015,47.477612439112015 0 0,0 -0.8026709523189552,0.15383379838489528 l -4.759789986343847 -26.046273433290224" fill="red" stroke="none" /><path d="M 103.41894727170886 120.7198165907248 l 4.27894732653576 25.931667487483523 a47.28232807238882,47.28232807238882 0 0,0 -0.8041691367882629,0.12559468059272888 l -3.8319423261389796 -26.00148047542336" fill="red" stroke="none" /><path d="M 102.34483914955558 120.86867818915974 l 4.03238591591509 35.88756355832809 a57.113395773977125,57.113395773977125 0 0,0 -0.9779102579755,0.10136439667296887 l -3.414043061333987 -35.95165732345682" fill="red" stroke="none" /><path d="M 101.26447882468166 120.96189622390904 l 1.5866020240645853 26.30189318153171 a47.34970381077309,47.34970381077309 0 0,0 -0.8139908587036581,0.04207402966007292 l -1.1336230969474477 -26.325307017953985" fill="red" stroke="none" /><line stroke="#e1ed5e" stroke-width="0.3" x1="102.19456741930631" x2="102.32365962044197" y1="184.97166512339345" y2="189.96999836594603" /><path d="M 102.22038585953345 185.97133177190398 a86.0,86.0 0 0,1 -42.740103519485714,-10.115201625700543" fill="none" id="id7" stroke="none" /><text fill="#e1ed5e" style="font-size:6.75px; font-family:Arial;" text-anchor="middle"><textPath startOffset="22.20632615414155" xlink:href="#id7">July</textPath></text><path d="M 99.45781275523022 120.99299961872073 l -0.7129381518616725 27.604320268652977 a48.61352527843458,48.61352527843458 0 0,0 -0.8363370150689855,-0.028805137821797465 l 1.187995518605301 -27.587958332405087" fill="red" stroke="none" /><path d="M 96.93821686468263 120.77559828337769 l -2.990743074435427 20.293558993956626 a41.51275410027823,41.51275410027823 0 0,0 -0.7060412841646602,-0.11026912811413786 l 3.3396202222086044 -20.239071558495382" fill="red" stroke="none" /><path d="M 95.16358092515715 120.4354850818985 l -14.509257224528554 61.30645524569551 a84.0,84.0 0 0,0 -1.4041868610271577,-0.3451149667438802 l 15.562397370298923 -61.0476190206376" fill="red" stroke="none" /><path d="M 91.07499286063937 119.00905698771935 l -10.998637513013081 23.425608966752158 a46.879126387995356,46.879126387995356 0 0,0 -0.7274911154792026,-0.3492399449923043 l 11.400241296492526 -23.23281474526029" fill="red" stroke="none" /><path d="M 90.42595943632237 118.69057910512821 l -11.634082728961996 22.71222292354096 a46.5185609130482,46.5185609130482 0 0,0 -0.7095389648487955,-0.371197251526432 l 12.023312596337288 -22.50859625306981" fill="red" stroke="none" /><path d="M 90.10565033884886 118.52300852407294 l -12.136651165985104 22.7207750585082 a46.759113353998345,46.759113353998345 0 0,0 -0.7066798055146426,-0.3853381753016278 l 12.525953783368386 -22.508496231446806" fill="red" stroke="none" /><line stroke="#e1ed5e" stroke-width="0.3" x1="58.666819895761336" x2="56.23545636021788" y1="174.27360380694188" y2="178.64263932499728" /><path d="M 58.180547188652646 175.14741091055294 a86.0,86.0 0 0,1 -31.652253787137756,-30.449443065178592" fill="none" id="id8" stroke="none" /><text fill="#e1ed5e" style="font-size:6.75px; font-family:Arial;" text-anchor="middle"><textPath startOffset="22.20632615414155" xlink:href="#id8">August</textPath></text><path d="M 89.7882731507175 118.34994917583269 l -12.875084317739406 23.135865887528983 a47.47708606615589,47.47708606615589 0 0,0 -0.7106895498992416,-0.40354807429069345 l 13.271422634559855 -22.910814647443654" fill="red" stroke="none" /><path d="M 89.4739219176387 118.17145234162733 l -13.022357547046193 22.48084687290265 a46.98018999557178,46.98018999557178 0 0,0 -0.696273550086329,-0.4113706862046021 l 13.407398968160905 -22.253357614404297" fill="red" stroke="none" /><path d="M 88.8546689885994 117.79835938074946 l -13.820035387318276 22.069686061953483 a47.03967013961416,47.03967013961416 0 0,0 -0.6825639770119224,-0.43564462452584296 l 14.19788116637712 -21.828527008603835" fill="red" stroke="none" /><path d="M 87.95078237400918 117.19931262002967 l -20.603681931498667 29.410139119664407 a56.90916306699975,56.90916306699975 0 0,0 -0.79746721360045,-0.5689716828361727 l 21.106876472948006 -29.051123174984014" fill="red" stroke="none" /><path d="M 87.65650970185807 116.9893568818739 l -15.051721394494978 20.716917199352057 a46.6075179426337,46.6075179426337 0 0,0 -0.644992628838847,-0.47715012721900296 l 15.406098993752389 -20.454757123393286" fill="red" stroke="none" /><path d="M 84.9287848128048 114.62390073753433 l -18.761734414064584 18.20488516203871 a47.14231286605897,47.14231286605897 0 0,0 -0.5600808672821521,-0.5872425501715366 l 19.072321832725695 -17.87923549528467" fill="red" stroke="none" /><path d="M 83.95833913139862 113.55231037782056 l -28.617973439077762 24.177026406893557 a58.46354240644347,58.46354240644347 0 0,0 -0.6428317048591269,-0.7743321995049763 l 29.029901143830422 -23.68083295027482" fill="red" stroke="none" /><path d="M 82.85270091963577 112.12312394758628 l -29.930659470746303 21.16094744112594 a57.65555991878817,57.65555991878817 0 0,0 -0.5659554675580108,-0.8153010619706859 l 30.290475845466446 -20.642605116968245" fill="red" stroke="none" /><path d="M 82.44556493220864 111.52570212397912 l -22.001308302314463 14.445382312277951 a47.319700552273844,47.319700552273844 0 0,0 -0.441188915932845,-0.6847349950486254 l 22.246702081624356 -14.064525717307877" fill="red" stroke="none" /><path d="M 82.05923443525364 110.91462005526583 l -18.610956670212968 11.322344087676147 a42.78447116228162,42.78447116228162 0 0,0 -0.37735725154247873,-0.6324724591337508 l 18.803094797453678 -11.000309534656285" fill="red" stroke="none" /><line stroke="#e1ed5e" stroke-width="0.3" x1="26.63291911575756" x2="22.317208475507996" y1="142.92168965132927" y2="145.44649492493687" /><path d="M 25.769776987707644 143.4266507060508 a86.0,86.0 0 0,1 -11.730757126820373,-40.83630448921669" fill="none" id="id9" stroke="none" /><text fill="#e1ed5e" style="font-size:6.75px; font-family:Arial;" text-anchor="middle"><textPath startOffset="21.46611528233685" xlink:href="#id9">September</textPath></text><path d="M 81.35079622478065 109.6543875284942 l -35.45556636426544 18.354766340089302 a60.9248623492944,60.9248623492944 0 0,0 -0.4741153356290613,-0.9354745365296971 l 35.766260369680765 -17.74173759185692" fill="red" stroke="none" /><path d="M 81.18737489456691 109.33194174019688 l -23.214660236255643 11.515557006482727 a46.91386700309975,46.91386700309975 0 0,0 -0.3526286250499757,-0.7265194127516118 l 23.409442117920335 -11.11424863776583" fill="red" stroke="none" /><path d="M 80.58989483394504 108.01547362559985 l -24.43408979211473 10.090146375751974 a47.43550260262184,47.43550260262184 0 0,0 -0.30516249490481373,-0.7573882861596835 l 24.60415490127693 -9.668058721749485" fill="red" stroke="none" /><path d="M 80.32549172779594 107.34259656027581 l -34.57073146368566 12.901920109998283 a57.899796970431204,57.899796970431204 0 0,0 -0.34043905802721247,-0.9367420749334546 l 34.7876947827181 -12.304930238058711" fill="red" stroke="none" /><path d="M 79.35854240842038 103.8639653848113 l -26.08970415783655 4.883846662406805 a47.5428826856718,47.5428826856718 0 0,0 -0.14365547846935534,-0.8056962135200545 l 26.169906078645095 -4.434031698153537" fill="red" stroke="none" /><line stroke="#e1ed5e" stroke-width="0.3" x1="15.007084014347285" x2="10.007500721073583" y1="101.09737516637583" y2="101.16192664675087" /><path d="M 14.007167355692545 101.11028546245083 a86.0,86.0 0 0,1 10.666146001902534,-42.60595125391555" fill="none" id="id10" stroke="none" /><text fill="#e1ed5e" style="font-size:6.75px; font-family:Arial;" text-anchor="middle"><textPath startOffset="22.20632615414155" xlink:href="#id10">October</textPath></text><path d="M 79.00019446554 99.90962569577889 l -34.44078995860666 -0.1482186310833788 a55.44110889236091,55.44110889236091 0 0,0 0.01232110764698121,-0.954283365595696 l 34.43313584384197 0.7410382547395468" fill="red" stroke="none" /><path d="M 79.01574976396665 99.18683210126434 l -53.507760488064854 -2.073497631448145 a74.54792082682329,74.54792082682329 0 0,0 0.06072599709722632,-1.2818298207101502 l 53.46414088273413 2.9942385587813045" fill="red" stroke="none" /><path d="M 79.05617556472873 98.46500227214037 l -53.006230343824505 -3.884889476209989 a74.14840375312272,74.14840375312272 0 0,0 0.10425094737006135,-1.2721256158813643 l 52.93150491263495 4.796729009299131" fill="red" stroke="none" /><path d="M 79.71946130924805 94.55025226153421 l -50.89697266719481 -13.676937576331978 a73.70256585928296,73.70256585928296 0 0,0 0.339780162780127,-1.2223700284671049 l 50.65400573384832 14.551018908218026" fill="red" stroke="none" /><path d="M 80.38941819471856 92.48833698450439 l -51.50524240864086 -19.728635710386136 a76.15441108892361,76.15441108892361 0 0,0 0.47943354051985565,-1.2201060663069265 l 51.15801531823931 20.612290781588825" fill="red" stroke="none" /><path d="M 80.803312248108 91.48605970444005 l -22.004007057425316 -9.759017012272581 a45.07103528369831,45.07103528369831 0 0,0 0.32064324968797875,-0.7064948978140929 l 21.832761490773986 10.136333918928745" fill="red" stroke="none" /><path d="M 81.43458229118936 90.18545643968196 l -46.7736470167775 -24.726725965516234 a73.90732493921644,73.90732493921644 0 0,0 0.6042518619281958,-1.119586930199569 l 46.34108705563084 25.528193879048274" fill="red" stroke="none" /><path d="M 81.6062741919709 89.86733742301443 l -23.266210511827868 -12.816797587499053 a47.56288485800462,47.56288485800462 0 0,0 0.40120960050873683,-0.7137071111347809 l 23.042143270026703 13.215388208568617" fill="red" stroke="none" /><line stroke="#e1ed5e" stroke-width="0.3" x1="26.266209847984243" x2="21.928928074336255" y1="57.711370442889674" y2="55.22380399835377" /><path d="M 25.398753493254645 57.213857153982495 a86.0,86.0 0 0,1 29.58750427330803,-30.492523968695096" fill="none" id="id11" stroke="none" /><text fill="#e1ed5e" style="font-size:6.75px; font-family:Arial;" text-anchor="middle"><textPath startOffset="21.46611528233685" xlink:href="#id11">November</textPath></text><path d="M 82.7489923806493 88.02491185347247 l -43.48244987848071 -30.184101799229847 a73.93206446815444,73.93206446815444 0 0,0 0.7346994688738062,-1.0391802955600546 l 42.956437789803026 30.92810859512169" fill="red" stroke="none" /><path d="M 84.31358615837235 86.03803664274999 l -19.916438879756544 -17.726970144580672 a47.662895719668796,47.662895719668796 0 0,0 0.5507478453824726,-0.6081495266070029 l 19.608347393758027 18.06717245845723" fill="red" stroke="none" /><path d="M 84.5562425177563 85.77008943001954 l -38.90933450341916 -35.85114250581139 a73.90785131217257,73.90785131217257 0 0,0 0.8701160003484656,-0.928179082088078 l 38.28645118110024 36.51559100477751" fill="red" stroke="none" /><line stroke="#e1ed5e" stroke-width="0.3" x1="56.762969772571076" x2="54.21961505331055" y1="26.818313649435495" y2="22.513508569990535" /><path d="M 56.25429882871897 25.957352633546506 a86.0,86.0 0 0,1 42.265352541879196,-11.944610805530505" fill="none" id="id12" stroke="none" /><text fill="#e1ed5e" style="font-size:6.75px; font-family:Arial;" text-anchor="middle"><textPath startOffset="22.20632615414155" xlink:href="#id12">December</textPath></text><path d="M 92.57280143429618 80.3572730644239 l -9.360217484397353 -24.75498594485193 a47.46550586112109,47.46550586112109 0 0,0 0.7667208811541889,-0.2823897711527772 l 8.932714277470595 24.912438983811033" fill="red" stroke="none" /></svg>